<svg xmlns="http://www.w3.org/2000/svg" width="23.766" height="20.795" viewBox="0 0 23.766 20.795">
  <path id="Icon_awesome-camera" data-name="Icon awesome-camera" d="M23.766,7.449V20.817a2.229,2.229,0,0,1-2.228,2.228H2.228A2.229,2.229,0,0,1,0,20.817V7.449A2.229,2.229,0,0,1,2.228,5.221H6.313l.571-1.527A2.225,2.225,0,0,1,8.968,2.25h5.825a2.225,2.225,0,0,1,2.084,1.444l.576,1.527h4.085A2.229,2.229,0,0,1,23.766,7.449Zm-6.313,6.684a5.57,5.57,0,1,0-5.57,5.57A5.575,5.575,0,0,0,17.453,14.133Zm-1.485,0a4.085,4.085,0,1,1-4.085-4.085A4.091,4.091,0,0,1,15.968,14.133Z" transform="translate(0 -2.25)" fill="#242a37"/>
</svg>
