<svg xmlns="http://www.w3.org/2000/svg" xmlns:xlink="http://www.w3.org/1999/xlink" width="252" height="286" viewBox="0 0 252 286">
  <defs>
    <clipPath id="clip-path">
      <rect id="Rectángulo_5002" data-name="Rectángulo 5002" width="252" height="286" transform="translate(-3380 -3629.043)" fill="#fff"/>
    </clipPath>
    <clipPath id="clip-path-2">
      <path id="Trazado_17366" data-name="Trazado 17366" d="M120.224-312.917l25.3,176.234A30.69,30.69,0,0,1,115.5-99.631H-75.529a30.688,30.688,0,0,1-30.688-30.688l32.737-176.234c4.823-16.506,15.462-30.688,32.411-30.688H90.2A30.689,30.689,0,0,1,120.224-312.917Z" transform="translate(106.218 337.241)" fill="none"/>
    </clipPath>
  </defs>
  <g id="Enmascarar_grupo_5" data-name="Enmascarar grupo 5" transform="translate(3380 3629.043)" clip-path="url(#clip-path)">
    <g id="Grupo_3841" data-name="Grupo 3841" transform="translate(-3379.916 -3580.273)">
      <g id="Grupo_3840" data-name="Grupo 3840" transform="translate(0 0)">
        <path id="Trazado_17355" data-name="Trazado 17355" d="M120.224-312.917l25.3,176.234A30.69,30.69,0,0,1,115.5-99.631H-75.529a30.688,30.688,0,0,1-30.688-30.688l32.737-176.234c4.823-16.506,15.462-30.688,32.411-30.688H90.2A30.689,30.689,0,0,1,120.224-312.917Z" transform="translate(106.218 337.241)" fill="#e9efff"/>
        <g id="Grupo_3839" data-name="Grupo 3839">
          <g id="Grupo_3838" data-name="Grupo 3838" clip-path="url(#clip-path-2)">
            <g id="Grupo_3834" data-name="Grupo 3834" transform="translate(-16.898 110.015)">
              <rect id="Rectángulo_4970" data-name="Rectángulo 4970" width="278.824" height="35.107" transform="translate(0 98.435)" fill="#d3dfff"/>
              <g id="Grupo_3818" data-name="Grupo 3818" transform="translate(7.775 37.578)">
                <rect id="Rectángulo_4971" data-name="Rectángulo 4971" width="19.018" height="24.472" transform="translate(208.457 14.298)" fill="#adc6fe"/>
                <rect id="Rectángulo_4972" data-name="Rectángulo 4972" width="19.018" height="34.775" transform="translate(91.546)" fill="#adc6fe"/>
                <rect id="Rectángulo_4973" data-name="Rectángulo 4973" width="25.452" height="23.135" transform="translate(31.292 11.64)" fill="#adc6fe"/>
                <rect id="Rectángulo_4974" data-name="Rectángulo 4974" width="19.018" height="24.472" transform="translate(165.393 5.799)" fill="#adc6fe"/>
                <rect id="Rectángulo_4975" data-name="Rectángulo 4975" width="19.018" height="24.472" transform="translate(129.41 19.044)" fill="#adc6fe"/>
                <rect id="Rectángulo_4976" data-name="Rectángulo 4976" width="271.049" height="32.111" transform="translate(0 28.746)" fill="#adc6fe"/>
                <rect id="Rectángulo_4977" data-name="Rectángulo 4977" width="19.018" height="24.472" transform="translate(227.475 4.274)" fill="#adc6fe"/>
              </g>
              <g id="Grupo_3823" data-name="Grupo 3823" transform="translate(151.409 18.48)">
                <rect id="Rectángulo_4978" data-name="Rectángulo 4978" width="28.968" height="79.955" fill="#bed0fe"/>
                <g id="Grupo_3822" data-name="Grupo 3822" transform="translate(4.794 5.727)">
                  <g id="Grupo_3819" data-name="Grupo 3819" transform="translate(0 0)">
                    <rect id="Rectángulo_4979" data-name="Rectángulo 4979" width="5.759" height="11.333" transform="translate(14.491)" fill="#fff"/>
                    <rect id="Rectángulo_4980" data-name="Rectángulo 4980" width="5.759" height="11.333" fill="#fff"/>
                  </g>
                  <g id="Grupo_3820" data-name="Grupo 3820" transform="translate(0 17.278)">
                    <rect id="Rectángulo_4981" data-name="Rectángulo 4981" width="5.759" height="11.333" transform="translate(14.491 0)" fill="#fff"/>
                    <rect id="Rectángulo_4982" data-name="Rectángulo 4982" width="5.759" height="11.333" transform="translate(0 0)" fill="#fff"/>
                  </g>
                  <g id="Grupo_3821" data-name="Grupo 3821" transform="translate(0 34.556)">
                    <rect id="Rectángulo_4983" data-name="Rectángulo 4983" width="5.759" height="11.333" transform="translate(14.491)" fill="#fff"/>
                    <rect id="Rectángulo_4984" data-name="Rectángulo 4984" width="5.759" height="11.333" fill="#fff"/>
                  </g>
                </g>
              </g>
              <g id="Grupo_3827" data-name="Grupo 3827" transform="translate(110.899 27.932)">
                <rect id="Rectángulo_4985" data-name="Rectángulo 4985" width="28.968" height="70.504" transform="translate(0)" fill="#bed0fe"/>
                <g id="Grupo_3826" data-name="Grupo 3826" transform="translate(4.794 13.553)">
                  <g id="Grupo_3824" data-name="Grupo 3824" transform="translate(0 0)">
                    <rect id="Rectángulo_4986" data-name="Rectángulo 4986" width="5.759" height="11.333" transform="translate(14.491)" fill="#fff"/>
                    <rect id="Rectángulo_4987" data-name="Rectángulo 4987" width="5.759" height="11.333" fill="#fff"/>
                  </g>
                  <g id="Grupo_3825" data-name="Grupo 3825" transform="translate(0 17.278)">
                    <rect id="Rectángulo_4988" data-name="Rectángulo 4988" width="5.759" height="11.333" transform="translate(14.491)" fill="#fff"/>
                    <rect id="Rectángulo_4989" data-name="Rectángulo 4989" width="5.759" height="11.333" fill="#fff"/>
                  </g>
                </g>
              </g>
              <g id="Grupo_3830" data-name="Grupo 3830" transform="translate(191.291)">
                <g id="Grupo_3828" data-name="Grupo 3828">
                  <rect id="Rectángulo_4990" data-name="Rectángulo 4990" width="34.944" height="98.435" fill="#bed0fe"/>
                </g>
                <g id="Grupo_3829" data-name="Grupo 3829" transform="translate(5.766 13.184)">
                  <rect id="Rectángulo_4991" data-name="Rectángulo 4991" width="2.63" height="38.809" transform="translate(21.118)" fill="#fff"/>
                  <rect id="Rectángulo_4992" data-name="Rectángulo 4992" width="2.63" height="38.809" transform="translate(14.079)" fill="#fff"/>
                  <rect id="Rectángulo_4993" data-name="Rectángulo 4993" width="2.63" height="38.809" transform="translate(7.039)" fill="#fff"/>
                  <rect id="Rectángulo_4994" data-name="Rectángulo 4994" width="2.63" height="38.809" fill="#fff"/>
                </g>
              </g>
              <g id="Grupo_3833" data-name="Grupo 3833" transform="translate(64.377)">
                <g id="Grupo_3831" data-name="Grupo 3831" transform="translate(0)">
                  <rect id="Rectángulo_4995" data-name="Rectángulo 4995" width="34.944" height="98.435" fill="#bed0fe"/>
                </g>
                <g id="Grupo_3832" data-name="Grupo 3832" transform="translate(5.766 13.184)">
                  <rect id="Rectángulo_4996" data-name="Rectángulo 4996" width="2.63" height="38.809" transform="translate(21.118)" fill="#fff"/>
                  <rect id="Rectángulo_4997" data-name="Rectángulo 4997" width="2.63" height="38.809" transform="translate(14.079)" fill="#fff"/>
                  <rect id="Rectángulo_4998" data-name="Rectángulo 4998" width="2.63" height="38.809" transform="translate(7.039)" fill="#fff"/>
                  <rect id="Rectángulo_4999" data-name="Rectángulo 4999" width="2.63" height="38.809" transform="translate(0)" fill="#fff"/>
                </g>
              </g>
            </g>
            <g id="Grupo_4052" data-name="Grupo 4052" transform="translate(160.597 169.963)">
              <path id="Trazado_17213" data-name="Trazado 17213" d="M-89.231-234.023H-99.1s.627-5.056,1.011-6.146c.366-1.052.718-2.615,3.926-2.615,2.918,0,3.756,1.382,4.065,2.615S-89.231-234.023-89.231-234.023Z" transform="translate(171.844 242.783)" fill="#fff"/>
              <path id="Trazado_17214" data-name="Trazado 17214" d="M-131.476-224.49h10.488l-1.39-5.4h-9.1Z" transform="translate(261.415 252.919)" fill="#ed5933"/>
              <path id="Trazado_17215" data-name="Trazado 17215" d="M-132.274-202.71a13.183,13.183,0,0,1,.654-9.08,16.769,16.769,0,0,1,.864-1.8,21.317,21.317,0,0,1,4.172-4.5,20.194,20.194,0,0,1,4.906-2.124c3.559-1.031,14.638-2.293,14.638-2.293l9.894-.9,7.851-4.392s8.36-4.815,11.284-6.146a54.621,54.621,0,0,1,18.76-4.1c13.379,0,20.5.243,27.115,1.763,3.715.855,14.452,4.861,14.452,4.861l12.125,4.252s8.165-.616,10.3.816c.782.527,1.661,3.354,1.661,3.354l-6.892.139,1.327,4.113,6.562.246,1.084,1.929a11.608,11.608,0,0,1,1.3,7.887c-.484,2.493-1.32,5.29-2.72,6.292-1.891,1.354-14.783,2.127-14.783,2.127s.922-13.495-12.03-13.82c-6.494-.164-11.121,4.54-11.9,9.076-.248,1.457-.491,5.888-.491,5.888l-64.993.98h0l-.016,0v-.75c-.159-4.343-1.634-14.706-13.2-14.706-12.757,0-12.023,15.393-12.023,15.393s-6.274-.3-8.137-1.656A5.471,5.471,0,0,1-132.274-202.71Z" transform="translate(132.8 246.512)"/>
              <path id="Trazado_17216" data-name="Trazado 17216" d="M-113.728-226.376l.623-10.1s10.35-.071,14.665.822a36.95,36.95,0,0,1,8.346,3.743A45.689,45.689,0,0,1-83.386-227Z" transform="translate(192.117 247.736)" fill="#272425"/>
              <path id="Trazado_17217" data-name="Trazado 17217" d="M-65.5-225.877l1.4-10.643a51.3,51.3,0,0,0-10.841,1.361C-82.459-233.316-94.6-224.4-94.6-224.4Z" transform="translate(138.667 247.706)" fill="#272425"/>
              <line id="Línea_204" data-name="Línea 204" x1="1.851" y2="21.415" transform="translate(71.311 21.827)" fill="none" stroke="#c9c9c9" stroke-miterlimit="10" stroke-width="0.5"/>
              <line id="Línea_205" data-name="Línea 205" x1="65.75" y2="1.075" transform="translate(35.24 42.883)" fill="none" stroke="#c9c9c9" stroke-miterlimit="10" stroke-width="0.5"/>
              <line id="Línea_206" data-name="Línea 206" x1="3.194" y2="20.111" transform="translate(40.875 23.309)" fill="none" stroke="#c9c9c9" stroke-miterlimit="10" stroke-width="0.5"/>
              <line id="Línea_207" data-name="Línea 207" x1="0.694" y2="12.365" transform="translate(108.038 20.736)" fill="none" stroke="#c9c9c9" stroke-miterlimit="10" stroke-width="0.5"/>
              <rect id="Rectángulo_3503" data-name="Rectángulo 3503" width="5.524" height="2.008" transform="translate(99.391 25.73)" fill="#9b9b9b" stroke="rgba(0,0,0,0)" stroke-width="1"/>
              <rect id="Rectángulo_3504" data-name="Rectángulo 3504" width="5.524" height="2.008" transform="translate(64.038 25.73)" fill="#c9c9c9"/>
              <path id="Trazado_17218" data-name="Trazado 17218" d="M-55.346-226.865h6.317a.922.922,0,0,1,.691,1.532h0a14.181,14.181,0,0,1-10.871,4.783l-1.173-.021A14.617,14.617,0,0,1-55.346-226.865Z" transform="translate(61.562 255.294)" fill="#fff"/>
              <g id="Grupo_3755" data-name="Grupo 3755" transform="translate(101.915 33.835)">
                <path id="Trazado_17219" data-name="Trazado 17219" d="M-122.11-212.911a10.91,10.91,0,0,0,10.893,10.925,10.91,10.91,0,0,0,10.893-10.925,10.908,10.908,0,0,0-10.893-10.927A10.908,10.908,0,0,0-122.11-212.911Z" transform="translate(122.11 223.838)" fill="#272425"/>
                <path id="Trazado_17220" data-name="Trazado 17220" d="M-118.6-215.683a4.627,4.627,0,0,0,4.619,4.633,4.627,4.627,0,0,0,4.619-4.633,4.625,4.625,0,0,0-4.619-4.631A4.625,4.625,0,0,0-118.6-215.683Z" transform="translate(124.871 226.608)" fill="#cfd1d2"/>
              </g>
              <g id="Grupo_3756" data-name="Grupo 3756" transform="translate(12.077 33.835)">
                <path id="Trazado_17221" data-name="Trazado 17221" d="M-71.808-212.911a10.911,10.911,0,0,0,10.893,10.925,10.91,10.91,0,0,0,10.893-10.925,10.908,10.908,0,0,0-10.893-10.927A10.909,10.909,0,0,0-71.808-212.911Z" transform="translate(71.808 223.838)" fill="#272425"/>
                <path id="Trazado_17222" data-name="Trazado 17222" d="M-68.295-215.683a4.627,4.627,0,0,0,4.619,4.633,4.627,4.627,0,0,0,4.619-4.633,4.625,4.625,0,0,0-4.619-4.631A4.625,4.625,0,0,0-68.295-215.683Z" transform="translate(74.569 226.608)" fill="#cfd1d2"/>
              </g>
            </g>
          </g>
        </g>
      </g>
    </g>
    <g id="Grupo_3846" data-name="Grupo 3846" transform="translate(-3244.417 -3594.634)">
      <g id="Personal_settings-rafiki" data-name="Personal settings-rafiki" transform="translate(0 0)">
        <g id="freepik--Settings--inject-181">
          <path id="Trazado_17367" data-name="Trazado 17367" d="M268.144,232.44H217.819a7.038,7.038,0,0,1-7.1-7.489l6.538-124.762a7.984,7.984,0,0,1,7.884-7.489h50.32a7.037,7.037,0,0,1,7.1,7.489l-6.538,124.762a7.989,7.989,0,0,1-7.884,7.489Z" transform="translate(-210.71 -90.08)" fill="#c9c9c9"/>
          <path id="Trazado_17368" data-name="Trazado 17368" d="M278.3,103.15H227.976a5.071,5.071,0,0,0-5,4.749l-6.3,120.176a4.461,4.461,0,0,0,4.5,4.749H271.5a5.071,5.071,0,0,0,5-4.749L282.8,107.9a4.461,4.461,0,0,0-4.5-4.749Z" transform="translate(-213.805 -95.507)" fill="#407bff"/>
          <path id="Trazado_17369" data-name="Trazado 17369" d="M278.3,103.15H227.976a5.071,5.071,0,0,0-5,4.749l-6.3,120.176a4.461,4.461,0,0,0,4.5,4.749H271.5a5.071,5.071,0,0,0,5-4.749L282.8,107.9a4.461,4.461,0,0,0-4.5-4.749Z" transform="translate(-213.805 -95.507)" fill="#fff" opacity="0.8"/>
          <path id="Trazado_17370" data-name="Trazado 17370" d="M341.651,92.7h-4.11a7.037,7.037,0,0,1,7.1,7.489L338.1,224.951a7.984,7.984,0,0,1-7.884,7.489h4.11a7.984,7.984,0,0,0,7.884-7.489l6.538-124.762a7.038,7.038,0,0,0-7.1-7.489Z" transform="translate(-272.771 -90.08)" fill="#515050"/>
          <path id="Trazado_17372" data-name="Trazado 17372" d="M240.18,103.15l6.836,129.718H264.8l-6.836-129.694H240.18Z" transform="translate(-226.014 -95.507)" fill="#fff" opacity="0.4"/>
          <path id="Trazado_17373" data-name="Trazado 17373" d="M290.716,232.844h4L287.884,103.15h-4Z" transform="translate(-248.707 -95.507)" fill="#fff" opacity="0.4"/>
          <path id="Trazado_17374" data-name="Trazado 17374" d="M245.226,87.683h1.764a.216.216,0,0,0,0-.433h-1.764a.216.216,0,0,0,0,.433Z" transform="translate(-228.522 -87.25)" fill="#407bff"/>
          <path id="Trazado_17375" data-name="Trazado 17375" d="M218.344,101.947a37.487,37.487,0,0,1,.481-6.249,10.345,10.345,0,0,1,9.845-7.965c.274,0,.279-.442,0-.433a10.8,10.8,0,0,0-9.614,6.374c-1.135,2.572-.961,5.547-1.115,8.3a.216.216,0,0,0,.433,0Z" transform="translate(-214.464 -87.276)" fill="#407bff"/>
        </g>
      </g>
      <g id="Grupo_3845" data-name="Grupo 3845" transform="translate(12.694 14.807)">
        <ellipse id="Elipse_475" data-name="Elipse 475" cx="16.35" cy="17.213" rx="16.35" ry="17.213" transform="matrix(-0.698, -0.716, 0.716, -0.698, 24.976, 47.447)" fill="#fff" opacity="0.3"/>
        <path id="Trazado_17376" data-name="Trazado 17376" d="M166.2,164.3a13.04,13.04,0,0,0,1.3,6.467,12.749,12.749,0,0,0,11.568,7.108,14.42,14.42,0,0,0,12.3-7.108,13.979,13.979,0,0,0,1.971-6.467,12.758,12.758,0,0,0-12.871-13.571A14.447,14.447,0,0,0,166.2,164.3Z" transform="translate(-153.898 -140.574)" fill="#fff"/>
        <path id="Trazado_17377" data-name="Trazado 17377" d="M170.55,190.483a12.749,12.749,0,0,0,11.568,7.108,14.42,14.42,0,0,0,12.3-7.108,20.511,20.511,0,0,0-11.745-3.633A22.318,22.318,0,0,0,170.55,190.483Z" transform="translate(-156.927 -160.29)"/>
        <ellipse id="Elipse_476" data-name="Elipse 476" cx="5.891" cy="6.204" rx="5.891" ry="6.204" transform="matrix(-0.698, -0.716, 0.716, -0.698, 25.797, 27.629)"/>
        <g id="Grupo_3844" data-name="Grupo 3844" transform="translate(0 47.024)">
          <path id="Trazado_17378" data-name="Trazado 17378" d="M150.238,257.991h43.387a1.494,1.494,0,0,0,1.476-1.4l.327-6.358a1.317,1.317,0,0,0-1.331-1.4H150.71a1.494,1.494,0,0,0-1.476,1.4l-.327,6.358a1.317,1.317,0,0,0,1.331,1.4Z" transform="translate(-148.11 -241.145)" fill="#fff"/>
          <path id="Trazado_17379" data-name="Trazado 17379" d="M177.172,236.084h18.122a1.494,1.494,0,0,0,1.481-1.408l.068-1.363a1.317,1.317,0,0,0-1.331-1.4H177.4a1.494,1.494,0,0,0-1.476,1.4l-.073,1.363a1.326,1.326,0,0,0,1.326,1.408Z" transform="translate(-161.76 -231.91)" opacity="0.3"/>
          <path id="Trazado_17380" data-name="Trazado 17380" d="M170.608,326.8h27.146a2.548,2.548,0,0,0,2.512-2.389l.159-3.134a2.271,2.271,0,0,0-2.271-2.389H171.017a2.548,2.548,0,0,0-2.512,2.389l-.159,3.134a2.271,2.271,0,0,0,2.262,2.389Z" transform="translate(-161.936 -279.386)" opacity="0.3"/>
          <path id="Trazado_17381" data-name="Trazado 17381" d="M151.977,291.845h43.392a1.5,1.5,0,0,0,1.476-1.4l.327-6.358a1.322,1.322,0,0,0-1.331-1.4H152.454a1.494,1.494,0,0,0-1.476,1.4l-.332,6.358a1.326,1.326,0,0,0,1.331,1.4Z" transform="translate(-150.644 -259.621)" fill="#fff"/>
          <g id="Grupo_3842" data-name="Grupo 3842" transform="translate(15.795 10.709)">
            <path id="Trazado_17382" data-name="Trazado 17382" d="M158.156,257.043a1.462,1.462,0,0,0,1.476,1.553,1.653,1.653,0,0,0,1.63-1.553,1.458,1.458,0,0,0-1.472-1.553A1.658,1.658,0,0,0,158.156,257.043Z" transform="translate(-143.824 -255.49)" fill="#263238"/>
            <path id="Trazado_17383" data-name="Trazado 17383" d="M168.7,257.043a1.458,1.458,0,0,0,1.472,1.553,1.649,1.649,0,0,0,1.631-1.553,1.458,1.458,0,0,0-1.472-1.553A1.649,1.649,0,0,0,168.7,257.043Z" transform="translate(-159.147 -255.49)" fill="#263238"/>
            <path id="Trazado_17384" data-name="Trazado 17384" d="M179.157,257.043a1.458,1.458,0,0,0,1.472,1.553,1.658,1.658,0,0,0,1.635-1.553,1.462,1.462,0,0,0-1.476-1.553A1.653,1.653,0,0,0,179.157,257.043Z" transform="translate(-174.362 -255.49)" fill="#263238"/>
            <path id="Trazado_17385" data-name="Trazado 17385" d="M189.707,257.043a1.462,1.462,0,0,0,1.472,1.553,1.658,1.658,0,0,0,1.635-1.553,1.462,1.462,0,0,0-1.472-1.553,1.658,1.658,0,0,0-1.635,1.553Z" transform="translate(-189.704 -255.49)" fill="#263238"/>
          </g>
          <g id="Grupo_3843" data-name="Grupo 3843" transform="translate(9.694 26.079)">
            <path id="Trazado_17386" data-name="Trazado 17386" d="M159.927,290.883a1.458,1.458,0,0,0,1.472,1.553,1.658,1.658,0,0,0,1.635-1.553,1.462,1.462,0,0,0-1.476-1.553A1.653,1.653,0,0,0,159.927,290.883Z" transform="translate(-136.062 -289.33)" fill="#263238"/>
            <path id="Trazado_17387" data-name="Trazado 17387" d="M170.436,290.883a1.462,1.462,0,0,0,1.472,1.553,1.658,1.658,0,0,0,1.635-1.553,1.458,1.458,0,0,0-1.472-1.553A1.658,1.658,0,0,0,170.436,290.883Z" transform="translate(-151.344 -289.33)" fill="#263238"/>
            <path id="Trazado_17388" data-name="Trazado 17388" d="M180.946,290.883a1.463,1.463,0,0,0,1.476,1.553,1.649,1.649,0,0,0,1.63-1.553,1.458,1.458,0,0,0-1.472-1.553A1.658,1.658,0,0,0,180.946,290.883Z" transform="translate(-166.628 -289.33)" fill="#263238"/>
            <path id="Trazado_17389" data-name="Trazado 17389" d="M191.447,290.883a1.458,1.458,0,0,0,1.472,1.553,1.658,1.658,0,0,0,1.635-1.553,1.462,1.462,0,0,0-1.476-1.553A1.649,1.649,0,0,0,191.447,290.883Z" transform="translate(-181.897 -289.33)" fill="#263238"/>
            <path id="Trazado_17390" data-name="Trazado 17390" d="M201.957,290.883a1.458,1.458,0,0,0,1.472,1.553,1.658,1.658,0,0,0,1.635-1.553,1.462,1.462,0,0,0-1.472-1.553,1.658,1.658,0,0,0-1.635,1.553Z" transform="translate(-197.181 -289.33)" fill="#263238"/>
            <path id="Trazado_17391" data-name="Trazado 17391" d="M212.466,290.883a1.462,1.462,0,0,0,1.476,1.553,1.653,1.653,0,0,0,1.63-1.553,1.458,1.458,0,0,0-1.472-1.553A1.658,1.658,0,0,0,212.466,290.883Z" transform="translate(-212.463 -289.33)" fill="#263238"/>
          </g>
        </g>
      </g>
    </g>
    <g id="character-1--inject-7" transform="translate(-3352.437 -3580.273)">
      <path id="Trazado_13956" data-name="Trazado 13956" d="M140.7,214.71c-1.551,3.4-3.183,7.133-4.6,10.756s-2.873,7.361-4.13,11.083a140.769,140.769,0,0,0-5.843,22.524l-.359,2.4a3.509,3.509,0,0,0,.114,1.224,12.73,12.73,0,0,0,1.8,3.787,47.786,47.786,0,0,0,7.247,8.161,109.92,109.92,0,0,0,9.01,7.525c3.134,2.416,6.431,4.766,9.679,6.986l-3.052,5.729A115.678,115.678,0,0,1,128.608,282.3a52.869,52.869,0,0,1-9.793-9.271,23.26,23.26,0,0,1-3.9-6.97,15.83,15.83,0,0,1-.783-4.9v-2.04l.163-1.632a127.669,127.669,0,0,1,5.337-25.038c1.273-4.015,2.628-8.014,4.178-11.915s3.15-7.72,5.125-11.687Z" transform="translate(-105.365 -125.593)" fill="#e58a7b"/>
      <path id="Trazado_13957" data-name="Trazado 13957" d="M138.086,259.693l11.54-5.843-2.987,12.666s-7.916,2.22-11.589-1.632Z" transform="translate(-92.139 -97.143)" fill="#e58a7b"/>
      <path id="Trazado_13958" data-name="Trazado 13958" d="M155.7,255.923,152.629,266.4l-10.479.114,2.987-12.666Z" transform="translate(-87.651 -97.143)" fill="#e58a7b"/>
      <path id="Trazado_13959" data-name="Trazado 13959" d="M160.443,175a32.637,32.637,0,0,0,2.563,6.529,2.66,2.66,0,0,1-2.6.832Z" transform="translate(-76.107 -146.993)" fill="#df5753"/>
      <ellipse id="Elipse_448" data-name="Elipse 448" cx="1.224" cy="1.877" rx="1.224" ry="1.877" transform="translate(82.769 24.351)" fill="#263238"/>
      <path id="Trazado_13960" data-name="Trazado 13960" d="M160,173.072l2.481-.7S161.273,174.3,160,173.072Z" transform="translate(-76.366 -148.656)" fill="#263238"/>
      <path id="Trazado_13961" data-name="Trazado 13961" d="M141.81,182.34c1.485,7.59,2.971,21.513-2.35,26.589,0,0,2.089,7.7,16.208,7.7,15.522,0,7.41-7.7,7.41-7.7-8.471-2.024-8.259-8.308-6.774-14.217Z" transform="translate(-89.351 -142.352)" fill="#e58a7b"/>
      <path id="Trazado_13962" data-name="Trazado 13962" d="M138.386,178.916c.783,12.682.849,18.069,7.247,24.581,9.646,9.793,25.054,6.072,28.074-6.529,2.726-11.425,1-30.228-11.425-35.272a17.334,17.334,0,0,0-23.9,17.22Z" transform="translate(-90.056 -156.23)" fill="#e58a7b"/>
      <path id="Trazado_13963" data-name="Trazado 13963" d="M144.337,163.231c-6.366,2.318-14.853.587-11.523,20.223,3.526,20.794-1.893,27.633-1.893,27.633s24.14,5.141,48.787-.31c0,0-7.524-13.156-5.419-22.851,2.693-12.242.571-16.763.571-16.763S153.281,159.967,144.337,163.231Z" transform="translate(-94.75 -154.81)" fill="#263238"/>
      <path id="Trazado_13964" data-name="Trazado 13964" d="M155.64,177.173a12.748,12.748,0,0,0,1.991,6.806c1.73,2.644,3.77,1.632,4.276-1.175.457-2.465.114-6.823-2.089-8.52S155.673,174.251,155.64,177.173Z" transform="translate(-79.122 -147.876)" fill="#e58a7b"/>
      <path id="Trazado_13965" data-name="Trazado 13965" d="M135.842,168.4c-1.828-5.141,6.888-13.058,25.332-9.793s19.244,18.624,19.244,18.624l-3.721-4.44.163,4.668-18.95,3.64Z" transform="translate(-91.789 -157.841)" fill="#263238"/>
      <path id="Trazado_13966" data-name="Trazado 13966" d="M136.722,201.276h0a2.889,2.889,0,0,1,2.367-3.264c5.745-.947,18.8-2.873,25.365-1.959,4.9.685,6.17,3.526,6.382,5.86a2.873,2.873,0,0,1-3.02,3.1l-28.368-1.273A2.906,2.906,0,0,1,136.722,201.276Z" transform="translate(-91.102 -133.835)" fill="#515050"/>
      <path id="Trazado_13968" data-name="Trazado 13968" d="M146.76,383.1l10.528,7.312L174.9,366.536l-10.528-7.3Z" transform="translate(-84.736 -30.515)" fill="#e58a7b"/>
      <path id="Trazado_13969" data-name="Trazado 13969" d="M131.72,383.35l11.115,6.333,15.588-25.25L147.308,358.1Z" transform="translate(-94.245 -31.236)" fill="#e58a7b"/>
      <path id="Trazado_13970" data-name="Trazado 13970" d="M171.583,366.536l-9.075,12.307-10.528-7.3,9.075-12.307Z" transform="translate(-81.436 -30.515)" fill="#cf6f64"/>
      <path id="Trazado_13971" data-name="Trazado 13971" d="M144.37,358.1l11.132,6.349-8.03,13.009-11.132-6.349Z" transform="translate(-91.324 -31.236)" fill="#cf6f64"/>
      <path id="Trazado_13972" data-name="Trazado 13972" d="M168.114,248s41.1,51.79,33.379,101.327c-6.219,40.005-42.291,94.178-42.291,94.178l-16.959-8.422a553.752,553.752,0,0,0,30.522-74.168,54.826,54.826,0,0,0-6.529-47.5C145.41,283.011,112.048,301.112,134.491,248Z" transform="translate(-97.211 -100.842)" fill="#515050"/>
      <path id="Trazado_13974" data-name="Trazado 13974" d="M166.864,270.681l-5.974-5.941c0,.473,11.572,71.915,14.82,91.991a121.644,121.644,0,0,0,4.391-17.954C183.921,314.473,175.939,289.648,166.864,270.681Z" transform="translate(-75.803 -90.259)" opacity="0.4"/>
      <path id="Trazado_13975" data-name="Trazado 13975" d="M182.052,248s49.489,65.092,50.892,104.119c1.159,32.644-53.863,95.892-53.863,95.892l-16-10.348s32.2-44.918,40.316-81.61C200.268,319.687,134,248,134,248Z" transform="translate(-92.803 -100.842)" fill="#208dfe"/>
      <path id="Trazado_13976" data-name="Trazado 13976" d="M182.052,248s49.489,65.092,50.892,104.119c1.159,32.644-53.863,95.892-53.863,95.892l-16-10.348s32.2-44.918,40.316-81.61C200.268,319.687,134,248,134,248Z" transform="translate(-92.803 -100.842)" fill="#515050"/>
      <path id="Trazado_13977" data-name="Trazado 13977" d="M129.945,200.5c-5.288,1.257-10.365,20.484-10.365,20.484l20.68,13.809s6.888-15.212,4.472-21.872C142.235,205.981,136.588,198.914,129.945,200.5Z" transform="translate(-101.92 -131.016)" fill="#5b211f"/>
      <path id="Trazado_13978" data-name="Trazado 13978" d="M128.966,208l-1.436,16.763,7.688,5.158A68.875,68.875,0,0,0,139.9,215Z" transform="translate(-96.893 -126.13)" opacity="0.2"/>
      <path id="Trazado_13979" data-name="Trazado 13979" d="M193.275,202.075s6.1,2.138-6.121,77.285h-52c.881-21.219.9-34.276-9.222-77.66a153.894,153.894,0,0,1,22.084-2.905,165.11,165.11,0,0,1,23.618,0C181.784,199.724,193.275,202.075,193.275,202.075Z" transform="translate(-97.905 -132.218)" fill="#5b211f"/>
      <path id="Trazado_13980" data-name="Trazado 13980" d="M175.222,210.042c1.175,3.264,2.416,6.774,3.721,10.152s2.546,6.855,3.868,10.283l4,10.25,1.012,2.563.522,1.273.245.637v.1a3.363,3.363,0,0,0-1.142-1.012,4.652,4.652,0,0,0-2.122-.637,4.262,4.262,0,0,0-1.812.343c-.751.343-.751.49-.734.473a1.978,1.978,0,0,0,.359-.375,22.249,22.249,0,0,0,2.334-3.8c.767-1.5,1.5-3.1,2.236-4.717,1.436-3.264,2.758-6.643,4.08-10.054s2.579-6.855,3.8-10.332l3.722-10.413L205.6,206.4c-1.24,7.443-2.84,14.69-4.766,22.067-.93,3.672-2.024,7.312-3.264,10.985-.62,1.844-1.306,3.672-2.089,5.549a35.175,35.175,0,0,1-3,5.843,15.208,15.208,0,0,1-1.436,1.763,8.845,8.845,0,0,1-2.971,2.105,7.311,7.311,0,0,1-3.166.588,7.181,7.181,0,0,1-3.444-1.028,8.781,8.781,0,0,1-2.971-3.085c-.245-.424-.457-.849-.6-1.159l-.31-.62-.62-1.273-1.24-2.53c-1.632-3.395-3.264-6.823-4.684-10.267S168.106,228.4,166.7,224.9s-2.661-7.019-3.852-10.805Z" transform="translate(-74.564 -128.172)" fill="#e58a7b"/>
      <path id="Trazado_13981" data-name="Trazado 13981" d="M173.088,200.829c6.251,1.485,13.286,19.962,13.286,19.962l-18.591,15.816s-12.029-20.142-9.6-26.785C160.716,202.9,164.927,198.887,173.088,200.829Z" transform="translate(-77.718 -130.973)" fill="#5b211f"/>
      <path id="Trazado_13982" data-name="Trazado 13982" d="M188.174,203.3l6.529-5.452,4.538,7.067-3.346,5.892s-5.321,4.9-10.022,2.4h0a8.438,8.438,0,0,1,2.3-9.907Z" transform="translate(-60.47 -132.547)" fill="#e58a7b"/>
      <path id="Trazado_13983" data-name="Trazado 13983" d="M202.8,197.866l-.49,1.779-10.332,1.73-1.012-3.526Z" transform="translate(-56.786 -132.547)" fill="#e58a7b"/>
      <path id="Trazado_13984" data-name="Trazado 13984" d="M169.62,377.966l-18.64-12.046,3.346-5.811,20.941,12.878Z" transform="translate(-82.068 -29.965)" fill="#208dfe"/>
      <path id="Trazado_13985" data-name="Trazado 13985" d="M144.859,378.112a11.232,11.232,0,0,1-4.6-1.632.294.294,0,0,1,0-.555c.506-.163,4.9-1.518,6.17-.473a1.045,1.045,0,0,1,.359,1,1.73,1.73,0,0,1-.93,1.4,2.139,2.139,0,0,1-1,.261Zm-3.672-1.8c2.04,1.045,3.672,1.42,4.456,1.028a1.143,1.143,0,0,0,.588-.947c0-.261,0-.375-.147-.441-.685-.555-3.134-.131-4.929.359Z" transform="translate(-88.972 -20.514)" fill="#263238"/>
      <path id="Trazado_13986" data-name="Trazado 13986" d="M140.353,377.947a.327.327,0,0,1-.229-.1.31.31,0,0,1,0-.294c0-.147,1.061-3.689,2.726-4.488a1.632,1.632,0,0,1,1.355,0,1.077,1.077,0,0,1,.751,1.094c-.114,1.469-3.1,3.493-4.472,3.836Zm3.166-4.456a1.109,1.109,0,0,0-.457.114c-1.012.49-1.844,2.4-2.253,3.558,1.436-.6,3.411-2.2,3.477-3.1,0-.147,0-.326-.375-.49a1.208,1.208,0,0,0-.392-.131Z" transform="translate(-88.955 -21.867)" fill="#263238"/>
      <path id="Trazado_13987" data-name="Trazado 13987" d="M159.542,382.926c-1.844,0-4.407-2.367-5.811-3.819a.294.294,0,0,1,0-.343.343.343,0,0,1,.31-.163c.653,0,6.317.849,7.116,2.449a.93.93,0,0,1,0,.946,1.632,1.632,0,0,1-1.289.914Zm-4.733-3.591c2.057,1.991,3.868,3.1,4.9,2.971a1.11,1.11,0,0,0,.849-.6.343.343,0,0,0,0-.375c-.424-.881-3.444-1.632-5.745-1.991Z" transform="translate(-80.364 -18.276)" fill="#263238"/>
      <path id="Trazado_13988" data-name="Trazado 13988" d="M155.006,380.368a5.35,5.35,0,0,1-1.094-.082.294.294,0,0,1-.228-.18.343.343,0,0,1,0-.31c.1-.114,2.3-2.775,4.391-2.954a2.269,2.269,0,0,1,1.632.522c.637.555.6,1.045.441,1.355C159.74,379.83,156.916,380.368,155.006,380.368Zm-.424-.6c1.828.1,4.75-.506,5.125-1.306,0,0,.131-.261-.294-.62a1.632,1.632,0,0,0-1.24-.392,7.149,7.149,0,0,0-3.591,2.334Z" transform="translate(-80.382 -19.391)" fill="#263238"/>
      <path id="Trazado_13989" data-name="Trazado 13989" d="M148.222,376.454l-13.841-3.917a1.012,1.012,0,0,0-1.224.571l-4.668,10.5a2.056,2.056,0,0,0,1.355,2.758c4.9,1.273,7.247,1.632,13.335,3.379,3.754,1.045,9.108,2.987,14.282,4.456s6.9-3.575,4.9-4.652c-9.075-4.8-9.793-8.161-12.274-11.752A3.362,3.362,0,0,0,148.222,376.454Z" transform="translate(-96.383 -22.136)" fill="#208dfe"/>
      <path id="Trazado_13990" data-name="Trazado 13990" d="M162.266,380.976l-11.817-8.161a1.012,1.012,0,0,0-1.338.131l-7.835,8.422a2.041,2.041,0,0,0,.392,3.036c4.162,2.791,6.317,3.917,11.523,7.524,3.264,2.22,9.581,7.149,13.988,10.217s7.688-1.142,6.121-2.807c-7.019-7.492-8.553-12.193-9.712-16.453A3.378,3.378,0,0,0,162.266,380.976Z" transform="translate(-88.523 -22.055)" fill="#208dfe"/>
      <path id="Trazado_13991" data-name="Trazado 13991" d="M156.32,374.781l-21.3-10.593,2.2-5.778,22.753,11.164Z" transform="translate(-92.158 -31.04)" fill="#208dfe"/>
      <path id="Trazado_13992" data-name="Trazado 13992" d="M131.812,246.255l-1.8,4.7c-.18.359.245.734.849.734h53.993c.473,0,.865-.228.9-.522l.457-4.668c0-.31-.375-.588-.881-.588H132.66A1,1,0,0,0,131.812,246.255Z" transform="translate(-95.348 -102.165)"/>
      <path id="Trazado_13994" data-name="Trazado 13994" d="M137.044,252.322h-1.42c-.277,0-.49-.147-.473-.326l.669-6.055c0-.163.261-.31.539-.31h1.42c.278,0,.49.147.473.31L137.582,252C137.566,252.175,137.321,252.322,137.044,252.322Z" transform="translate(-92.076 -102.34)" fill="#c9c9c9"/>
      <path id="Trazado_13995" data-name="Trazado 13995" d="M157.437,252.322h-1.4c-.277,0-.49-.147-.473-.326l.653-6.055c0-.163.277-.31.555-.31h1.4c.278,0,.506.147.473.31L157.992,252A.571.571,0,0,1,157.437,252.322Z" transform="translate(-79.173 -102.34)" fill="#c9c9c9"/>
      <ellipse id="Elipse_449" data-name="Elipse 449" cx="43.727" cy="3.166" rx="43.727" ry="3.166" transform="translate(0 420.063)" fill="#f5f5f5"/>
      <path id="Trazado_13996" data-name="Trazado 13996" d="M173.128,496.669c-7.737-2.253-16.322-5.141-21.512-8.161-.147-.1-.31-.147-.457-.228V453.253h15.653a4.668,4.668,0,0,0,0-9.32H151.24V284.27h-9.4V443.933H126.284a4.668,4.668,0,1,0,0,9.32h15.555v34.978c-.147,0-.294.13-.441.228-5.272,3.069-13.792,5.958-21.529,8.161a2.285,2.285,0,0,0,.637,4.472h51.986a2.285,2.285,0,0,0,.637-4.423Z" transform="translate(-102.763 -77.912)" fill="#515050"/>
      <rect id="Rectángulo_1216" data-name="Rectángulo 1216" width="74.951" height="34.162" rx="5.18" transform="translate(6.268 190.102)" fill="#c9c9c9"/>
      <path id="Trazado_13997" data-name="Trazado 13997" d="M117.45,295.25v2.971c0,2.448,2.661,4.44,5.925,4.44h47.334c3.264,0,5.925-1.991,5.925-4.44V295.25Z" transform="translate(-103.266 -70.97)" fill="#515050"/>
    </g>
  </g>
</svg>
