<svg xmlns="http://www.w3.org/2000/svg" width="27.498" height="22" viewBox="0 0 27.498 22">
  <g id="edit" transform="translate(-331.75 -52)">
    <path id="Icon_awesome-user-edit" data-name="Icon awesome-user-edit" d="M9.625,11a5.5,5.5,0,1,0-5.5-5.5A5.5,5.5,0,0,0,9.625,11Zm3.85,1.375h-.718a7.48,7.48,0,0,1-6.265,0H5.775A5.776,5.776,0,0,0,0,18.15v1.787A2.063,2.063,0,0,0,2.062,22H13.874a2.063,2.063,0,0,1-.112-.915l.292-2.617.052-.477.339-.339,3.321-3.321a5.716,5.716,0,0,0-4.292-1.955Zm1.946,6.243-.292,2.621a.684.684,0,0,0,.756.756L18.5,21.7l5.925-5.925L21.346,12.7l-5.925,5.921ZM27.2,11.554,25.57,9.926a1.03,1.03,0,0,0-1.452,0L22.494,11.55l-.176.176L25.4,14.807l1.8-1.8a1.035,1.035,0,0,0,0-1.457Z" transform="translate(331.75 52)" fill="#242a37"/>
  </g>
</svg>
