<svg id="_9_Forget_Password_image" data-name="9_Forget Password image" xmlns="http://www.w3.org/2000/svg" xmlns:xlink="http://www.w3.org/1999/xlink" width="245" height="274" viewBox="0 0 245 274">
  <defs>
    <clipPath id="clip-path">
      <rect id="Rectángulo_4969" data-name="Rectángulo 4969" width="245" height="274" transform="translate(-3038 -3721)" fill="#fff"/>
    </clipPath>
    <clipPath id="clip-path-2">
      <path id="Trazado_17329" data-name="Trazado 17329" d="M113.938-313.593l24.6,171.341a29.838,29.838,0,0,1-29.188,36.024H-76.381a29.836,29.836,0,0,1-29.836-29.836L-74.39-307.4c4.689-16.048,15.033-29.836,31.512-29.836H84.75A29.837,29.837,0,0,1,113.938-313.593Z" transform="translate(106.218 337.241)" fill="none"/>
    </clipPath>
  </defs>
  <g id="Enmascarar_grupo_4" data-name="Enmascarar grupo 4" transform="translate(3038 3721)" clip-path="url(#clip-path)">
    <g id="Thinking--inject-3" transform="translate(-2986.457 -3717.852)">
      <path id="Trazado_18191" data-name="Trazado 18191" d="M22.009,0C34.165,0,44.019,6.28,44.019,14.027S34.165,28.053,22.009,28.053,0,21.773,0,14.027,9.854,0,22.009,0Z" transform="translate(0)" fill="#5b211f"/>
      <path id="Trazado_14145" data-name="Trazado 14145" d="M6.132,12.352A6.166,6.166,0,0,1,.076,7.236,6.233,6.233,0,0,1,4.778.21h0a6.135,6.135,0,0,1,6.6,2.757L25.507.051A2.208,2.208,0,0,1,28.092,1.57,2.128,2.128,0,0,1,26.464,4.2l-.366.073a.36.36,0,0,0-.256.189.384.384,0,0,0,0,.317l.25.646A.97.97,0,0,1,25.714,6.6a1.159,1.159,0,0,0-.543.86.957.957,0,0,1-.738.848l-.287.061a.951.951,0,0,1-1.012-.488,1.189,1.189,0,0,0-2.2.457.945.945,0,0,1-.732.842l-.287.061A.957.957,0,0,1,18.9,8.754a1.22,1.22,0,0,0-.848-.573.97.97,0,0,1-.854-.957v-.7a.378.378,0,0,0-.451-.354L12.242,7.1a6.141,6.141,0,0,1-4.848,5.123,6.318,6.318,0,0,1-1.262.128ZM4.912.765A5.617,5.617,0,0,0,.643,7.12,5.556,5.556,0,0,0,11.62,6.8v-.22l4.97-1.006a.988.988,0,0,1,1.22.927v.7a.36.36,0,0,0,.293.348,1.775,1.775,0,0,1,1.287.872.354.354,0,0,0,.36.2l.281-.061a.341.341,0,0,0,.256-.317,1.8,1.8,0,0,1,3.354-.707.348.348,0,0,0,.354.2l.293-.061a.342.342,0,0,0,.25-.317,1.769,1.769,0,0,1,.835-1.311A.372.372,0,0,0,25.5,5.6l-.25-.646a.982.982,0,0,1,.72-1.317l.372-.079A1.531,1.531,0,0,0,27.507,1.68,1.592,1.592,0,0,0,25.628.6L11.1,3.619l-.11-.189A5.489,5.489,0,0,0,4.942.777Zm1.22,9.319a3.75,3.75,0,1,1,.793-.049h0a3.885,3.885,0,0,1-.787.061Zm0-7.2a3.66,3.66,0,0,0-.677.067A3.308,3.308,0,0,0,6.833,9.419h0A3.3,3.3,0,0,0,7.98,3.436a3.244,3.244,0,0,0-1.823-.543Z" transform="translate(12.893 2.523) rotate(30)" fill="#fff"/>
      <ellipse id="Elipse_459" data-name="Elipse 459" cx="7.233" cy="4.61" rx="7.233" ry="4.61" transform="translate(32.688 27.059)" fill="#515050" opacity="0.6"/>
      <ellipse id="Elipse_460" data-name="Elipse 460" cx="2.97" cy="1.891" rx="2.97" ry="1.891" transform="translate(48.459 34.389)" fill="#515050" opacity="0.3"/>
    </g>
    <g id="Grupo_3812" data-name="Grupo 3812" transform="translate(-3037.918 -3677.644)">
      <g id="Grupo_3811" data-name="Grupo 3811" transform="translate(0 0)">
        <path id="Trazado_17318" data-name="Trazado 17318" d="M113.938-313.593l24.6,171.341a29.838,29.838,0,0,1-29.188,36.024H-76.381a29.836,29.836,0,0,1-29.836-29.836L-74.39-307.4c4.689-16.048,15.033-29.836,31.512-29.836H84.75A29.837,29.837,0,0,1,113.938-313.593Z" transform="translate(106.218 337.241)" fill="#e9efff"/>
        <g id="Grupo_3810" data-name="Grupo 3810">
          <g id="Grupo_3809" data-name="Grupo 3809" clip-path="url(#clip-path-2)">
            <g id="Grupo_3805" data-name="Grupo 3805" transform="translate(-16.429 106.961)">
              <rect id="Rectángulo_4937" data-name="Rectángulo 4937" width="271.083" height="34.132" transform="translate(0 95.703)" fill="#d3dfff"/>
              <g id="Grupo_3789" data-name="Grupo 3789" transform="translate(7.559 36.535)">
                <rect id="Rectángulo_4938" data-name="Rectángulo 4938" width="18.49" height="23.793" transform="translate(202.67 13.901)" fill="#adc6fe"/>
                <rect id="Rectángulo_4939" data-name="Rectángulo 4939" width="18.49" height="33.81" transform="translate(89.005)" fill="#adc6fe"/>
                <rect id="Rectángulo_4940" data-name="Rectángulo 4940" width="24.746" height="22.493" transform="translate(30.424 11.317)" fill="#adc6fe"/>
                <rect id="Rectángulo_4941" data-name="Rectángulo 4941" width="18.49" height="23.793" transform="translate(160.801 5.638)" fill="#adc6fe"/>
                <rect id="Rectángulo_4942" data-name="Rectángulo 4942" width="18.49" height="23.793" transform="translate(125.817 18.515)" fill="#adc6fe"/>
                <rect id="Rectángulo_4943" data-name="Rectángulo 4943" width="263.524" height="31.22" transform="translate(0 27.948)" fill="#adc6fe"/>
                <rect id="Rectángulo_4944" data-name="Rectángulo 4944" width="18.49" height="23.793" transform="translate(221.16 4.155)" fill="#adc6fe"/>
              </g>
              <g id="Grupo_3794" data-name="Grupo 3794" transform="translate(147.206 17.967)">
                <rect id="Rectángulo_4945" data-name="Rectángulo 4945" width="28.164" height="77.735" fill="#bed0fe"/>
                <g id="Grupo_3793" data-name="Grupo 3793" transform="translate(4.661 5.568)">
                  <g id="Grupo_3790" data-name="Grupo 3790" transform="translate(0 0)">
                    <rect id="Rectángulo_4946" data-name="Rectángulo 4946" width="5.599" height="11.018" transform="translate(14.089)" fill="#fff"/>
                    <rect id="Rectángulo_4947" data-name="Rectángulo 4947" width="5.6" height="11.018" fill="#fff"/>
                  </g>
                  <g id="Grupo_3791" data-name="Grupo 3791" transform="translate(0 16.798)">
                    <rect id="Rectángulo_4948" data-name="Rectángulo 4948" width="5.599" height="11.018" transform="translate(14.089 0)" fill="#fff"/>
                    <rect id="Rectángulo_4949" data-name="Rectángulo 4949" width="5.6" height="11.018" transform="translate(0 0)" fill="#fff"/>
                  </g>
                  <g id="Grupo_3792" data-name="Grupo 3792" transform="translate(0 33.596)">
                    <rect id="Rectángulo_4950" data-name="Rectángulo 4950" width="5.599" height="11.018" transform="translate(14.089)" fill="#fff"/>
                    <rect id="Rectángulo_4951" data-name="Rectángulo 4951" width="5.6" height="11.018" fill="#fff"/>
                  </g>
                </g>
              </g>
              <g id="Grupo_3798" data-name="Grupo 3798" transform="translate(107.82 27.156)">
                <rect id="Rectángulo_4952" data-name="Rectángulo 4952" width="28.163" height="68.547" transform="translate(0)" fill="#bed0fe"/>
                <g id="Grupo_3797" data-name="Grupo 3797" transform="translate(4.661 13.177)">
                  <g id="Grupo_3795" data-name="Grupo 3795" transform="translate(0 0)">
                    <rect id="Rectángulo_4953" data-name="Rectángulo 4953" width="5.6" height="11.018" transform="translate(14.089)" fill="#fff"/>
                    <rect id="Rectángulo_4954" data-name="Rectángulo 4954" width="5.599" height="11.018" fill="#fff"/>
                  </g>
                  <g id="Grupo_3796" data-name="Grupo 3796" transform="translate(0 16.798)">
                    <rect id="Rectángulo_4955" data-name="Rectángulo 4955" width="5.6" height="11.018" transform="translate(14.089)" fill="#fff"/>
                    <rect id="Rectángulo_4956" data-name="Rectángulo 4956" width="5.599" height="11.018" fill="#fff"/>
                  </g>
                </g>
              </g>
              <g id="Grupo_3801" data-name="Grupo 3801" transform="translate(185.981)">
                <g id="Grupo_3799" data-name="Grupo 3799">
                  <rect id="Rectángulo_4957" data-name="Rectángulo 4957" width="33.974" height="95.703" fill="#bed0fe"/>
                </g>
                <g id="Grupo_3800" data-name="Grupo 3800" transform="translate(5.606 12.818)">
                  <rect id="Rectángulo_4958" data-name="Rectángulo 4958" width="2.557" height="37.731" transform="translate(20.532)" fill="#fff"/>
                  <rect id="Rectángulo_4959" data-name="Rectángulo 4959" width="2.557" height="37.731" transform="translate(13.688)" fill="#fff"/>
                  <rect id="Rectángulo_4960" data-name="Rectángulo 4960" width="2.557" height="37.731" transform="translate(6.844)" fill="#fff"/>
                  <rect id="Rectángulo_4961" data-name="Rectángulo 4961" width="2.557" height="37.731" fill="#fff"/>
                </g>
              </g>
              <g id="Grupo_3804" data-name="Grupo 3804" transform="translate(62.59)">
                <g id="Grupo_3802" data-name="Grupo 3802" transform="translate(0)">
                  <rect id="Rectángulo_4962" data-name="Rectángulo 4962" width="33.974" height="95.703" fill="#bed0fe"/>
                </g>
                <g id="Grupo_3803" data-name="Grupo 3803" transform="translate(5.606 12.818)">
                  <rect id="Rectángulo_4963" data-name="Rectángulo 4963" width="2.557" height="37.731" transform="translate(20.532)" fill="#fff"/>
                  <rect id="Rectángulo_4964" data-name="Rectángulo 4964" width="2.557" height="37.731" transform="translate(13.688)" fill="#fff"/>
                  <rect id="Rectángulo_4965" data-name="Rectángulo 4965" width="2.557" height="37.731" transform="translate(6.844)" fill="#fff"/>
                  <rect id="Rectángulo_4966" data-name="Rectángulo 4966" width="2.557" height="37.731" transform="translate(0)" fill="#fff"/>
                </g>
              </g>
            </g>
            <g id="Grupo_4050" data-name="Grupo 4050" transform="translate(152.599 160.377)">
              <path id="Trazado_17213" data-name="Trazado 17213" d="M-89.231-234.023H-99.1s.627-5.056,1.011-6.146c.366-1.052.718-2.615,3.926-2.615,2.918,0,3.756,1.382,4.065,2.615S-89.231-234.023-89.231-234.023Z" transform="translate(171.844 242.783)" fill="#fff"/>
              <path id="Trazado_17214" data-name="Trazado 17214" d="M-131.476-224.49h10.488l-1.39-5.4h-9.1Z" transform="translate(261.415 252.919)" fill="#ed5933"/>
              <path id="Trazado_17215" data-name="Trazado 17215" d="M-132.274-202.71a13.183,13.183,0,0,1,.654-9.08,16.769,16.769,0,0,1,.864-1.8,21.317,21.317,0,0,1,4.172-4.5,20.194,20.194,0,0,1,4.906-2.124c3.559-1.031,14.638-2.293,14.638-2.293l9.894-.9,7.851-4.392s8.36-4.815,11.284-6.146a54.621,54.621,0,0,1,18.76-4.1c13.379,0,20.5.243,27.115,1.763,3.715.855,14.452,4.861,14.452,4.861l12.125,4.252s8.165-.616,10.3.816c.782.527,1.661,3.354,1.661,3.354l-6.892.139,1.327,4.113,6.562.246,1.084,1.929a11.608,11.608,0,0,1,1.3,7.887c-.484,2.493-1.32,5.29-2.72,6.292-1.891,1.354-14.783,2.127-14.783,2.127s.922-13.495-12.03-13.82c-6.494-.164-11.121,4.54-11.9,9.076-.248,1.457-.491,5.888-.491,5.888l-64.993.98h0l-.016,0v-.75c-.159-4.343-1.634-14.706-13.2-14.706-12.757,0-12.023,15.393-12.023,15.393s-6.274-.3-8.137-1.656A5.471,5.471,0,0,1-132.274-202.71Z" transform="translate(132.8 246.512)"/>
              <path id="Trazado_17216" data-name="Trazado 17216" d="M-113.728-226.376l.623-10.1s10.35-.071,14.665.822a36.95,36.95,0,0,1,8.346,3.743A45.689,45.689,0,0,1-83.386-227Z" transform="translate(192.117 247.736)" fill="#272425"/>
              <path id="Trazado_17217" data-name="Trazado 17217" d="M-65.5-225.877l1.4-10.643a51.3,51.3,0,0,0-10.841,1.361C-82.459-233.316-94.6-224.4-94.6-224.4Z" transform="translate(138.667 247.706)" fill="#272425"/>
              <line id="Línea_204" data-name="Línea 204" x1="1.851" y2="21.415" transform="translate(71.311 21.827)" fill="none" stroke="#c9c9c9" stroke-miterlimit="10" stroke-width="0.5"/>
              <line id="Línea_205" data-name="Línea 205" x1="65.75" y2="1.075" transform="translate(35.24 42.883)" fill="none" stroke="#c9c9c9" stroke-miterlimit="10" stroke-width="0.5"/>
              <line id="Línea_206" data-name="Línea 206" x1="3.194" y2="20.111" transform="translate(40.875 23.309)" fill="none" stroke="#c9c9c9" stroke-miterlimit="10" stroke-width="0.5"/>
              <line id="Línea_207" data-name="Línea 207" x1="0.694" y2="12.365" transform="translate(108.038 20.736)" fill="none" stroke="#c9c9c9" stroke-miterlimit="10" stroke-width="0.5"/>
              <rect id="Rectángulo_3503" data-name="Rectángulo 3503" width="5.524" height="2.008" transform="translate(99.391 25.73)" fill="#9b9b9b" stroke="rgba(0,0,0,0)" stroke-width="1"/>
              <rect id="Rectángulo_3504" data-name="Rectángulo 3504" width="5.524" height="2.008" transform="translate(64.038 25.73)" fill="#c9c9c9"/>
              <path id="Trazado_17218" data-name="Trazado 17218" d="M-55.346-226.865h6.317a.922.922,0,0,1,.691,1.532h0a14.181,14.181,0,0,1-10.871,4.783l-1.173-.021A14.617,14.617,0,0,1-55.346-226.865Z" transform="translate(61.562 255.294)" fill="#fff"/>
              <g id="Grupo_3755" data-name="Grupo 3755" transform="translate(101.915 33.835)">
                <path id="Trazado_17219" data-name="Trazado 17219" d="M-122.11-212.911a10.91,10.91,0,0,0,10.893,10.925,10.91,10.91,0,0,0,10.893-10.925,10.908,10.908,0,0,0-10.893-10.927A10.908,10.908,0,0,0-122.11-212.911Z" transform="translate(122.11 223.838)" fill="#272425"/>
                <path id="Trazado_17220" data-name="Trazado 17220" d="M-118.6-215.683a4.627,4.627,0,0,0,4.619,4.633,4.627,4.627,0,0,0,4.619-4.633,4.625,4.625,0,0,0-4.619-4.631A4.625,4.625,0,0,0-118.6-215.683Z" transform="translate(124.871 226.608)" fill="#cfd1d2"/>
              </g>
              <g id="Grupo_3756" data-name="Grupo 3756" transform="translate(12.077 33.835)">
                <path id="Trazado_17221" data-name="Trazado 17221" d="M-71.808-212.911a10.911,10.911,0,0,0,10.893,10.925,10.91,10.91,0,0,0,10.893-10.925,10.908,10.908,0,0,0-10.893-10.927A10.909,10.909,0,0,0-71.808-212.911Z" transform="translate(71.808 223.838)" fill="#272425"/>
                <path id="Trazado_17222" data-name="Trazado 17222" d="M-68.295-215.683a4.627,4.627,0,0,0,4.619,4.633,4.627,4.627,0,0,0,4.619-4.633,4.625,4.625,0,0,0-4.619-4.631A4.625,4.625,0,0,0-68.295-215.683Z" transform="translate(74.569 226.608)" fill="#cfd1d2"/>
              </g>
            </g>
          </g>
        </g>
      </g>
    </g>
    <g id="Character--inject-3" transform="translate(-3038.698 -3677.606)">
      <path id="Trazado_14105" data-name="Trazado 14105" d="M344.044,174.28c-1.987,3.2-3.645,6.244-5.348,9.426s-3.242,6.379-4.75,9.65a137.969,137.969,0,0,0-7.619,20.511c-.269.881-.463,1.823-.687,2.734l-.329,1.389-.164.687-.194,1.135a20.436,20.436,0,0,0,.463,7.708,43.682,43.682,0,0,0,4.661,11.129,88.471,88.471,0,0,0,13.265,17.374l6.289-4.75a166.408,166.408,0,0,1-8.41-17.926,37.141,37.141,0,0,1-2.286-8.41,6.662,6.662,0,0,1,.119-2.644l.6-1.822c.239-.747.463-1.494.747-2.256a169.387,169.387,0,0,1,7.873-18.046c2.988-5.975,6.2-11.951,9.411-17.657Z" transform="translate(-297.588 -104.472)" fill="#ff8b7b"/>
      <path id="Trazado_14106" data-name="Trazado 14106" d="M332.81,224.43l6.872,3.63-7.888,9.232s-4.93-3.331-5.154-8.41Z" transform="translate(-282.365 -79.705)" fill="#ff8b7b"/>
      <path id="Trazado_14107" data-name="Trazado 14107" d="M337.575,232.552l-8.44,6.707-8.664-3.167,7.888-9.232Z" transform="translate(-271.042 -78.505)" fill="#ff8b7b"/>
      <path id="Trazado_14108" data-name="Trazado 14108" d="M299.847,142.133c.164.837.747,1.419,1.285,1.315s.852-.881.687-1.7-.747-1.494-1.3-1.315S299.683,141.3,299.847,142.133Z" transform="translate(-204.453 -121.204)" fill="#263238"/>
      <path id="Trazado_14109" data-name="Trazado 14109" d="M297.08,142.52a30.262,30.262,0,0,0,5.408,6.3,4.915,4.915,0,0,1-3.824,1.494Z" transform="translate(-201.013 -120.157)" fill="#ff5652"/>
      <path id="Trazado_14110" data-name="Trazado 14110" d="M311.867,165.38v-9.8L298.9,157.074s.209,8.425,7.469,10.905Z" transform="translate(-213.111 -113.707)" fill="#ff8b7b"/>
      <path id="Trazado_14111" data-name="Trazado 14111" d="M308.232,150.86l-9.128,2.629-.164,5.99,12.967-1.569Z" transform="translate(-213.211 -116.038)" fill="#ff8b7b"/>
      <path id="Trazado_14112" data-name="Trazado 14112" d="M300.374,153.489l9.128-2.629,1.778,3.406a14.535,14.535,0,0,1-8.425,12.668,14.281,14.281,0,0,1-2.644-7.469Z" transform="translate(-214.481 -116.038)" opacity="0.2"/>
      <path id="Trazado_14113" data-name="Trazado 14113" d="M301.44,139.719a.508.508,0,0,1-.373-.837,4.96,4.96,0,0,1,4.243-1.643.493.493,0,0,1,.4.568.508.508,0,0,1-.568.418h0a3.929,3.929,0,0,0-3.346,1.33A.508.508,0,0,1,301.44,139.719Z" transform="translate(-210.019 -122.779)" fill="#263238"/>
      <path id="Trazado_14114" data-name="Trazado 14114" d="M304.11,151.68c1.494,7.693,2.42,18.345-2.988,23.469,0,0,2.091,7.8,16.432,7.8,15.7,0,7.544-6.842,7.544-6.842-6.528-2.032-6.468-9.456-4.974-15.432Z" transform="translate(-231.781 -115.633)" fill="#ff8b7b"/>
      <path id="Trazado_14115" data-name="Trazado 14115" d="M302.493,174.37c-1.4-1.972-1.344-8.231.149-9.337,2.405-1.778,12.728-2.2,26.606,1-1.494,6.065,1.718,9.232,1.718,9.232Z" transform="translate(-236.065 -109.716)" fill="#515050"/>
      <path id="Trazado_14116" data-name="Trazado 14116" d="M352.572,408.977a3.421,3.421,0,0,0,2.629-.149,1.016,1.016,0,0,0,.239-1.15,1.15,1.15,0,0,0-.642-.732c-1.419-.687-4.676.642-4.825.7a.239.239,0,0,0-.149.224.284.284,0,0,0,.135.239A14.7,14.7,0,0,0,352.572,408.977Zm1.718-1.688a1.257,1.257,0,0,1,.284.1.627.627,0,0,1,.388.418c.134.448,0,.6-.09.642-.568.478-2.659,0-4.138-.553A8.2,8.2,0,0,1,354.29,407.289Z" transform="translate(-332.841 10.335)" fill="#208dfe"/>
      <path id="Trazado_14117" data-name="Trazado 14117" d="M351.121,409.065h.119c1.2-.344,3.735-2.151,3.764-3.331a.822.822,0,0,0-.642-.807,1.285,1.285,0,0,0-1.09.09c-1.4.717-2.3,3.615-2.33,3.75a.239.239,0,0,0,0,.239A.209.209,0,0,0,351.121,409.065Zm2.988-3.72h.119c.3.1.3.254.3.329,0,.7-1.7,2.121-2.988,2.689.314-.837,1-2.495,1.912-2.988a.866.866,0,0,1,.642-.03Z" transform="translate(-333.945 9.395)" fill="#208dfe"/>
      <path id="Trazado_14118" data-name="Trazado 14118" d="M301.1,410.258c1.345,0,2.644-.194,3.077-.792a.941.941,0,0,0,0-1.091,1.24,1.24,0,0,0-.792-.583c-1.748-.478-5.423,1.613-5.572,1.7a.224.224,0,0,0-.12.254.239.239,0,0,0,.194.209,18.229,18.229,0,0,0,3.212.3Zm1.658-2.047a1.492,1.492,0,0,1,.478,0,.762.762,0,0,1,.493.344c.179.314.1.463,0,.553-.493.687-3.137.7-5.094.418a11.369,11.369,0,0,1,4.123-1.315Z" transform="translate(-203.774 10.816)" fill="#208dfe"/>
      <path id="Trazado_14119" data-name="Trazado 14119" d="M299.777,410.785h.1c1.27-.568,3.779-2.838,3.585-4.033,0-.284-.239-.627-.926-.687a1.792,1.792,0,0,0-1.374.418,7.14,7.14,0,0,0-1.643,4.048.3.3,0,0,0,.1.224.283.283,0,0,0,.149.03Zm2.569-4.258h.149c.448,0,.478.209.478.269.119.717-1.583,2.51-2.883,3.287a5.782,5.782,0,0,1,1.389-3.242,1.315,1.315,0,0,1,.881-.314Z" transform="translate(-205.652 9.991)" fill="#208dfe"/>
      <path id="Trazado_14120" data-name="Trazado 14120" d="M301.99,417.1h10.5l1.046-24.335h-10.5Z" transform="translate(-219.398 3.431)" fill="#ff8b7b"/>
      <path id="Trazado_14121" data-name="Trazado 14121" d="M347.57,413.292l10.263,2.226,10.323-22.662-10.278-2.226Z" transform="translate(-342.106 2.374)" fill="#ff8b7b"/>
      <path id="Trazado_14122" data-name="Trazado 14122" d="M360.542,407.431l-11.547-2.495a.911.911,0,0,0-1.016.508l-4,8.694a1.494,1.494,0,0,0,1.105,2.151c4.033.792,6.05.986,11.114,2.077,3.122.687,10.173,2.405,14.49,3.331s5.8-3.212,4.108-3.974c-7.544-3.451-10.681-6.483-12.728-9.307A2.555,2.555,0,0,0,360.542,407.431Z" transform="translate(-343.814 9.43)" fill="#263238"/>
      <path id="Trazado_14123" data-name="Trazado 14123" d="M300.263,408.24H288.79a.926.926,0,0,0-.9.717l-2.076,9.337a1.494,1.494,0,0,0,1.494,1.882c4.138-.075,10.113-.314,15.312-.314,6.095,0,11.338.329,18.479.329,4.317,0,5.512-4.362,3.7-4.765-8.216-1.793-14.939-1.987-22.034-6.364a4.885,4.885,0,0,0-2.51-.822Z" transform="translate(-207.244 11.071)" fill="#263238"/>
      <path id="Trazado_14124" data-name="Trazado 14124" d="M340.234,169.1c-9.845,2.256-17.926,27.4-17.926,27.4l19.674,15.043a43.216,43.216,0,0,0,10.457-19.42C355.92,178.94,350.3,166.765,340.234,169.1Z" transform="translate(-289.685 -107.175)" fill="#5b211f"/>
      <path id="Trazado_14126" data-name="Trazado 14126" d="M286.778,203.846c2.45,2.644,4.9,5,7.469,7.469,1.27,1.2,2.554,2.39,3.869,3.54L300.1,216.6l.493.433.852.687a11.952,11.952,0,0,0,2.883,1.7,9.4,9.4,0,0,0,3.645.747,8.966,8.966,0,0,0,3.137-.553,8.83,8.83,0,0,0,2.988-1.9,8.963,8.963,0,0,0,2.33-3.869,10.171,10.171,0,0,0,.433-2.226,15.1,15.1,0,0,0,0-2.659c-.075-.717-.164-1.344-.284-1.927a36.987,36.987,0,0,0-1.733-5.975,53.477,53.477,0,0,0-2.315-5.408c-.956-1.9-1.867-3.286-2.778-4.87a121.988,121.988,0,0,0-12.623-17.12,115.662,115.662,0,0,0-15.312-14.52l-5.5,5.662c3.854,5.169,7.649,10.711,11.159,16.164a175.184,175.184,0,0,1,9.561,16.806c.642,1.4,1.494,2.988,1.9,4.123a40.069,40.069,0,0,1,1.389,4.033,26.067,26.067,0,0,1,.851,3.765,5.859,5.859,0,0,1,0,.6v-.134a4.157,4.157,0,0,1,.194-.986,6.409,6.409,0,0,1,1.718-2.779,7.32,7.32,0,0,1,2.465-1.494,7.142,7.142,0,0,1,2.51-.463,6.1,6.1,0,0,1,2.405.463,5.491,5.491,0,0,1,.747.373l-.568-.523-1.808-1.643-3.57-3.346c-2.36-2.226-4.736-4.6-6.976-6.812Z" transform="translate(-184.437 -111.944)" fill="#ff8b7b"/>
      <path id="Trazado_14127" data-name="Trazado 14127" d="M330.069,181.36c-5.348,5.288-7.1,14.939-7.469,23.3l.866.672a43.217,43.217,0,0,0,10.457-19.42c.194-.777.373-1.494.508-2.345Z" transform="translate(-271.08 -100.975)" opacity="0.2"/>
      <path id="Trazado_14128" data-name="Trazado 14128" d="M350.586,180.38c2.151,11.353,3.5,34.673-2.734,80.833H291.593c-.388-8.62,5.034-50.716-3.286-91.364a147.9,147.9,0,0,1,18.823-2.375,208.733,208.733,0,0,1,23.9,0c2.629.239,5.228.627,7.469,1.031A14.939,14.939,0,0,1,350.586,180.38Z" transform="translate(-237.802 -108.003)" fill="#208dfe"/>
      <path id="Trazado_14129" data-name="Trazado 14129" d="M350.586,180.38c2.151,11.353,3.5,34.673-2.734,80.833H291.593c-.388-8.62,5.034-50.716-3.286-91.364a147.9,147.9,0,0,1,18.823-2.375,208.733,208.733,0,0,1,23.9,0c2.629.239,5.228.627,7.469,1.031A14.939,14.939,0,0,1,350.586,180.38Z" transform="translate(-237.802 -108.003)" fill="#5b211f"/>
      <path id="Trazado_14130" data-name="Trazado 14130" d="M288.355,188.075l10.158-2.435c.314,6.155.344,13.773-.1,23.2C293.733,203.521,287.757,195.216,288.355,188.075Z" transform="translate(-184.176 -98.862)" opacity="0.2"/>
      <path id="Trazado_14131" data-name="Trazado 14131" d="M313.045,392.77l-.538,12.548H301.99l.538-12.548Z" transform="translate(-218.905 3.431)" opacity="0.2"/>
      <path id="Trazado_14132" data-name="Trazado 14132" d="M352.888,390.63l10.278,2.226-5.318,11.682-10.278-2.226Z" transform="translate(-337.116 2.374)" opacity="0.2"/>
      <path id="Trazado_14133" data-name="Trazado 14133" d="M299.506,150.118c2.689,10.069,3.764,16.1,9.979,20.287,9.337,6.364,20.989-.926,21.288-11.562.329-9.606-4.138-24.469-14.939-26.5a14.222,14.222,0,0,0-16.328,17.777Z" transform="translate(-232.166 -125.305)" fill="#ff8b7b"/>
      <path id="Trazado_14134" data-name="Trazado 14134" d="M336.144,149.608c.508-1.344,2.823-11.757.642-14.461s-27.054-.747-30.729,2.868c-6.11,5.975-1.867,11.353,4.81,18.27,5.019,5.2,5.214,11.055,7.753,11.951,4.482,1.494,11.323.09,12.7-4.646S336.144,149.608,336.144,149.608Z" transform="translate(-245.231 -124.421)" fill="#263238"/>
      <path id="Trazado_14135" data-name="Trazado 14135" d="M305.678,129.3c8.784-3.735,25.261.4,34.164-1.748a13.713,13.713,0,0,1-11.368,13.983,117.494,117.494,0,0,1-22.408,2.076C296.3,143.161,298.208,132.48,305.678,129.3Z" transform="translate(-241.833 -127.55)" fill="#263238"/>
      <path id="Trazado_14136" data-name="Trazado 14136" d="M332.7,137.448a16.746,16.746,0,0,1-9.307-1.778C321.745,139.644,330.783,140.734,332.7,137.448Z" transform="translate(-270.225 -123.54)" fill="#263238"/>
      <path id="Trazado_14137" data-name="Trazado 14137" d="M301.9,146.133a11.817,11.817,0,0,0,2.988,6.976c2.3,2.525,4.691.941,5.094-2.121.358-2.779-.388-7.469-3.2-8.814S301.7,143.01,301.9,146.133Z" transform="translate(-215.763 -120.528)" fill="#ff8b7b"/>
      <path id="Trazado_14138" data-name="Trazado 14138" d="M387.584,230.15s-11.951,80.295-18.479,110.381C361.95,373.471,323.5,482.448,323.5,482.448l-18.808-4.078s26.889-88.825,32.865-134.88c4.631-35.375,13.729-113.369,13.729-113.369Z" transform="translate(-297.478 -76.895)" fill="#515050"/>
      <path id="Trazado_14139" data-name="Trazado 14139" d="M369.233,396.208c.075,0-3.511,6.812-3.511,6.812l-21.153-4.586,1.778-6.364Z" transform="translate(-338.702 3.086)" fill="#263238"/>
      <path id="Trazado_14140" data-name="Trazado 14140" d="M319.365,249.327c-13.788,2.7-12.324,54.122-10.666,80.579,3.974-18.7,9.8-54.675,13.773-80.205A4.706,4.706,0,0,0,319.365,249.327Z" transform="translate(-236.803 -67.465)" opacity="0.3"/>
      <path id="Trazado_14141" data-name="Trazado 14141" d="M327.833,230.16s1.494,78.562.3,110.546C326.936,374.033,315.3,483.16,315.3,483.16H297.492S296.85,375.975,296,343.245c-.866-35.673-5.169-113.145-5.169-113.145Z" transform="translate(-217.783 -76.905)" fill="#515050"/>
      <path id="Trazado_14142" data-name="Trazado 14142" d="M320.681,394.8c.09,0-1,7.38-1,7.38H298.034l-.6-6.588Z" transform="translate(-219.744 4.434)" fill="#263238"/>
      <path id="Trazado_14143" data-name="Trazado 14143" d="M279.807,183.382c-5.034,13.579,24.559,29.578,24.559,29.578l12.817-16.433s-8.619-17.06-19.077-24.738C285.184,162.319,283.646,173.045,279.807,183.382Z" transform="translate(-189.043 -107.509)" fill="#5b211f"/>
    </g>
    <g id="Grupo_4056" data-name="Grupo 4056" transform="translate(-2906.212 -3679.682)">
      <g id="Personal_settings-rafiki" data-name="Personal settings-rafiki" transform="translate(0 0)">
        <g id="freepik--Settings--inject-181">
          <path id="Trazado_17367" data-name="Trazado 17367" d="M268.144,232.44H217.819a7.038,7.038,0,0,1-7.1-7.489l6.538-124.762a7.984,7.984,0,0,1,7.884-7.489h50.32a7.037,7.037,0,0,1,7.1,7.489l-6.538,124.762a7.989,7.989,0,0,1-7.884,7.489Z" transform="translate(-210.71 -90.08)" fill="#c9c9c9"/>
          <path id="Trazado_17368" data-name="Trazado 17368" d="M278.3,103.15H227.976a5.071,5.071,0,0,0-5,4.749l-6.3,120.176a4.461,4.461,0,0,0,4.5,4.749H271.5a5.071,5.071,0,0,0,5-4.749L282.8,107.9a4.461,4.461,0,0,0-4.5-4.749Z" transform="translate(-213.805 -95.507)" fill="#407bff"/>
          <path id="Trazado_17369" data-name="Trazado 17369" d="M278.3,103.15H227.976a5.071,5.071,0,0,0-5,4.749l-6.3,120.176a4.461,4.461,0,0,0,4.5,4.749H271.5a5.071,5.071,0,0,0,5-4.749L282.8,107.9a4.461,4.461,0,0,0-4.5-4.749Z" transform="translate(-213.805 -95.507)" fill="#fff" opacity="0.8"/>
          <path id="Trazado_17370" data-name="Trazado 17370" d="M341.651,92.7h-4.11a7.037,7.037,0,0,1,7.1,7.489L338.1,224.951a7.984,7.984,0,0,1-7.884,7.489h4.11a7.984,7.984,0,0,0,7.884-7.489l6.538-124.762a7.038,7.038,0,0,0-7.1-7.489Z" transform="translate(-272.771 -90.08)" fill="#515050"/>
          <path id="Trazado_17372" data-name="Trazado 17372" d="M240.18,103.15l6.836,129.718H264.8l-6.836-129.694H240.18Z" transform="translate(-226.014 -95.507)" fill="#fff" opacity="0.4"/>
          <path id="Trazado_17373" data-name="Trazado 17373" d="M290.716,232.844h4L287.884,103.15h-4Z" transform="translate(-248.707 -95.507)" fill="#fff" opacity="0.4"/>
          <path id="Trazado_17374" data-name="Trazado 17374" d="M245.226,87.683h1.764a.216.216,0,0,0,0-.433h-1.764a.216.216,0,0,0,0,.433Z" transform="translate(-228.522 -87.25)" fill="#407bff"/>
          <path id="Trazado_17375" data-name="Trazado 17375" d="M218.344,101.947a37.487,37.487,0,0,1,.481-6.249,10.345,10.345,0,0,1,9.845-7.965c.274,0,.279-.442,0-.433a10.8,10.8,0,0,0-9.614,6.374c-1.135,2.572-.961,5.547-1.115,8.3a.216.216,0,0,0,.433,0Z" transform="translate(-214.464 -87.276)" fill="#407bff"/>
        </g>
      </g>
      <g id="Grupo_3845" data-name="Grupo 3845" transform="translate(12.694 14.807)">
        <ellipse id="Elipse_475" data-name="Elipse 475" cx="16.35" cy="17.213" rx="16.35" ry="17.213" transform="matrix(-0.698, -0.716, 0.716, -0.698, 24.976, 47.447)" fill="#fff" opacity="0.3"/>
        <path id="Trazado_17376" data-name="Trazado 17376" d="M166.2,164.3a13.04,13.04,0,0,0,1.3,6.467,12.749,12.749,0,0,0,11.568,7.108,14.42,14.42,0,0,0,12.3-7.108,13.979,13.979,0,0,0,1.971-6.467,12.758,12.758,0,0,0-12.871-13.571A14.447,14.447,0,0,0,166.2,164.3Z" transform="translate(-153.898 -140.574)" fill="#fff"/>
        <path id="Trazado_17377" data-name="Trazado 17377" d="M170.55,190.483a12.749,12.749,0,0,0,11.568,7.108,14.42,14.42,0,0,0,12.3-7.108,20.511,20.511,0,0,0-11.745-3.633A22.318,22.318,0,0,0,170.55,190.483Z" transform="translate(-156.927 -160.29)"/>
        <ellipse id="Elipse_476" data-name="Elipse 476" cx="5.891" cy="6.204" rx="5.891" ry="6.204" transform="matrix(-0.698, -0.716, 0.716, -0.698, 25.797, 27.629)"/>
        <g id="Grupo_3844" data-name="Grupo 3844" transform="translate(0 47.024)">
          <path id="Trazado_17378" data-name="Trazado 17378" d="M150.238,257.991h43.387a1.494,1.494,0,0,0,1.476-1.4l.327-6.358a1.317,1.317,0,0,0-1.331-1.4H150.71a1.494,1.494,0,0,0-1.476,1.4l-.327,6.358a1.317,1.317,0,0,0,1.331,1.4Z" transform="translate(-148.11 -241.145)" fill="#fff"/>
          <path id="Trazado_17379" data-name="Trazado 17379" d="M177.172,236.084h18.122a1.494,1.494,0,0,0,1.481-1.408l.068-1.363a1.317,1.317,0,0,0-1.331-1.4H177.4a1.494,1.494,0,0,0-1.476,1.4l-.073,1.363a1.326,1.326,0,0,0,1.326,1.408Z" transform="translate(-161.76 -231.91)" opacity="0.3"/>
          <path id="Trazado_17380" data-name="Trazado 17380" d="M170.608,326.8h27.146a2.548,2.548,0,0,0,2.512-2.389l.159-3.134a2.271,2.271,0,0,0-2.271-2.389H171.017a2.548,2.548,0,0,0-2.512,2.389l-.159,3.134a2.271,2.271,0,0,0,2.262,2.389Z" transform="translate(-161.936 -279.386)" opacity="0.3"/>
          <path id="Trazado_17381" data-name="Trazado 17381" d="M151.977,291.845h43.392a1.5,1.5,0,0,0,1.476-1.4l.327-6.358a1.322,1.322,0,0,0-1.331-1.4H152.454a1.494,1.494,0,0,0-1.476,1.4l-.332,6.358a1.326,1.326,0,0,0,1.331,1.4Z" transform="translate(-150.644 -259.621)" fill="#fff"/>
          <g id="Grupo_3842" data-name="Grupo 3842" transform="translate(15.795 10.709)">
            <path id="Trazado_17382" data-name="Trazado 17382" d="M158.156,257.043a1.462,1.462,0,0,0,1.476,1.553,1.653,1.653,0,0,0,1.63-1.553,1.458,1.458,0,0,0-1.472-1.553A1.658,1.658,0,0,0,158.156,257.043Z" transform="translate(-143.824 -255.49)" fill="#263238"/>
            <path id="Trazado_17383" data-name="Trazado 17383" d="M168.7,257.043a1.458,1.458,0,0,0,1.472,1.553,1.649,1.649,0,0,0,1.631-1.553,1.458,1.458,0,0,0-1.472-1.553A1.649,1.649,0,0,0,168.7,257.043Z" transform="translate(-159.147 -255.49)" fill="#263238"/>
            <path id="Trazado_17384" data-name="Trazado 17384" d="M179.157,257.043a1.458,1.458,0,0,0,1.472,1.553,1.658,1.658,0,0,0,1.635-1.553,1.462,1.462,0,0,0-1.476-1.553A1.653,1.653,0,0,0,179.157,257.043Z" transform="translate(-174.362 -255.49)" fill="#263238"/>
            <path id="Trazado_17385" data-name="Trazado 17385" d="M189.707,257.043a1.462,1.462,0,0,0,1.472,1.553,1.658,1.658,0,0,0,1.635-1.553,1.462,1.462,0,0,0-1.472-1.553,1.658,1.658,0,0,0-1.635,1.553Z" transform="translate(-189.704 -255.49)" fill="#263238"/>
          </g>
          <g id="Grupo_3843" data-name="Grupo 3843" transform="translate(9.694 26.079)">
            <path id="Trazado_17386" data-name="Trazado 17386" d="M159.927,290.883a1.458,1.458,0,0,0,1.472,1.553,1.658,1.658,0,0,0,1.635-1.553,1.462,1.462,0,0,0-1.476-1.553A1.653,1.653,0,0,0,159.927,290.883Z" transform="translate(-136.062 -289.33)" fill="#263238"/>
            <path id="Trazado_17387" data-name="Trazado 17387" d="M170.436,290.883a1.462,1.462,0,0,0,1.472,1.553,1.658,1.658,0,0,0,1.635-1.553,1.458,1.458,0,0,0-1.472-1.553A1.658,1.658,0,0,0,170.436,290.883Z" transform="translate(-151.344 -289.33)" fill="#263238"/>
            <path id="Trazado_17388" data-name="Trazado 17388" d="M180.946,290.883a1.463,1.463,0,0,0,1.476,1.553,1.649,1.649,0,0,0,1.63-1.553,1.458,1.458,0,0,0-1.472-1.553A1.658,1.658,0,0,0,180.946,290.883Z" transform="translate(-166.628 -289.33)" fill="#263238"/>
            <path id="Trazado_17389" data-name="Trazado 17389" d="M191.447,290.883a1.458,1.458,0,0,0,1.472,1.553,1.658,1.658,0,0,0,1.635-1.553,1.462,1.462,0,0,0-1.476-1.553A1.649,1.649,0,0,0,191.447,290.883Z" transform="translate(-181.897 -289.33)" fill="#263238"/>
            <path id="Trazado_17390" data-name="Trazado 17390" d="M201.957,290.883a1.458,1.458,0,0,0,1.472,1.553,1.658,1.658,0,0,0,1.635-1.553,1.462,1.462,0,0,0-1.472-1.553,1.658,1.658,0,0,0-1.635,1.553Z" transform="translate(-197.181 -289.33)" fill="#263238"/>
            <path id="Trazado_17391" data-name="Trazado 17391" d="M212.466,290.883a1.462,1.462,0,0,0,1.476,1.553,1.653,1.653,0,0,0,1.63-1.553,1.458,1.458,0,0,0-1.472-1.553A1.658,1.658,0,0,0,212.466,290.883Z" transform="translate(-212.463 -289.33)" fill="#263238"/>
          </g>
        </g>
      </g>
    </g>
  </g>
</svg>
