<svg id="_7_Sign_In_image" data-name="7_Sign In image" xmlns="http://www.w3.org/2000/svg" xmlns:xlink="http://www.w3.org/1999/xlink" width="274" height="286" viewBox="0 0 274 286">
  <defs>
    <clipPath id="clip-path">
      <rect id="Rectángulo_3505" data-name="Rectángulo 3505" width="274" height="286" transform="translate(-2922 -3778.272)" fill="#fff"/>
    </clipPath>
    <clipPath id="clip-path-2">
      <path id="Trazado_17223" data-name="Trazado 17223" d="M128.5-312.028l26.225,182.675a31.811,31.811,0,0,1-31.119,38.407H-74.408a31.809,31.809,0,0,1-31.81-31.81l33.934-182.675c5-17.11,16.027-31.81,33.6-31.81H97.382A31.811,31.811,0,0,1,128.5-312.028Z" transform="translate(106.218 337.241)" fill="none"/>
    </clipPath>
  </defs>
  <g id="Enmascarar_grupo_3" data-name="Enmascarar grupo 3" transform="translate(2922 3778.272)" clip-path="url(#clip-path)">
    <g id="Grupo_3761" data-name="Grupo 3761" transform="translate(-2917.648 -3739.24)">
      <g id="Grupo_3760" data-name="Grupo 3760" transform="translate(0 0)">
        <path id="Trazado_17212" data-name="Trazado 17212" d="M128.5-312.028l26.225,182.675a31.811,31.811,0,0,1-31.119,38.407H-74.408a31.809,31.809,0,0,1-31.81-31.81l33.934-182.675c5-17.11,16.027-31.81,33.6-31.81H97.382A31.811,31.811,0,0,1,128.5-312.028Z" transform="translate(106.218 337.241)" fill="#e9efff"/>
        <g id="Grupo_3759" data-name="Grupo 3759">
          <g id="Grupo_3758" data-name="Grupo 3758" clip-path="url(#clip-path-2)">
            <g id="Grupo_3754" data-name="Grupo 3754" transform="translate(-17.515 114.036)">
              <rect id="Rectángulo_3473" data-name="Rectángulo 3473" width="289.015" height="36.39" transform="translate(0 102.033)" fill="#d3dfff"/>
              <g id="Grupo_3738" data-name="Grupo 3738" transform="translate(8.059 38.951)">
                <rect id="Rectángulo_3474" data-name="Rectángulo 3474" width="19.713" height="25.367" transform="translate(216.077 14.821)" fill="#adc6fe"/>
                <rect id="Rectángulo_3475" data-name="Rectángulo 3475" width="19.713" height="36.046" transform="translate(94.892)" fill="#adc6fe"/>
                <rect id="Rectángulo_3476" data-name="Rectángulo 3476" width="26.383" height="23.981" transform="translate(32.436 12.065)" fill="#adc6fe"/>
                <rect id="Rectángulo_3477" data-name="Rectángulo 3477" width="19.713" height="25.367" transform="translate(171.438 6.011)" fill="#adc6fe"/>
                <rect id="Rectángulo_3478" data-name="Rectángulo 3478" width="19.713" height="25.367" transform="translate(134.14 19.74)" fill="#adc6fe"/>
                <rect id="Rectángulo_3479" data-name="Rectángulo 3479" width="280.956" height="33.285" transform="translate(0 29.797)" fill="#adc6fe"/>
                <rect id="Rectángulo_3480" data-name="Rectángulo 3480" width="19.713" height="25.367" transform="translate(235.79 4.43)" fill="#adc6fe"/>
              </g>
              <g id="Grupo_3743" data-name="Grupo 3743" transform="translate(156.943 19.156)">
                <rect id="Rectángulo_3481" data-name="Rectángulo 3481" width="30.027" height="82.877" fill="#bed0fe"/>
                <g id="Grupo_3742" data-name="Grupo 3742" transform="translate(4.969 5.936)">
                  <g id="Grupo_3739" data-name="Grupo 3739" transform="translate(0 0)">
                    <rect id="Rectángulo_3482" data-name="Rectángulo 3482" width="5.97" height="11.747" transform="translate(15.021)" fill="#fff"/>
                    <rect id="Rectángulo_3483" data-name="Rectángulo 3483" width="5.97" height="11.747" fill="#fff"/>
                  </g>
                  <g id="Grupo_3740" data-name="Grupo 3740" transform="translate(0 17.909)">
                    <rect id="Rectángulo_3484" data-name="Rectángulo 3484" width="5.97" height="11.747" transform="translate(15.021 0)" fill="#fff"/>
                    <rect id="Rectángulo_3485" data-name="Rectángulo 3485" width="5.97" height="11.747" transform="translate(0 0)" fill="#fff"/>
                  </g>
                  <g id="Grupo_3741" data-name="Grupo 3741" transform="translate(0 35.819)">
                    <rect id="Rectángulo_3486" data-name="Rectángulo 3486" width="5.97" height="11.747" transform="translate(15.021)" fill="#fff"/>
                    <rect id="Rectángulo_3487" data-name="Rectángulo 3487" width="5.97" height="11.747" fill="#fff"/>
                  </g>
                </g>
              </g>
              <g id="Grupo_3747" data-name="Grupo 3747" transform="translate(114.952 28.952)">
                <rect id="Rectángulo_3488" data-name="Rectángulo 3488" width="30.026" height="73.081" transform="translate(0)" fill="#bed0fe"/>
                <g id="Grupo_3746" data-name="Grupo 3746" transform="translate(4.969 14.048)">
                  <g id="Grupo_3744" data-name="Grupo 3744" transform="translate(0 0)">
                    <rect id="Rectángulo_3489" data-name="Rectángulo 3489" width="5.97" height="11.747" transform="translate(15.021)" fill="#fff"/>
                    <rect id="Rectángulo_3490" data-name="Rectángulo 3490" width="5.97" height="11.747" fill="#fff"/>
                  </g>
                  <g id="Grupo_3745" data-name="Grupo 3745" transform="translate(0 17.909)">
                    <rect id="Rectángulo_3491" data-name="Rectángulo 3491" width="5.97" height="11.747" transform="translate(15.021)" fill="#fff"/>
                    <rect id="Rectángulo_3492" data-name="Rectángulo 3492" width="5.97" height="11.747" fill="#fff"/>
                  </g>
                </g>
              </g>
              <g id="Grupo_3750" data-name="Grupo 3750" transform="translate(198.283)">
                <g id="Grupo_3748" data-name="Grupo 3748">
                  <rect id="Rectángulo_3493" data-name="Rectángulo 3493" width="36.221" height="102.033" fill="#bed0fe"/>
                </g>
                <g id="Grupo_3749" data-name="Grupo 3749" transform="translate(5.977 13.666)">
                  <rect id="Rectángulo_3494" data-name="Rectángulo 3494" width="2.726" height="40.227" transform="translate(21.89)" fill="#fff"/>
                  <rect id="Rectángulo_3495" data-name="Rectángulo 3495" width="2.726" height="40.227" transform="translate(14.593)" fill="#fff"/>
                  <rect id="Rectángulo_3496" data-name="Rectángulo 3496" width="2.726" height="40.227" transform="translate(7.297)" fill="#fff"/>
                  <rect id="Rectángulo_3497" data-name="Rectángulo 3497" width="2.726" height="40.227" fill="#fff"/>
                </g>
              </g>
              <g id="Grupo_3753" data-name="Grupo 3753" transform="translate(66.73)">
                <g id="Grupo_3751" data-name="Grupo 3751" transform="translate(0)">
                  <rect id="Rectángulo_3498" data-name="Rectángulo 3498" width="36.221" height="102.033" fill="#bed0fe"/>
                </g>
                <g id="Grupo_3752" data-name="Grupo 3752" transform="translate(5.977 13.666)">
                  <rect id="Rectángulo_3499" data-name="Rectángulo 3499" width="2.726" height="40.227" transform="translate(21.89)" fill="#fff"/>
                  <rect id="Rectángulo_3500" data-name="Rectángulo 3500" width="2.726" height="40.227" transform="translate(14.593)" fill="#fff"/>
                  <rect id="Rectángulo_3501" data-name="Rectángulo 3501" width="2.726" height="40.227" transform="translate(7.297)" fill="#fff"/>
                  <rect id="Rectángulo_3502" data-name="Rectángulo 3502" width="2.726" height="40.227" transform="translate(0)" fill="#fff"/>
                </g>
              </g>
            </g>
            <g id="Grupo_3757" data-name="Grupo 3757" transform="translate(166.329 168.7)">
              <path id="Trazado_17213" data-name="Trazado 17213" d="M-89.231-234.023H-99.1s.627-5.056,1.011-6.146c.366-1.052.718-2.615,3.926-2.615,2.918,0,3.756,1.382,4.065,2.615S-89.231-234.023-89.231-234.023Z" transform="translate(171.844 242.783)" fill="#fff"/>
              <path id="Trazado_17214" data-name="Trazado 17214" d="M-131.476-224.49h10.488l-1.39-5.4h-9.1Z" transform="translate(261.415 252.919)" fill="#ed5933"/>
              <path id="Trazado_17215" data-name="Trazado 17215" d="M-132.274-202.71a13.183,13.183,0,0,1,.654-9.08,16.769,16.769,0,0,1,.864-1.8,21.317,21.317,0,0,1,4.172-4.5,20.194,20.194,0,0,1,4.906-2.124c3.559-1.031,14.638-2.293,14.638-2.293l9.894-.9,7.851-4.392s8.36-4.815,11.284-6.146a54.621,54.621,0,0,1,18.76-4.1c13.379,0,20.5.243,27.115,1.763,3.715.855,14.452,4.861,14.452,4.861l12.125,4.252s8.165-.616,10.3.816c.782.527,1.661,3.354,1.661,3.354l-6.892.139,1.327,4.113,6.562.246,1.084,1.929a11.608,11.608,0,0,1,1.3,7.887c-.484,2.493-1.32,5.29-2.72,6.292-1.891,1.354-14.783,2.127-14.783,2.127s.922-13.495-12.03-13.82c-6.494-.164-11.121,4.54-11.9,9.076-.248,1.457-.491,5.888-.491,5.888l-64.993.98h0l-.016,0v-.75c-.159-4.343-1.634-14.706-13.2-14.706-12.757,0-12.023,15.393-12.023,15.393s-6.274-.3-8.137-1.656A5.471,5.471,0,0,1-132.274-202.71Z" transform="translate(132.8 246.512)"/>
              <path id="Trazado_17216" data-name="Trazado 17216" d="M-113.728-226.376l.623-10.1s10.35-.071,14.665.822a36.95,36.95,0,0,1,8.346,3.743A45.689,45.689,0,0,1-83.386-227Z" transform="translate(192.117 247.736)" fill="#272425"/>
              <path id="Trazado_17217" data-name="Trazado 17217" d="M-65.5-225.877l1.4-10.643a51.3,51.3,0,0,0-10.841,1.361C-82.459-233.316-94.6-224.4-94.6-224.4Z" transform="translate(138.667 247.706)" fill="#272425"/>
              <line id="Línea_204" data-name="Línea 204" x1="1.851" y2="21.415" transform="translate(71.311 21.827)" fill="none" stroke="#c9c9c9" stroke-miterlimit="10" stroke-width="0.5"/>
              <line id="Línea_205" data-name="Línea 205" x1="65.75" y2="1.075" transform="translate(35.24 42.883)" fill="none" stroke="#c9c9c9" stroke-miterlimit="10" stroke-width="0.5"/>
              <line id="Línea_206" data-name="Línea 206" x1="3.194" y2="20.111" transform="translate(40.875 23.309)" fill="none" stroke="#c9c9c9" stroke-miterlimit="10" stroke-width="0.5"/>
              <line id="Línea_207" data-name="Línea 207" x1="0.694" y2="12.365" transform="translate(108.038 20.736)" fill="none" stroke="#c9c9c9" stroke-miterlimit="10" stroke-width="0.5"/>
              <rect id="Rectángulo_3503" data-name="Rectángulo 3503" width="5.524" height="2.008" transform="translate(99.391 25.73)" fill="#9b9b9b" stroke="rgba(0,0,0,0)" stroke-width="1"/>
              <rect id="Rectángulo_3504" data-name="Rectángulo 3504" width="5.524" height="2.008" transform="translate(64.038 25.73)" fill="#c9c9c9"/>
              <path id="Trazado_17218" data-name="Trazado 17218" d="M-55.346-226.865h6.317a.922.922,0,0,1,.691,1.532h0a14.181,14.181,0,0,1-10.871,4.783l-1.173-.021A14.617,14.617,0,0,1-55.346-226.865Z" transform="translate(61.562 255.294)" fill="#fff"/>
              <g id="Grupo_3755" data-name="Grupo 3755" transform="translate(101.915 33.835)">
                <path id="Trazado_17219" data-name="Trazado 17219" d="M-122.11-212.911a10.91,10.91,0,0,0,10.893,10.925,10.91,10.91,0,0,0,10.893-10.925,10.908,10.908,0,0,0-10.893-10.927A10.908,10.908,0,0,0-122.11-212.911Z" transform="translate(122.11 223.838)" fill="#272425"/>
                <path id="Trazado_17220" data-name="Trazado 17220" d="M-118.6-215.683a4.627,4.627,0,0,0,4.619,4.633,4.627,4.627,0,0,0,4.619-4.633,4.625,4.625,0,0,0-4.619-4.631A4.625,4.625,0,0,0-118.6-215.683Z" transform="translate(124.871 226.608)" fill="#cfd1d2"/>
              </g>
              <g id="Grupo_3756" data-name="Grupo 3756" transform="translate(12.077 33.835)">
                <path id="Trazado_17221" data-name="Trazado 17221" d="M-71.808-212.911a10.911,10.911,0,0,0,10.893,10.925,10.91,10.91,0,0,0,10.893-10.925,10.908,10.908,0,0,0-10.893-10.927A10.909,10.909,0,0,0-71.808-212.911Z" transform="translate(71.808 223.838)" fill="#272425"/>
                <path id="Trazado_17222" data-name="Trazado 17222" d="M-68.295-215.683a4.627,4.627,0,0,0,4.619,4.633,4.627,4.627,0,0,0,4.619-4.633,4.625,4.625,0,0,0-4.619-4.631A4.625,4.625,0,0,0-68.295-215.683Z" transform="translate(74.569 226.608)" fill="#cfd1d2"/>
              </g>
            </g>
          </g>
        </g>
      </g>
    </g>
    <g id="Grupo_3762" data-name="Grupo 3762" transform="translate(-2917.625 -3769.966)">
      <g id="Personal_settings-rafiki" data-name="Personal settings-rafiki" transform="translate(140.428 36.099)">
        <g id="freepik--Settings--inject-181" transform="translate(0 0)">
          <path id="Trazado_17113" data-name="Trazado 17113" d="M270.244,237.548H218.079a7.295,7.295,0,0,1-7.355-7.763L217.5,100.463a8.276,8.276,0,0,1,8.172-7.763h52.159a7.295,7.295,0,0,1,7.359,7.763l-6.776,129.322a8.281,8.281,0,0,1-8.172,7.763Z" transform="translate(-210.71 -89.984)" fill="#c9c9c9"/>
          <path id="Trazado_17114" data-name="Trazado 17114" d="M280.554,103.15H228.39a5.257,5.257,0,0,0-5.182,4.923L216.68,232.641a4.624,4.624,0,0,0,4.664,4.923h52.164a5.257,5.257,0,0,0,5.182-4.923l6.527-124.568a4.624,4.624,0,0,0-4.664-4.923Z" transform="translate(-213.7 -95.227)" fill="#407bff"/>
          <path id="Trazado_17115" data-name="Trazado 17115" d="M280.554,103.15H228.39a5.257,5.257,0,0,0-5.182,4.923L216.68,232.641a4.624,4.624,0,0,0,4.664,4.923h52.164a5.257,5.257,0,0,0,5.182-4.923l6.527-124.568a4.624,4.624,0,0,0-4.664-4.923Z" transform="translate(-213.7 -95.227)" fill="#fff" opacity="0.8"/>
          <path id="Trazado_17116" data-name="Trazado 17116" d="M342.069,92.7h-4.26a7.295,7.295,0,0,1,7.359,7.763l-6.776,129.322a8.276,8.276,0,0,1-8.172,7.763h4.26a8.276,8.276,0,0,0,8.172-7.763l6.777-129.322a7.295,7.295,0,0,0-7.359-7.763Z" transform="translate(-270.671 -89.984)" fill="#515050"/>
          <path id="Trazado_17118" data-name="Trazado 17118" d="M240.18,103.15l7.085,134.459H265.7l-7.085-134.434H240.18Z" transform="translate(-225.496 -95.227)" fill="#fff" opacity="0.4"/>
          <path id="Trazado_17119" data-name="Trazado 17119" d="M290.965,237.584h4.151L288.031,103.15H283.88Z" transform="translate(-247.421 -95.227)" fill="#fff" opacity="0.4"/>
          <path id="Trazado_17120" data-name="Trazado 17120" d="M245.234,87.7h1.829a.224.224,0,0,0,0-.448h-1.829a.224.224,0,0,0,0,.448Z" transform="translate(-227.919 -87.25)" fill="#407bff"/>
          <path id="Trazado_17121" data-name="Trazado 17121" d="M218.359,102.482a38.859,38.859,0,0,1,.5-6.478,10.723,10.723,0,0,1,10.2-8.256c.284,0,.289-.458,0-.448a11.191,11.191,0,0,0-9.965,6.607c-1.176,2.666-1,5.75-1.156,8.6a.224.224,0,0,0,.448,0Z" transform="translate(-214.337 -87.275)" fill="#407bff"/>
        </g>
      </g>
      <g id="Grupo_3735" data-name="Grupo 3735" transform="translate(153.586 51.447)">
        <ellipse id="Elipse_40" data-name="Elipse 40" cx="16.948" cy="17.842" rx="16.948" ry="17.842" transform="matrix(-0.698, -0.716, 0.716, -0.698, 25.889, 49.181)" fill="#fff" opacity="0.3"/>
        <path id="Trazado_16601" data-name="Trazado 16601" d="M166.2,164.8a13.516,13.516,0,0,0,1.351,6.7,13.215,13.215,0,0,0,11.991,7.368A14.947,14.947,0,0,0,192.3,171.5a14.49,14.49,0,0,0,2.043-6.7A13.224,13.224,0,0,0,181,150.729,14.975,14.975,0,0,0,166.2,164.8Z" transform="translate(-153.449 -140.203)" fill="#fff"/>
        <path id="Trazado_16602" data-name="Trazado 16602" d="M170.55,190.616a13.215,13.215,0,0,0,11.991,7.368,14.947,14.947,0,0,0,12.749-7.368,21.26,21.26,0,0,0-12.174-3.766A23.134,23.134,0,0,0,170.55,190.616Z" transform="translate(-156.429 -159.32)" fill="#515050"/>
        <ellipse id="Elipse_41" data-name="Elipse 41" cx="6.106" cy="6.431" rx="6.106" ry="6.431" transform="matrix(-0.698, -0.716, 0.716, -0.698, 26.74, 28.639)" fill="#515050"/>
        <g id="Grupo_3734" data-name="Grupo 3734" transform="translate(0 48.743)">
          <path id="Trazado_16603" data-name="Trazado 16603" d="M150.287,258.325H195.26a1.549,1.549,0,0,0,1.53-1.455l.339-6.591a1.365,1.365,0,0,0-1.379-1.45H150.776a1.549,1.549,0,0,0-1.53,1.45l-.339,6.591a1.365,1.365,0,0,0,1.379,1.455Z" transform="translate(-148.081 -240.864)" fill="#fff"/>
          <path id="Trazado_16604" data-name="Trazado 16604" d="M177.221,236.236H196a1.549,1.549,0,0,0,1.535-1.459l.071-1.412a1.365,1.365,0,0,0-1.379-1.455H177.452a1.549,1.549,0,0,0-1.53,1.455l-.075,1.412a1.375,1.375,0,0,0,1.375,1.459Z" transform="translate(-161.245 -231.91)" opacity="0.3"/>
          <path id="Trazado_16605" data-name="Trazado 16605" d="M170.691,327.091h28.138a2.641,2.641,0,0,0,2.6-2.476l.165-3.248a2.354,2.354,0,0,0-2.354-2.476H171.115a2.641,2.641,0,0,0-2.6,2.476l-.165,3.248a2.354,2.354,0,0,0,2.344,2.476Z" transform="translate(-161.701 -277.942)" opacity="0.3"/>
          <path id="Trazado_16606" data-name="Trazado 16606" d="M152.026,292.18H197a1.554,1.554,0,0,0,1.53-1.455l.339-6.591a1.37,1.37,0,0,0-1.379-1.455H152.52a1.549,1.549,0,0,0-1.53,1.455l-.344,6.591a1.375,1.375,0,0,0,1.379,1.455Z" transform="translate(-150.644 -258.779)" fill="#fff"/>
          <g id="Grupo_3736" data-name="Grupo 3736" transform="translate(16.372 11.101)">
            <path id="Trazado_16607" data-name="Trazado 16607" d="M158.156,257.1a1.516,1.516,0,0,0,1.53,1.61,1.714,1.714,0,0,0,1.69-1.61,1.511,1.511,0,0,0-1.525-1.61A1.718,1.718,0,0,0,158.156,257.1Z" transform="translate(-143.3 -255.49)" fill="#263238"/>
            <path id="Trazado_16608" data-name="Trazado 16608" d="M168.7,257.1a1.511,1.511,0,0,0,1.525,1.61,1.709,1.709,0,0,0,1.69-1.61,1.511,1.511,0,0,0-1.525-1.61A1.709,1.709,0,0,0,168.7,257.1Z" transform="translate(-158.798 -255.49)" fill="#263238"/>
            <path id="Trazado_16609" data-name="Trazado 16609" d="M179.157,257.1a1.511,1.511,0,0,0,1.525,1.61,1.718,1.718,0,0,0,1.695-1.61,1.516,1.516,0,0,0-1.53-1.61A1.714,1.714,0,0,0,179.157,257.1Z" transform="translate(-174.187 -255.49)" fill="#263238"/>
            <path id="Trazado_16610" data-name="Trazado 16610" d="M189.707,257.1a1.516,1.516,0,0,0,1.525,1.61,1.718,1.718,0,0,0,1.695-1.61,1.516,1.516,0,0,0-1.525-1.61,1.718,1.718,0,0,0-1.695,1.61Z" transform="translate(-189.704 -255.49)" fill="#263238"/>
          </g>
          <g id="Grupo_3737" data-name="Grupo 3737" transform="translate(10.048 27.032)">
            <path id="Trazado_16611" data-name="Trazado 16611" d="M159.927,290.94a1.511,1.511,0,0,0,1.525,1.61,1.718,1.718,0,0,0,1.695-1.61,1.516,1.516,0,0,0-1.53-1.61A1.714,1.714,0,0,0,159.927,290.94Z" transform="translate(-135.19 -289.33)" fill="#263238"/>
            <path id="Trazado_16612" data-name="Trazado 16612" d="M170.436,290.94a1.516,1.516,0,0,0,1.525,1.61,1.718,1.718,0,0,0,1.695-1.61,1.511,1.511,0,0,0-1.525-1.61A1.718,1.718,0,0,0,170.436,290.94Z" transform="translate(-150.646 -289.33)" fill="#263238"/>
            <path id="Trazado_16613" data-name="Trazado 16613" d="M180.946,290.94a1.516,1.516,0,0,0,1.53,1.61,1.709,1.709,0,0,0,1.69-1.61,1.511,1.511,0,0,0-1.525-1.61A1.718,1.718,0,0,0,180.946,290.94Z" transform="translate(-166.104 -289.33)" fill="#263238"/>
            <path id="Trazado_16614" data-name="Trazado 16614" d="M191.447,290.94a1.511,1.511,0,0,0,1.525,1.61,1.718,1.718,0,0,0,1.695-1.61,1.516,1.516,0,0,0-1.53-1.61A1.709,1.709,0,0,0,191.447,290.94Z" transform="translate(-181.549 -289.33)" fill="#263238"/>
            <path id="Trazado_16615" data-name="Trazado 16615" d="M201.957,290.94a1.511,1.511,0,0,0,1.525,1.61,1.718,1.718,0,0,0,1.695-1.61,1.516,1.516,0,0,0-1.525-1.61,1.718,1.718,0,0,0-1.695,1.61Z" transform="translate(-197.006 -289.33)" fill="#263238"/>
            <path id="Trazado_16616" data-name="Trazado 16616" d="M212.466,290.94a1.516,1.516,0,0,0,1.53,1.61,1.714,1.714,0,0,0,1.69-1.61,1.511,1.511,0,0,0-1.525-1.61A1.718,1.718,0,0,0,212.466,290.94Z" transform="translate(-212.463 -289.33)" fill="#263238"/>
          </g>
        </g>
      </g>
      <g id="freepik--Character--inject-181" transform="translate(0 0)">
        <path id="Trazado_17170" data-name="Trazado 17170" d="M179.3,202.451l-19.781,22.391c1.544,10.686,4.772,41.694,4.772,41.694-2.965,3.922-10.207,2.811-10.207,2.811a102.737,102.737,0,0,1-7.073-46.45c1.39-14.469,19.951-42.929,33.17-50.959a25.88,25.88,0,0,1,6.934-2.919l2.61-.309-9.265,34.421Z" transform="translate(-115.362 -101.342)" fill="#5b211f"/>
        <path id="Trazado_17172" data-name="Trazado 17172" d="M160.3,233.819l4.787,5.111a1.761,1.761,0,0,1,.355.587l2.811,7.906a1.714,1.714,0,0,1,0,1.3l-1.359,2.8a1.668,1.668,0,0,1-1.174.911l-9.775,2.023a1.683,1.683,0,0,1-1.992-1.343L152.072,242.7a1.544,1.544,0,0,1,0-.633l1.3-6.671a1.683,1.683,0,0,1,1.359-1.328l4.061-.726a1.683,1.683,0,0,1,1.513.479Z" transform="translate(-112.45 -66.185)" fill="#fab27b"/>
        <path id="Trazado_17173" data-name="Trazado 17173" d="M165.5,234.948l-15.226,6.9-.2-7.366,14.052-5.4Z" transform="translate(-113.522 -68.488)" fill="#515050"/>
        <path id="Trazado_17175" data-name="Trazado 17175" d="M169.312,250.52c-9.08,32.429-5.235,80.3-10.223,112.4-3.428,22.113-26.869,94.892-26.869,94.892l20.693,6.27s25.819-64.1,30.884-83.2c8.123-30.992,20.322-89.8,20.322-89.8s4.555-16.678,2.486-18.531S169.312,250.52,169.312,250.52Z" transform="translate(-123.236 -56.82)" fill="#515050"/>
        <path id="Trazado_17176" data-name="Trazado 17176" d="M171,264.94l14.963,4.849-5.606,26.252S183.107,270.932,171,264.94Z" transform="translate(-102.131 -48.972)" opacity="0.3"/>
        <path id="Trazado_17177" data-name="Trazado 17177" d="M136.216,384.15,132.51,395.9l10.037,4.509,4.972-12.477Z" transform="translate(-123.078 15.904)" fill="#fab27b"/>
        <path id="Trazado_17178" data-name="Trazado 17178" d="M133.49,389.623l10.593,4.092,1.405-3.536-11.134-3.289Z" transform="translate(-122.545 17.395)" opacity="0.2"/>
        <path id="Trazado_17179" data-name="Trazado 17179" d="M132.861,380.59l25.31,6.918-4.586,8.153-22.144-6.532Z" transform="translate(-123.661 13.967)" fill="#407bff"/>
        <path id="Trazado_17180" data-name="Trazado 17180" d="M132.861,380.59l25.31,6.918-4.586,8.153-22.144-6.532Z" transform="translate(-123.661 13.967)" fill="#fff" opacity="0.5"/>
        <path id="Trazado_17181" data-name="Trazado 17181" d="M140.45,396a.34.34,0,0,1-.139-.324.293.293,0,0,1,.247-.232c.232,0,5.266-.772,7.026.541a1.544,1.544,0,0,1,.633,1,1.127,1.127,0,0,1-.463,1.22,5.451,5.451,0,0,1-3.814-.463A22.309,22.309,0,0,1,140.45,396Zm1.05,0c2.1,1.143,5.08,2.285,5.93,1.73.124,0,.263-.2.185-.633a.788.788,0,0,0-.4-.6,1.759,1.759,0,0,0-.494-.278,13.8,13.8,0,0,0-5.219-.247Z" transform="translate(-118.835 21.925)" fill="#407bff"/>
        <path id="Trazado_17182" data-name="Trazado 17182" d="M140.325,397.177a.309.309,0,0,1,0-.309c.077-.139,1.637-3.2,3.629-3.845a2.223,2.223,0,0,1,1.745.124c.741.386.834.865.726,1.2-.263,1.421-4.108,2.872-5.76,2.949a.17.17,0,0,1-.124,0,.263.263,0,0,1-.216-.124Zm4.941-3.567a1.545,1.545,0,0,0-1.1,0,7.135,7.135,0,0,0-3,3.088c1.807-.293,4.463-1.544,4.633-2.394,0-.077,0-.293-.432-.541h-.17Z" transform="translate(-118.848 20.666)" fill="#407bff"/>
        <path id="Trazado_17183" data-name="Trazado 17183" d="M147.4,396.149,134.506,391.1a1.112,1.112,0,0,0-1.343.4l-6.439,9.59a1.869,1.869,0,0,0,.479,2.579l.355.185c4.633,1.73,8.91,3.088,14.7,5.374,6.825,2.687,4.772,2.826,12.755,6.084,4.818,1.961,7.86-3.2,5.914-4.262-8.926-4.864-8.787-8.092-11.1-12.863A4.386,4.386,0,0,0,147.4,396.149Z" transform="translate(-126.402 19.64)" fill="#263238"/>
        <path id="Trazado_17184" data-name="Trazado 17184" d="M194.48,390.35l.232,11.319,10.948,1.05.664-12.369Z" transform="translate(-89.353 19.278)" fill="#fab27b"/>
        <path id="Trazado_17185" data-name="Trazado 17185" d="M206.024,394.795l.154-2.965-11.659.479.077,3.459Z" transform="translate(-89.331 20.084)" opacity="0.2"/>
        <path id="Trazado_17186" data-name="Trazado 17186" d="M156.435,261.4c3.428-16.338,17.11-30.884,17.11-30.884l52.5,3.366s3.3,33.726,4.077,45c1.544,22.762,7.937,58.109,8.107,80.932.232,30.884-6.841,112.836-6.841,112.836L211.563,475s.293-75.806-2.949-104.389c-2.455-21.619-17.249-81.01-17.249-81.01S150.706,288.8,156.435,261.4Z" transform="translate(-110.359 -67.704)" fill="#515050"/>
        <path id="Trazado_17187" data-name="Trazado 17187" d="M189.72,387.336l26.19-1.606-1.714,9.188-23.071.957Z" transform="translate(-91.944 16.764)" fill="#407bff"/>
        <path id="Trazado_17188" data-name="Trazado 17188" d="M189.72,387.336l26.19-1.606-1.714,9.188-23.071.957Z" transform="translate(-91.944 16.764)" fill="#fff" opacity="0.5"/>
        <path id="Trazado_17189" data-name="Trazado 17189" d="M203.343,399.74a.309.309,0,0,1-.232-.263.263.263,0,0,1,.154-.293c.2-.108,4.725-2.471,6.81-1.791a1.544,1.544,0,0,1,.927.726,1.158,1.158,0,0,1,0,1.313,5.39,5.39,0,0,1-3.768.818,23.156,23.156,0,0,1-3.891-.509Zm.988-.371c2.347.386,5.544.494,6.177-.309.093-.093.17-.278,0-.649a.8.8,0,0,0-.571-.448,1.835,1.835,0,0,0-.571-.093,13.741,13.741,0,0,0-5.034,1.5Z" transform="translate(-84.658 23.045)" fill="#407bff"/>
        <path id="Trazado_17190" data-name="Trazado 17190" d="M203.194,400.812a.355.355,0,0,1-.124-.278c0-.154.51-3.552,2.177-4.818a2.193,2.193,0,0,1,1.683-.448c.818.108,1.066.54,1.081.88.216,1.436-2.934,4.077-4.478,4.633a.124.124,0,0,1-.124,0A.278.278,0,0,1,203.194,400.812Zm3.521-4.988a1.652,1.652,0,0,0-1.066.34,7.134,7.134,0,0,0-1.838,3.814c1.544-.865,3.706-2.934,3.66-3.8,0-.077,0-.293-.587-.355Z" transform="translate(-84.678 21.942)" fill="#407bff"/>
        <path id="Trazado_17191" data-name="Trazado 17191" d="M208.817,397.886l-13.9-.556a1.127,1.127,0,0,0-1.127.834l-2.949,11.165a1.853,1.853,0,0,0,1.313,2.27,1.542,1.542,0,0,0,.386,0c4.988.108,9.435,0,15.658.263,7.32.293,5.436,1.1,14.052,1.544,5.189.278,6.362-5.59,4.185-5.961-10.037-1.668-10.964-4.756-14.7-8.509a4.493,4.493,0,0,0-2.919-1.05Z" transform="translate(-91.367 23.077)" fill="#263238"/>
        <path id="Trazado_17192" data-name="Trazado 17192" d="M197.386,163.254c-.911,2.919-3.2,7.845,0,12.246l-15.766-1.544s1.683-11.628,2.656-15.442c.633-2.455,1.452-5.127,9.744-2.81C198.776,157.077,198,161.278,197.386,163.254Z" transform="translate(-96.352 -108.904)" fill="#fab27b"/>
        <path id="Trazado_17193" data-name="Trazado 17193" d="M188.537,174.333c-8.678-6.7-27.024-24.862-9.42-40.721,14.655-13.2,28.12-5.482,32.706,3.444,5.142,9.991,16.8,36.691-9.065,41.586C198,179.537,193.046,177.807,188.537,174.333Z" transform="translate(-101.725 -124.291)" fill="#fab27b"/>
        <path id="Trazado_17194" data-name="Trazado 17194" d="M174.59,168.917s12.168-10.686,35.285,3.413l-.324,3.3-34.745-3.366Z" transform="translate(-100.178 -103.341)" fill="#515050"/>
        <path id="Trazado_17196" data-name="Trazado 17196" d="M189.68,158.24c0,3.567,1.1,5.42,2.378,6.347a23.559,23.559,0,0,1,.942-3.2C189.9,160.031,189.68,158.24,189.68,158.24Z" transform="translate(-91.965 -107.04)" opacity="0.1"/>
        <path id="Trazado_17197" data-name="Trazado 17197" d="M215.506,170.69a145.709,145.709,0,0,0-15.149-2.409c-8.956-1.05-15.8-1.745-20.739.432-7.876,3.474-8.879,5.7-8.879,5.7l1.544,25.526A227.674,227.674,0,0,1,172.947,237c0,.108-.618,24.321-13.7,37.324A42.729,42.729,0,0,0,178,283.078l7.381-17.666,2.332,18.531s26.576,7.876,48.5.6c0,0-12-19.179-8.138-38.791,1.868-9.435,3.227-13.9,4.278-21.31a40.259,40.259,0,0,0,0-12.06l-4.926-33.664S218.718,171.478,215.506,170.69Z" transform="translate(-108.526 -102.118)" fill="#5b211f"/>
        <path id="Trazado_17199" data-name="Trazado 17199" d="M207.513,220.879c.633-3.413,1.189-6.625,1.544-9.481a40.257,40.257,0,0,0,0-12.06L202,191.4S208.795,200.943,207.513,220.879Z" transform="translate(-85.261 -88.994)" fill="#515050"/>
        <path id="Trazado_17200" data-name="Trazado 17200" d="M247.1,193.544l4.88-13.9a1.143,1.143,0,0,1,.556-.649l7.644-3.907a1.189,1.189,0,0,1,1.282.17l5.451,4.787a1.143,1.143,0,0,1,.154,1.544L261.429,189a1.183,1.183,0,0,0-.154.278c-.432,1.1-3.336,8.03-9.512,9.759l-.232.093-2.069,1.1a1.143,1.143,0,0,1-1.544-.34l-2.641-3.691a1.143,1.143,0,0,1,.463-1.714l.695-.324a1.066,1.066,0,0,0,.664-.618Z" transform="translate(-61.827 -97.932)" fill="#fab27b"/>
        <path id="Trazado_17201" data-name="Trazado 17201" d="M195.59,169.48a39.47,39.47,0,0,1,22.839,15.627,158.622,158.622,0,0,0,23.163,23.673s17.851-3.8,29.108-13.543l6.609,9.868s-27.116,20.445-38.158,19.38c-9.42-.911-26.591-13.172-26.591-13.172l-7.073-7.937Z" transform="translate(-88.749 -100.923)" fill="#5b211f"/>
        <path id="Trazado_17203" data-name="Trazado 17203" d="M246.263,185.36l9.914,12.307-6.64,1.76-7.906-11.566Z" transform="translate(-63.693 -92.281)" fill="#515050"/>
        <path id="Trazado_17205" data-name="Trazado 17205" d="M201.87,147.17v4.787l3.227-.448Z" transform="translate(-85.331 -113.065)" fill="#e07f50"/>
        <path id="Trazado_17206" data-name="Trazado 17206" d="M194.976,187.85c-7.428.757-29.34,1.189-26.73-14.886s-.942-24.043,5.868-35.363,21-14.624,33.772-11.273c10.64,2.78,11.5,10.223,8.617,14.7s-4.185,5.312-3.675,8.493-1.421,4.957-2.255,6.455a8.818,8.818,0,0,1-3.4,2.455,19.549,19.549,0,0,0,.571,9.373C209.291,173.69,212.441,186.043,194.976,187.85Z" transform="translate(-103.747 -125.084)"/>
        <path id="Trazado_17207" data-name="Trazado 17207" d="M192.033,126.338a30.437,30.437,0,0,1,10.269,2.949c2.517,1.3,5.034,3.227,5.605,6.177.818,4.247-2.471,8.277-5.08,11.211-.417.479.386,1.035.788.571,4.633-5.189,8.215-12.477,1.421-17.45a27.41,27.41,0,0,0-12.91-4.416.481.481,0,0,0-.093.957Z" transform="translate(-90.921 -124.924)"/>
        <path id="Trazado_17208" data-name="Trazado 17208" d="M175.575,133.2c-4.9,6.347-5.127,14.639-6.177,22.206-.695,5.343-6.717,15.766-2.455,20.8.4.479,1.174-.124.772-.6-2.919-3.444,0-8.509.988-12.076a64.195,64.195,0,0,0,1.9-10.7c.664-6.47,1.544-13.7,5.7-19.04.386-.494-.4-1.081-.788-.587Z" transform="translate(-105.163 -120.771)"/>
        <path id="Trazado_17209" data-name="Trazado 17209" d="M200.049,142.05c-.093.2.077-.154.108-.2a2.317,2.317,0,0,1,.355-.51,1.668,1.668,0,0,1,1.791-.525c.587.139.834-.757.247-.9a2.857,2.857,0,0,0-3.4,1.884c-.232.541.664.788.9.247Z" transform="translate(-86.83 -117.056)"/>
        <path id="Trazado_17210" data-name="Trazado 17210" d="M200.169,147.323c.988,2.965,0,5.961-2.116,6.686s-4.633-1.1-5.714-4.077,0-5.961,2.116-6.686S199.165,144.343,200.169,147.323Z" transform="translate(-90.749 -115.287)" fill="#fab27b"/>
        <path id="Trazado_17211" data-name="Trazado 17211" d="M202.816,141c-.139,1.112-1.22,1.343-1.776,1.436s-.6.726-.494,1.544.494,1.405.865,1.343.6-.726.51-1.544a3.239,3.239,0,0,0-.185-.649C203.48,142.081,202.816,141,202.816,141Z" transform="translate(-86.077 -116.422)"/>
      </g>
    </g>
  </g>
</svg>
