<svg xmlns="http://www.w3.org/2000/svg" xmlns:xlink="http://www.w3.org/1999/xlink" width="268.664" height="336.344" viewBox="0 0 268.664 336.344">
  <defs>
    <clipPath id="clip-path">
      <path id="Trazado_17040" data-name="Trazado 17040" d="M-79.121-311.871l-26.39,183.819A32.01,32.01,0,0,0-74.2-89.4H125.058a32.009,32.009,0,0,0,32.009-32.009L122.922-305.232c-5.03-17.217-16.128-32.009-33.806-32.009H-47.807A32.01,32.01,0,0,0-79.121-311.871Z" transform="translate(106.218 337.241)" fill="none"/>
    </clipPath>
  </defs>
  <g id="_4_Onboarding_image" data-name="4_Onboarding  image" transform="translate(0 0.503)">
    <g id="Grupo_3707" data-name="Grupo 3707" transform="translate(5.379 88.003)">
      <path id="Trazado_17029" data-name="Trazado 17029" d="M-79.121-311.871l-26.39,183.819A32.01,32.01,0,0,0-74.2-89.4H125.058a32.009,32.009,0,0,0,32.009-32.009L122.922-305.232c-5.03-17.217-16.128-32.009-33.806-32.009H-47.807A32.01,32.01,0,0,0-79.121-311.871Z" transform="translate(106.218 337.241)" fill="#e9efff"/>
      <g id="Grupo_3706" data-name="Grupo 3706">
        <g id="Grupo_3705" data-name="Grupo 3705" clip-path="url(#clip-path)">
          <g id="Grupo_3701" data-name="Grupo 3701" transform="translate(-9.914 114.75)">
            <rect id="Rectángulo_3440" data-name="Rectángulo 3440" width="290.825" height="36.618" transform="translate(0 102.672)" fill="#d3dfff"/>
            <g id="Grupo_3685" data-name="Grupo 3685" transform="translate(0 39.195)">
              <rect id="Rectángulo_3441" data-name="Rectángulo 3441" width="19.837" height="25.525" transform="translate(45.449 14.914)" fill="#adc6fe"/>
              <rect id="Rectángulo_3442" data-name="Rectángulo 3442" width="19.837" height="36.272" transform="translate(167.392)" fill="#adc6fe"/>
              <rect id="Rectángulo_3443" data-name="Rectángulo 3443" width="26.548" height="24.131" transform="translate(223.528 12.141)" fill="#adc6fe"/>
              <rect id="Rectángulo_3444" data-name="Rectángulo 3444" width="19.837" height="25.525" transform="translate(90.367 6.049)" fill="#adc6fe"/>
              <rect id="Rectángulo_3445" data-name="Rectángulo 3445" width="19.836" height="25.525" transform="translate(127.899 19.864)" fill="#adc6fe"/>
              <rect id="Rectángulo_3446" data-name="Rectángulo 3446" width="282.715" height="33.493" transform="translate(0 29.983)" fill="#adc6fe"/>
              <rect id="Rectángulo_3447" data-name="Rectángulo 3447" width="19.836" height="25.525" transform="translate(25.613 4.458)" fill="#adc6fe"/>
            </g>
            <g id="Grupo_3690" data-name="Grupo 3690" transform="translate(102.685 19.276)">
              <rect id="Rectángulo_3448" data-name="Rectángulo 3448" width="30.215" height="83.397" fill="#bed0fe"/>
              <g id="Grupo_3689" data-name="Grupo 3689" transform="translate(4.092 5.973)">
                <g id="Grupo_3686" data-name="Grupo 3686">
                  <rect id="Rectángulo_3449" data-name="Rectángulo 3449" width="6.007" height="11.821" fill="#fff"/>
                  <rect id="Rectángulo_3450" data-name="Rectángulo 3450" width="6.007" height="11.821" transform="translate(15.115)" fill="#fff"/>
                </g>
                <g id="Grupo_3687" data-name="Grupo 3687" transform="translate(0 18.022)">
                  <rect id="Rectángulo_3451" data-name="Rectángulo 3451" width="6.007" height="11.821" fill="#fff"/>
                  <rect id="Rectángulo_3452" data-name="Rectángulo 3452" width="6.007" height="11.821" transform="translate(15.115)" fill="#fff"/>
                </g>
                <g id="Grupo_3688" data-name="Grupo 3688" transform="translate(0 36.043)">
                  <rect id="Rectángulo_3453" data-name="Rectángulo 3453" width="6.007" height="11.821" fill="#fff"/>
                  <rect id="Rectángulo_3454" data-name="Rectángulo 3454" width="6.007" height="11.821" transform="translate(15.115)" fill="#fff"/>
                </g>
              </g>
            </g>
            <g id="Grupo_3694" data-name="Grupo 3694" transform="translate(144.938 29.134)">
              <rect id="Rectángulo_3455" data-name="Rectángulo 3455" width="30.214" height="73.538" transform="translate(0)" fill="#edd8c0"/>
              <g id="Grupo_3693" data-name="Grupo 3693" transform="translate(4.092 14.136)">
                <g id="Grupo_3691" data-name="Grupo 3691">
                  <rect id="Rectángulo_3456" data-name="Rectángulo 3456" width="6.007" height="11.821" fill="#e0cab1"/>
                  <rect id="Rectángulo_3457" data-name="Rectángulo 3457" width="6.007" height="11.821" transform="translate(15.115)" fill="#e0cab1"/>
                </g>
                <g id="Grupo_3692" data-name="Grupo 3692" transform="translate(0 18.022)">
                  <rect id="Rectángulo_3458" data-name="Rectángulo 3458" width="6.007" height="11.821" fill="#e0cab1"/>
                  <rect id="Rectángulo_3459" data-name="Rectángulo 3459" width="6.007" height="11.821" transform="translate(15.115)" fill="#e0cab1"/>
                </g>
              </g>
            </g>
            <g id="Grupo_3697" data-name="Grupo 3697" transform="translate(54.853)">
              <g id="Grupo_3695" data-name="Grupo 3695">
                <rect id="Rectángulo_3460" data-name="Rectángulo 3460" width="36.448" height="102.672" fill="#bed0fe"/>
              </g>
              <g id="Grupo_3696" data-name="Grupo 3696" transform="translate(5.664 13.751)">
                <rect id="Rectángulo_3461" data-name="Rectángulo 3461" width="2.743" height="40.479" fill="#fff"/>
                <rect id="Rectángulo_3462" data-name="Rectángulo 3462" width="2.743" height="40.479" transform="translate(7.342)" fill="#fff"/>
                <rect id="Rectángulo_3463" data-name="Rectángulo 3463" width="2.743" height="40.479" transform="translate(14.685)" fill="#fff"/>
                <rect id="Rectángulo_3464" data-name="Rectángulo 3464" width="2.743" height="40.479" transform="translate(22.027)" fill="#fff"/>
              </g>
            </g>
            <g id="Grupo_3700" data-name="Grupo 3700" transform="translate(187.229)">
              <g id="Grupo_3698" data-name="Grupo 3698" transform="translate(0)">
                <rect id="Rectángulo_3465" data-name="Rectángulo 3465" width="36.448" height="102.672" fill="#bed0fe"/>
              </g>
              <g id="Grupo_3699" data-name="Grupo 3699" transform="translate(5.664 13.751)">
                <rect id="Rectángulo_3466" data-name="Rectángulo 3466" width="2.743" height="40.479" fill="#fff"/>
                <rect id="Rectángulo_3467" data-name="Rectángulo 3467" width="2.743" height="40.479" transform="translate(7.342)" fill="#fff"/>
                <rect id="Rectángulo_3468" data-name="Rectángulo 3468" width="2.743" height="40.479" transform="translate(14.685)" fill="#fff"/>
                <rect id="Rectángulo_3469" data-name="Rectángulo 3469" width="2.743" height="40.479" transform="translate(22.027)" fill="#fff"/>
              </g>
            </g>
          </g>
          <g id="Grupo_4048" data-name="Grupo 4048" transform="translate(-36.045 177.729)">
            <path id="Trazado_17213" data-name="Trazado 17213" d="M-99.1-234.023h9.289s-.59-5.056-.951-6.146c-.344-1.052-.676-2.615-3.693-2.615-2.746,0-3.534,1.382-3.824,2.615S-99.1-234.023-99.1-234.023Z" transform="translate(155.725 242.783)" fill="#fff"/>
            <path id="Trazado_17214" data-name="Trazado 17214" d="M-121.608-224.49h-9.868l1.308-5.4h8.56Z" transform="translate(133.7 252.919)" fill="#ed5933"/>
            <path id="Trazado_17215" data-name="Trazado 17215" d="M1.054-202.71a13.95,13.95,0,0,0-.615-9.08,17.241,17.241,0,0,0-.813-1.8,20.875,20.875,0,0,0-3.925-4.5,18.435,18.435,0,0,0-4.616-2.124c-3.349-1.031-13.772-2.293-13.772-2.293L-32-223.4l-7.387-4.392S-47.25-232.607-50-233.937a48.835,48.835,0,0,0-17.65-4.1c-12.588,0-19.284.243-25.511,1.763-3.5.855-13.6,4.861-13.6,4.861l-11.408,4.252s-7.683-.616-9.691.816c-.736.527-1.563,3.354-1.563,3.354l6.484.139-1.249,4.113-6.174.246-1.02,1.929a12.24,12.24,0,0,0-1.227,7.887c.455,2.493,1.242,5.29,2.559,6.292,1.779,1.354,13.908,2.127,13.908,2.127s-.867-13.495,11.319-13.82A11.125,11.125,0,0,1-93.624-205c.234,1.457.462,5.888.462,5.888l61.15.98h0l.015,0v-.75c.15-4.343,1.538-14.706,12.423-14.706,12,0,11.312,15.393,11.312,15.393s5.9-.3,7.656-1.656A5.529,5.529,0,0,0,1.054-202.71Z" transform="translate(132.8 246.512)"/>
            <path id="Trazado_17216" data-name="Trazado 17216" d="M-85.18-226.376l-.586-10.1s-9.738-.071-13.8.822a33.758,33.758,0,0,0-7.852,3.743A43.317,43.317,0,0,0-113.728-227Z" transform="translate(145.775 247.736)" fill="#272425"/>
            <path id="Trazado_17217" data-name="Trazado 17217" d="M-93.279-225.877-94.6-236.52a45.542,45.542,0,0,1,10.2,1.361c7.071,1.843,18.492,10.762,18.492,10.762Z" transform="translate(158.79 247.706)" fill="#272425"/>
            <line id="Línea_204" data-name="Línea 204" x2="1.742" y2="21.415" transform="translate(65.512 21.827)" fill="none" stroke="#c9c9c9" stroke-miterlimit="10" stroke-width="0.5"/>
            <line id="Línea_205" data-name="Línea 205" x2="61.861" y2="1.075" transform="translate(39.331 42.883)" fill="none" stroke="#c9c9c9" stroke-miterlimit="10" stroke-width="0.5"/>
            <line id="Línea_206" data-name="Línea 206" x2="3.005" y2="20.111" transform="translate(92.885 23.309)" fill="none" stroke="#c9c9c9" stroke-miterlimit="10" stroke-width="0.5"/>
            <line id="Línea_207" data-name="Línea 207" x2="0.653" y2="12.365" transform="translate(32.047 20.736)" fill="none" stroke="#c9c9c9" stroke-miterlimit="10" stroke-width="0.5"/>
            <rect id="Rectángulo_3503" data-name="Rectángulo 3503" width="5.197" height="2.008" transform="translate(35.637 25.73)" fill="#9b9b9b" stroke="rgba(0,0,0,0)" stroke-width="1"/>
            <rect id="Rectángulo_3504" data-name="Rectángulo 3504" width="5.197" height="2.008" transform="translate(68.899 25.73)" fill="#c9c9c9"/>
            <path id="Trazado_17218" data-name="Trazado 17218" d="M-53.569-226.865h-5.943a.929.929,0,0,0-.65,1.532h0a13,13,0,0,0,10.228,4.783l1.1-.021A14.585,14.585,0,0,0-53.569-226.865Z" transform="translate(182.069 255.294)" fill="#fff"/>
            <g id="Grupo_3755" data-name="Grupo 3755" transform="translate(17.962 33.835)">
              <path id="Trazado_17219" data-name="Trazado 17219" d="M-101.613-212.911c0,6.031-4.587,10.925-10.248,10.925s-10.249-4.894-10.249-10.925,4.587-10.927,10.249-10.927S-101.613-218.948-101.613-212.911Z" transform="translate(122.11 223.838)" fill="#272425"/>
              <path id="Trazado_17220" data-name="Trazado 17220" d="M-109.906-215.683a4.5,4.5,0,0,1-4.345,4.633,4.5,4.5,0,0,1-4.345-4.633,4.5,4.5,0,0,1,4.345-4.631A4.5,4.5,0,0,1-109.906-215.683Z" transform="translate(124.5 226.608)" fill="#cfd1d2"/>
            </g>
            <g id="Grupo_3756" data-name="Grupo 3756" transform="translate(102.488 33.835)">
              <path id="Trazado_17221" data-name="Trazado 17221" d="M-51.311-212.911c0,6.031-4.589,10.925-10.248,10.925s-10.248-4.894-10.248-10.925,4.587-10.927,10.248-10.927S-51.311-218.948-51.311-212.911Z" transform="translate(71.808 223.838)" fill="#272425"/>
              <path id="Trazado_17222" data-name="Trazado 17222" d="M-59.6-215.683a4.5,4.5,0,0,1-4.345,4.633,4.5,4.5,0,0,1-4.345-4.633,4.5,4.5,0,0,1,4.345-4.631A4.5,4.5,0,0,1-59.6-215.683Z" transform="translate(74.198 226.608)" fill="#cfd1d2"/>
            </g>
          </g>
        </g>
      </g>
    </g>
    <g id="Grupo_3728" data-name="Grupo 3728" transform="translate(0 0.001)">
      <g id="Grupo_3711" data-name="Grupo 3711" transform="translate(193.28 0)">
        <g id="Grupo_3709" data-name="Grupo 3709" transform="translate(0)">
          <g id="Grupo_3708" data-name="Grupo 3708">
            <path id="Unión_3" data-name="Unión 3" d="M13.9,56.66,5.019,61.2l2.5-10.14a30.791,30.791,0,1,1,6.376,5.6Z" transform="translate(0 0)" fill="#5b211f" stroke="rgba(0,0,0,0)" stroke-miterlimit="10" stroke-width="1"/>
          </g>
        </g>
        <g id="Grupo_3710" data-name="Grupo 3710" transform="translate(11.192 21.646)">
          <path id="Trazado_17042" data-name="Trazado 17042" d="M43.915-365.507v6.3a.787.787,0,0,1-.787.787h-6.3a.787.787,0,0,1-.785-.787v-6.3a.787.787,0,0,0-.787-.787h-6.3a.787.787,0,0,0-.787.784l-.025,6.3a.785.785,0,0,1-.785.784h-6.27a.787.787,0,0,1-.787-.787v-6.3a.787.787,0,0,0-.785-.787h-6.3a.787.787,0,0,0-.787.787h0v6.3a.787.787,0,0,1-.787.787h-6.3a.787.787,0,0,1-.787-.787v-6.249a.788.788,0,0,1,.782-.787l6.306-.041a.786.786,0,0,0,.782-.787v-6.3a.787.787,0,0,1,.787-.787h6.3a.787.787,0,0,1,.785.787v6.3a.787.787,0,0,0,.787.787h6.294a.787.787,0,0,0,.787-.787v0l-.025-6.29a.79.79,0,0,1,.785-.791h6.326a.787.787,0,0,1,.787.787v6.3a.786.786,0,0,0,.785.787h6.3A.787.787,0,0,1,43.915-365.507Z" transform="translate(-4.564 374.164)" fill="#fff" fill-rule="evenodd"/>
        </g>
      </g>
      <g id="Grupo_3727" data-name="Grupo 3727" transform="translate(0 48.656)">
        <g id="Grupo_3712" data-name="Grupo 3712" transform="translate(102.808 186.98)">
          <path id="Trazado_17043" data-name="Trazado 17043" d="M-33.234-255.093l-18.771,100.2H-4.114l6.357-30.667,3.479,30.667h50.27s1.368-78.038-17.6-91.939Z" transform="translate(52.005 255.093)" fill="#515050"/>
          <line id="Línea_200" data-name="Línea 200" x1="16.493" y1="8.568" transform="translate(37.754 60.969)" fill="none" stroke="#000" stroke-linecap="round" stroke-linejoin="round" stroke-width="0.452"/>
        </g>
        <g id="Grupo_3723" data-name="Grupo 3723" transform="translate(0 30.398)">
          <path id="Trazado_17044" data-name="Trazado 17044" d="M-2.231-311.107l30.444,1.718s7.226,1.52,11.027,27.581c4.581,31.418,2.182,94.532,2.182,94.532l-84.691,3.963-3.566-106.981,6.389-16.18,19.061-3.337Z" transform="translate(158.934 367.023)" fill="#5b211f"/>
          <g id="Grupo_3717" data-name="Grupo 3717">
            <path id="Trazado_17045" data-name="Trazado 17045" d="M-18.065-308.529s-9.4,1.4-20.533,15.741c-7.726,9.954-24.276,34.056-33.749,48.822a16.208,16.208,0,0,0,2.989,20.959h0c6.743,5.891,18.7,5.2,24.6-1.542l36.651-43.405Z" transform="translate(136.554 369.078)" fill="#5b211f"/>
            <g id="Grupo_3716" data-name="Grupo 3716">
              <g id="Grupo_3714" data-name="Grupo 3714" transform="translate(24.91 42.944)">
                <path id="Trazado_17046" data-name="Trazado 17046" d="M-61.049-289.091l20.27,23.164A18.209,18.209,0,0,1-42.57-239.75h0a18.21,18.21,0,0,1-28.44-6.772l-9.937-23.739Z" transform="translate(106.832 341.629)" fill="#5b211f"/>
                <g id="Grupo_3713" data-name="Grupo 3713">
                  <path id="Trazado_17047" data-name="Trazado 17047" d="M-81.512-318.325l41.4,64.662a15.032,15.032,0,0,1-4.459,20.822h0a15.031,15.031,0,0,1-21.96-6.707L-95.35-312.389Z" transform="translate(95.35 318.325)" fill="#ec9471"/>
                </g>
              </g>
              <g id="Grupo_3715" data-name="Grupo 3715">
                <path id="Trazado_17048" data-name="Trazado 17048" d="M-72.806-296.733s9.433-2.1,7.158-14.057l-2.967-15.452a2.77,2.77,0,0,0-3.569-2.113h0a2.768,2.768,0,0,0-1.914,2.433l-.678,8.973-12.844-23.7a3,3,0,0,0-4.471-.947h0a3,3,0,0,0-.859,3.709l7.442,15.049-1.134,1.227L-97.6-334.522a2.891,2.891,0,0,0-4.468.072h0a2.89,2.89,0,0,0,.052,3.663l10.747,12.747-1.087,1.456L-102.9-326.09a2.364,2.364,0,0,0-3.393.239h0a2.361,2.361,0,0,0,.189,3.231l10.885,10.3-.855,1.24-9.917-6.423a2.085,2.085,0,0,0-3.082,1.012h0a2.084,2.084,0,0,0,.746,2.442l11.372,8.028s5.251,16.189,13.344,13.975Z" transform="translate(109.211 342.221)" fill="#ec9471"/>
                <path id="Trazado_17049" data-name="Trazado 17049" d="M-86.7-328.159s-8.847,3-7.4,14.76" transform="translate(121.133 353.43)" fill="none" stroke="#000" stroke-linecap="round" stroke-linejoin="round" stroke-width="0.452"/>
              </g>
            </g>
          </g>
          <g id="Grupo_3722" data-name="Grupo 3722" transform="translate(163.826 57.498)">
            <g id="Grupo_3718" data-name="Grupo 3718" transform="translate(0)">
              <path id="Trazado_17050" data-name="Trazado 17050" d="M17.627-304.117,70.038-248.73,39.055-228.115l-50.268-45.738a20.91,20.91,0,0,1-3.123-27.364h0A20.91,20.91,0,0,1,17.627-304.117Z" transform="translate(18.052 310.227)" fill="#5b211f"/>
              <line id="Línea_201" data-name="Línea 201" x2="18.963" y2="17.734" transform="translate(18.369 46.527)" fill="none" stroke="#000" stroke-linecap="round" stroke-linejoin="round" stroke-width="0.452"/>
            </g>
            <g id="Grupo_3721" data-name="Grupo 3721" transform="translate(20.341 57.362)">
              <g id="Grupo_3720" data-name="Grupo 3720">
                <path id="Trazado_17051" data-name="Trazado 17051" d="M10.275-246.647l6.576-21.69c4.175-8.9,18.5-12.546,27.232-8.035h0a17.329,17.329,0,0,1,4.493,27.453l-17.149,17.7Z" transform="translate(20.293 278.309)" fill="#5b211f"/>
                <g id="Grupo_3719" data-name="Grupo 3719" transform="translate(0 17.277)">
                  <path id="Trazado_17052" data-name="Trazado 17052" d="M-6.734-206.179l35.018-56.273A14.3,14.3,0,0,1,48.2-266.179h0a14.3,14.3,0,0,1,2.171,21.74L1.758-190.819Z" transform="translate(6.734 268.695)" fill="#ec9471"/>
                </g>
              </g>
              <line id="Línea_202" data-name="Línea 202" x2="12.167" y2="22.898" transform="translate(0 79.793)" fill="none" stroke="#000" stroke-linecap="round" stroke-linejoin="round" stroke-width="0.452"/>
            </g>
          </g>
          <line id="Línea_203" data-name="Línea 203" x1="0.828" y1="23.247" transform="translate(112.674 95.57)" fill="none" stroke="#000" stroke-linecap="round" stroke-linejoin="round" stroke-width="0.452"/>
        </g>
        <g id="Grupo_3726" data-name="Grupo 3726" transform="translate(110.343)">
          <path id="Trazado_17053" data-name="Trazado 17053" d="M-10.609-328.754l2.768,30.789a6.975,6.975,0,0,1-2.248,5.78l-19.224,17.627-3.56-17.373-1.148-37.588Z" transform="translate(58.805 382.743)" fill="#ec9471"/>
          <path id="Trazado_17054" data-name="Trazado 17054" d="M-16.279-331.277s5.023,16.78-17.114,30.324l-.367-14.94Z" transform="translate(59.014 381.342)" fill="#030907"/>
          <path id="Trazado_17055" data-name="Trazado 17055" d="M-31.493-331.5a7.988,7.988,0,0,1-7.681,8.235,7.9,7.9,0,0,1-7.952-7.9,7.992,7.992,0,0,1,7.681-8.236A7.906,7.906,0,0,1-31.493-331.5Z" transform="translate(48.358 374.866)" fill="#db7d5d"/>
          <path id="Trazado_17056" data-name="Trazado 17056" d="M-26.188-293.068h0c-11-.521-18.653-9.771-18.514-19.062l.4-19.431c.174-11.644,9.263-21.075,20.54-21.314h0c11.543-.246,23.088,9.173,23.289,21.09L-.97-316.647C-1.4-303.016-12.982-293.35-26.188-293.068Z" transform="translate(50.29 364.121)" fill="#ec9471"/>
          <path id="Trazado_17057" data-name="Trazado 17057" d="M-3.623-311.988l-2.043-.275a1.46,1.46,0,0,1-1.256-1.589l.945-9.475s-6.915-2.031-4.753-12.8c0,0-25.1-11.247-31.055,7.877,0,0-6.968-2.875-2.471-9.467,0,0-9.365-9.435,2.306-17.594s34.135-2.293,42.862,8.6c0,0,29.154,5.228,7.942,33.283Z" transform="translate(47.812 359.135)" fill="#030907"/>
          <g id="Grupo_3724" data-name="Grupo 3724" transform="translate(43.643 39.582)">
            <ellipse id="Elipse_471" data-name="Elipse 471" cx="7.993" cy="7.741" rx="7.993" ry="7.741" transform="translate(0 15.966) rotate(-87.102)" fill="#ec9471"/>
            <path id="Trazado_17058" data-name="Trazado 17058" d="M-20.483-327.672s-1-7.248,5.382-6.43" transform="translate(25.909 339.456)" fill="none" stroke="#000" stroke-linecap="round" stroke-linejoin="round" stroke-width="0.452"/>
          </g>
          <g id="Grupo_3725" data-name="Grupo 3725" transform="translate(5.885 35.38)">
            <path id="Trazado_17059" data-name="Trazado 17059" d="M-38.837-333.1l-.653,4.977,2.643.185" transform="translate(48.562 344.508)" fill="none" stroke="#000" stroke-linecap="round" stroke-linejoin="round" stroke-width="0.452"/>
            <path id="Trazado_17060" data-name="Trazado 17060" d="M-29.988-339.38s-4.372-.51-4.475,1.33c0,0-.036,1.247,3.781,1.617s4.822.111,5.208-1.049S-27.932-339.3-29.988-339.38Z" transform="translate(52.569 339.451)" fill="#030907"/>
            <path id="Trazado_17061" data-name="Trazado 17061" d="M-40.874-339.433s3.63-.271,3.871,1.468c0,0,.135,1.177-3.043,1.342s-4.195-.286-4.464-1.24C-44.813-338.946-42.6-339.46-40.874-339.433Z" transform="translate(44.538 339.449)" fill="#030907"/>
            <path id="Trazado_17062" data-name="Trazado 17062" d="M-39.573-333.657a1.875,1.875,0,0,1-1.84,1.9,1.866,1.866,0,0,1-1.842-1.9,1.879,1.879,0,0,1,1.842-1.907A1.867,1.867,0,0,1-39.573-333.657Z" transform="translate(45.56 342.552)" fill="#030907"/>
            <path id="Trazado_17063" data-name="Trazado 17063" d="M-30.273-333.68a1.875,1.875,0,0,1-1.84,1.9,1.868,1.868,0,0,1-1.842-1.9,1.877,1.877,0,0,1,1.842-1.9A1.866,1.866,0,0,1-30.273-333.68Z" transform="translate(52.974 342.534)" fill="#030907"/>
            <path id="Trazado_17064" data-name="Trazado 17064" d="M-31.844-328.812s-2.834,3.409-6.576,1.921" transform="translate(49.414 347.928)" fill="none" stroke="#000" stroke-linecap="round" stroke-linejoin="round" stroke-width="0.452"/>
          </g>
        </g>
      </g>
    </g>
  </g>
</svg>
