<svg id="_3_Onboarding_image" data-name="3_Onboarding  image" xmlns="http://www.w3.org/2000/svg" xmlns:xlink="http://www.w3.org/1999/xlink" width="292.075" height="335.846" viewBox="0 0 292.075 335.846">
  <defs>
    <clipPath id="clip-path">
      <path id="Trazado_16950" data-name="Trazado 16950" d="M-762.425-149.949-744.743,6.479A40.7,40.7,0,0,0-704.049,46.5h149.4a40.7,40.7,0,0,0,39.833-32.342l43.956-219.635a22.967,22.967,0,0,0-28.476-26.885l-236.428,46.975A36.09,36.09,0,0,0-762.425-149.949Z" transform="translate(762.43 233.182)" fill="none"/>
    </clipPath>
    <linearGradient id="linear-gradient" x1="0.5" x2="0.5" y2="1" gradientUnits="objectBoundingBox">
      <stop offset="0" stop-color="#ffcf00"/>
      <stop offset="1" stop-color="#ff9100"/>
    </linearGradient>
    <linearGradient id="linear-gradient-4" x1="0.5" x2="0.5" y2="1" gradientUnits="objectBoundingBox">
      <stop offset="0" stop-color="#208dfe"/>
      <stop offset="1" stop-color="#3a56ff"/>
    </linearGradient>
  </defs>
  <g id="Grupo_3611" data-name="Grupo 3611" transform="translate(0 56.166)">
    <path id="Trazado_16939" data-name="Trazado 16939" d="M-762.425-149.949-744.743,6.479A40.7,40.7,0,0,0-704.049,46.5h149.4a40.7,40.7,0,0,0,39.833-32.342l43.956-219.635a22.967,22.967,0,0,0-28.476-26.885l-236.428,46.975A36.09,36.09,0,0,0-762.425-149.949Z" transform="translate(762.43 233.182)" fill="#e9efff"/>
    <g id="Grupo_3610" data-name="Grupo 3610">
      <g id="Grupo_3609" data-name="Grupo 3609" clip-path="url(#clip-path)">
        <g id="Grupo_3605" data-name="Grupo 3605" transform="translate(-28.173 134.899)">
          <rect id="Rectángulo_3375" data-name="Rectángulo 3375" width="311.253" height="39.19" transform="translate(311.253 149.074) rotate(180)" fill="#d3dfff"/>
          <g id="Grupo_3589" data-name="Grupo 3589" transform="translate(8.679 41.949)">
            <rect id="Rectángulo_3376" data-name="Rectángulo 3376" width="21.23" height="27.318" transform="translate(253.932 43.28) rotate(180)" fill="#adc6fe"/>
            <rect id="Rectángulo_3377" data-name="Rectángulo 3377" width="21.23" height="38.819" transform="translate(123.424 38.819) rotate(180)" fill="#adc6fe"/>
            <rect id="Rectángulo_3378" data-name="Rectángulo 3378" width="22.642" height="25.826" transform="translate(63.345 38.819) rotate(180)" fill="#adc6fe"/>
            <rect id="Rectángulo_3379" data-name="Rectángulo 3379" width="21.23" height="27.318" transform="translate(205.859 33.792) rotate(180)" fill="#adc6fe"/>
            <rect id="Rectángulo_3380" data-name="Rectángulo 3380" width="21.23" height="27.319" transform="translate(165.691 48.577) rotate(180)" fill="#adc6fe"/>
            <rect id="Rectángulo_3381" data-name="Rectángulo 3381" width="302.574" height="35.846" transform="translate(302.574 67.936) rotate(180)" fill="#adc6fe"/>
            <rect id="Rectángulo_3382" data-name="Rectángulo 3382" width="48.817" height="27.318" transform="translate(302.749 32.089) rotate(180)" fill="#adc6fe"/>
          </g>
          <g id="Grupo_3594" data-name="Grupo 3594" transform="translate(169.019 20.63)">
            <rect id="Rectángulo_3383" data-name="Rectángulo 3383" width="32.337" height="89.255" transform="translate(32.337 89.255) rotate(180)" fill="#bed0fe"/>
            <g id="Grupo_3593" data-name="Grupo 3593" transform="translate(5.352 6.393)">
              <g id="Grupo_3590" data-name="Grupo 3590" transform="translate(0 0)">
                <rect id="Rectángulo_3384" data-name="Rectángulo 3384" width="6.429" height="12.651" transform="translate(22.606 12.651) rotate(180)" fill="#fff"/>
                <rect id="Rectángulo_3385" data-name="Rectángulo 3385" width="6.429" height="12.651" transform="translate(6.429 12.651) rotate(180)" fill="#fff"/>
              </g>
              <g id="Grupo_3591" data-name="Grupo 3591" transform="translate(0 19.287)">
                <rect id="Rectángulo_3386" data-name="Rectángulo 3386" width="6.429" height="12.651" transform="translate(22.606 12.651) rotate(180)" fill="#fff"/>
                <rect id="Rectángulo_3387" data-name="Rectángulo 3387" width="6.429" height="12.651" transform="translate(6.429 12.651) rotate(180)" fill="#fff"/>
              </g>
              <g id="Grupo_3592" data-name="Grupo 3592" transform="translate(0 38.575)">
                <rect id="Rectángulo_3388" data-name="Rectángulo 3388" width="6.429" height="12.651" transform="translate(22.606 12.651) rotate(180)" fill="#fff"/>
                <rect id="Rectángulo_3389" data-name="Rectángulo 3389" width="6.429" height="12.651" transform="translate(6.429 12.651) rotate(180)" fill="#fff"/>
              </g>
            </g>
          </g>
          <g id="Grupo_3598" data-name="Grupo 3598" transform="translate(123.797 31.18)">
            <rect id="Rectángulo_3390" data-name="Rectángulo 3390" width="32.337" height="78.704" transform="translate(32.337 78.704) rotate(180)" fill="#edd8c0"/>
            <g id="Grupo_3597" data-name="Grupo 3597" transform="translate(5.352 15.129)">
              <g id="Grupo_3595" data-name="Grupo 3595" transform="translate(0 0)">
                <rect id="Rectángulo_3391" data-name="Rectángulo 3391" width="6.429" height="12.651" transform="translate(22.606 12.651) rotate(180)" fill="#e0cab1"/>
                <rect id="Rectángulo_3392" data-name="Rectángulo 3392" width="6.429" height="12.651" transform="translate(6.429 12.651) rotate(180)" fill="#e0cab1"/>
              </g>
              <g id="Grupo_3596" data-name="Grupo 3596" transform="translate(0 19.287)">
                <rect id="Rectángulo_3393" data-name="Rectángulo 3393" width="6.429" height="12.651" transform="translate(22.606 12.651) rotate(180)" fill="#e0cab1"/>
                <rect id="Rectángulo_3394" data-name="Rectángulo 3394" width="6.429" height="12.651" transform="translate(6.429 12.651) rotate(180)" fill="#e0cab1"/>
              </g>
            </g>
          </g>
          <g id="Grupo_3601" data-name="Grupo 3601" transform="translate(213.54 0)">
            <g id="Grupo_3599" data-name="Grupo 3599" transform="translate(0)">
              <rect id="Rectángulo_3395" data-name="Rectángulo 3395" width="39.008" height="109.884" transform="translate(39.008 109.884) rotate(180)" fill="#bed0fe"/>
            </g>
            <g id="Grupo_3600" data-name="Grupo 3600" transform="translate(6.437 14.717)">
              <rect id="Rectángulo_3396" data-name="Rectángulo 3396" width="2.935" height="43.322" transform="translate(26.51 43.322) rotate(180)" fill="#fff"/>
              <rect id="Rectángulo_3397" data-name="Rectángulo 3397" width="2.935" height="43.322" transform="translate(18.652 43.322) rotate(180)" fill="#fff"/>
              <rect id="Rectángulo_3398" data-name="Rectángulo 3398" width="2.935" height="43.322" transform="translate(10.794 43.322) rotate(180)" fill="#fff"/>
              <rect id="Rectángulo_3399" data-name="Rectángulo 3399" width="2.935" height="43.322" transform="translate(2.935 43.322) rotate(180)" fill="#fff"/>
            </g>
          </g>
          <g id="Grupo_3604" data-name="Grupo 3604" transform="translate(71.865 0)">
            <g id="Grupo_3602" data-name="Grupo 3602" transform="translate(0)">
              <rect id="Rectángulo_3400" data-name="Rectángulo 3400" width="39.008" height="109.884" transform="translate(39.008 109.884) rotate(180)" fill="#bed0fe"/>
            </g>
            <g id="Grupo_3603" data-name="Grupo 3603" transform="translate(6.436 14.717)">
              <rect id="Rectángulo_3401" data-name="Rectángulo 3401" width="2.936" height="43.322" transform="translate(26.51 43.322) rotate(180)" fill="#fff"/>
              <rect id="Rectángulo_3402" data-name="Rectángulo 3402" width="2.936" height="43.322" transform="translate(18.652 43.322) rotate(180)" fill="#fff"/>
              <rect id="Rectángulo_3403" data-name="Rectángulo 3403" width="2.936" height="43.322" transform="translate(10.794 43.322) rotate(180)" fill="#fff"/>
              <rect id="Rectángulo_3404" data-name="Rectángulo 3404" width="2.936" height="43.322" transform="translate(2.936 43.322) rotate(180)" fill="#fff"/>
            </g>
          </g>
        </g>
        <g id="Grupo_3608" data-name="Grupo 3608" transform="translate(179.433 193.77)">
          <path id="Trazado_16940" data-name="Trazado 16940" d="M-617.778-123h-10.634s.677-5.445,1.089-6.618c.4-1.133.775-2.816,4.228-2.816,3.145,0,4.047,1.489,4.378,2.816S-617.778-123-617.778-123Z" transform="translate(706.749 132.438)" fill="#fff"/>
          <path id="Trazado_16941" data-name="Trazado 16941" d="M-596.384-113.73h11.295l-1.5-5.813h-9.8Z" transform="translate(736.323 144.345)" fill="#ed5933"/>
          <path id="Trazado_16942" data-name="Trazado 16942" d="M-668.574-89.646a14.185,14.185,0,0,1,.706-9.779,18.333,18.333,0,0,1,.931-1.937,22.951,22.951,0,0,1,4.491-4.843,21.869,21.869,0,0,1,5.286-2.287c3.831-1.108,15.764-2.468,15.764-2.468l10.656-.969,8.453-4.732s9.005-5.184,12.154-6.616a58.779,58.779,0,0,1,20.2-4.416c14.408,0,22.071.26,29.2,1.9,4,.921,15.564,5.235,15.564,5.235l13.058,4.58s8.794-.665,11.09.879c.843.565,1.789,3.612,1.789,3.612l-7.42.15,1.429,4.43,7.065.263,1.169,2.077a12.493,12.493,0,0,1,1.4,8.494c-.519,2.687-1.421,5.7-2.927,6.778-2.039,1.458-15.922,2.291-15.922,2.291s.994-14.533-12.954-14.885c-6.993-.175-11.977,4.891-12.814,9.777-.269,1.568-.529,6.34-.529,6.34l-69.995,1.058h-.017v-.806c-.171-4.68-1.762-15.839-14.22-15.839-13.739,0-12.95,16.58-12.95,16.58s-6.755-.325-8.761-1.785A5.881,5.881,0,0,1-668.574-89.646Z" transform="translate(669.14 136.82)" fill="url(#linear-gradient)"/>
          <path id="Trazado_16943" data-name="Trazado 16943" d="M-625.248-115.256l.671-10.879s11.144-.077,15.793.885a39.865,39.865,0,0,1,8.988,4.031,49.277,49.277,0,0,1,7.224,5.291Z" transform="translate(709.67 138.257)" fill="#272425"/>
          <path id="Trazado_16944" data-name="Trazado 16944" d="M-613.133-114.715l1.51-11.46a55.3,55.3,0,0,0-11.673,1.464c-8.094,1.987-21.169,11.592-21.169,11.592Z" transform="translate(691.925 138.221)" fill="#272425"/>
          <line id="Línea_186" data-name="Línea 186" x1="1.994" y2="23.062" transform="translate(76.799 23.506)" fill="none" stroke="#efac06" stroke-miterlimit="10" stroke-width="0.5"/>
          <line id="Línea_187" data-name="Línea 187" x1="70.809" y2="1.158" transform="translate(37.952 46.182)" fill="none" stroke="#efac06" stroke-miterlimit="10" stroke-width="0.5"/>
          <line id="Línea_188" data-name="Línea 188" x1="3.439" y2="21.658" transform="translate(44.022 25.102)" fill="none" stroke="#efac06" stroke-miterlimit="10" stroke-width="0.5"/>
          <line id="Línea_189" data-name="Línea 189" x1="0.747" y2="13.316" transform="translate(116.352 22.331)" fill="none" stroke="#efac06" stroke-miterlimit="10" stroke-width="0.5"/>
          <rect id="Rectángulo_3405" data-name="Rectángulo 3405" width="5.949" height="2.163" transform="translate(112.989 29.872) rotate(180)" fill="#efac06"/>
          <rect id="Rectángulo_3406" data-name="Rectángulo 3406" width="5.949" height="2.163" transform="translate(74.916 29.872) rotate(180)" fill="#efac06"/>
          <path id="Trazado_16945" data-name="Trazado 16945" d="M-663.057-116.521h6.8a.994.994,0,0,1,.744,1.652h0a15.273,15.273,0,0,1-11.708,5.149l-1.264-.021A15.757,15.757,0,0,1-663.057-116.521Z" transform="translate(669.751 147.136)" fill="#fff"/>
          <g id="Grupo_3606" data-name="Grupo 3606" transform="translate(109.757 36.439)">
            <path id="Trazado_16946" data-name="Trazado 16946" d="M-612.076-101.728a11.751,11.751,0,0,0,11.733,11.765,11.75,11.75,0,0,0,11.731-11.765,11.748,11.748,0,0,0-11.731-11.765A11.748,11.748,0,0,0-612.076-101.728Z" transform="translate(612.076 113.493)" fill="#272425"/>
            <path id="Trazado_16947" data-name="Trazado 16947" d="M-608.562-104.981a4.98,4.98,0,0,0,4.974,4.987,4.981,4.981,0,0,0,4.974-4.987,4.981,4.981,0,0,0-4.974-4.989A4.98,4.98,0,0,0-608.562-104.981Z" transform="translate(615.321 116.746)" fill="#cfd1d2"/>
          </g>
          <g id="Grupo_3607" data-name="Grupo 3607" transform="translate(13.008 36.439)">
            <path id="Trazado_16948" data-name="Trazado 16948" d="M-662.377-101.728a11.749,11.749,0,0,0,11.731,11.765,11.749,11.749,0,0,0,11.731-11.765,11.747,11.747,0,0,0-11.731-11.765A11.747,11.747,0,0,0-662.377-101.728Z" transform="translate(662.377 113.493)" fill="#272425"/>
            <path id="Trazado_16949" data-name="Trazado 16949" d="M-658.864-104.981a4.981,4.981,0,0,0,4.974,4.987,4.981,4.981,0,0,0,4.974-4.987,4.981,4.981,0,0,0-4.974-4.989A4.981,4.981,0,0,0-658.864-104.981Z" transform="translate(665.621 116.746)" fill="#cfd1d2"/>
          </g>
        </g>
      </g>
    </g>
  </g>
  <g id="Grupo_3631" data-name="Grupo 3631" transform="translate(17.941)">
    <g id="Grupo_3629" data-name="Grupo 3629" transform="translate(0 27.953)">
      <g id="Grupo_3613" data-name="Grupo 3613" transform="translate(43.832 186.075)">
        <g id="Grupo_3612" data-name="Grupo 3612">
          <path id="Trazado_16951" data-name="Trazado 16951" d="M-713.043-151.107s-14.706,21.121-15.843,90.367l-1.427,31.451h48.552L-670.5-86.91l8.834-64.2Z" transform="translate(730.313 151.107)" fill="url(#linear-gradient)"/>
          <path id="Trazado_16952" data-name="Trazado 16952" d="M-672-151.107s7.661,30.542,14.191,80.01l5.572,41.809h-44.919l-7.615-121.818Z" transform="translate(753.9 151.107)" fill="url(#linear-gradient)"/>
        </g>
        <path id="Trazado_16953" data-name="Trazado 16953" d="M-701.845-80.392l5.659-39.247,14.7-10.506" transform="translate(756.601 170.463)" fill="none" stroke="#000" stroke-linecap="round" stroke-linejoin="round" stroke-width="0.452"/>
      </g>
      <g id="Grupo_3624" data-name="Grupo 3624" transform="translate(0 78.995)">
        <g id="Grupo_3618" data-name="Grupo 3618" transform="translate(86.618 5.762)">
          <g id="Grupo_3617" data-name="Grupo 3617" transform="translate(8.851 3.4)">
            <path id="Trazado_16954" data-name="Trazado 16954" d="M-587.372-164.764a12.79,12.79,0,0,0-17.847-2.945l-34.954,25.054-31.249-46.152c-.24-.352-.517-.733-.787-1.071a17.527,17.527,0,0,0-24.625-2.829,17.528,17.528,0,0,0-2.831,24.627l43.78,55.15.719.906.148.181a14.325,14.325,0,0,0,20.173,1.885l40.4-39.928C-589.343-154.137-583.44-159.281-587.372-164.764Z" transform="translate(703.466 207.101)" fill="#ec9471"/>
            <g id="Grupo_3616" data-name="Grupo 3616" transform="translate(90.394)">
              <g id="Grupo_3614" data-name="Grupo 3614" transform="translate(0.661 16.579)">
                <path id="Trazado_16955" data-name="Trazado 16955" d="M-644.44-187.825l27.151,7.921s0,21.044-25.045,24.848c-1.371.208-7.534-2.152-8.6-3.095l-4.168-11.881a5.064,5.064,0,0,1,.3-6.478Z" transform="translate(656.126 198.54)" fill="#ec9471"/>
                <path id="Trazado_16956" data-name="Trazado 16956" d="M-651.218-179.18l9.6-12.61a3.928,3.928,0,0,1,5.483-.831h0a4.007,4.007,0,0,1,.579,5.393l-8.871,13.833Z" transform="translate(660.657 193.396)" fill="#ebb3a2"/>
                <path id="Trazado_16957" data-name="Trazado 16957" d="M-645.182-174.676l11.54-11.388a3.738,3.738,0,0,1,5.322-.365h0a3.986,3.986,0,0,1-.185,5.309l-11.01,12.641Z" transform="translate(666.231 198.951)" fill="#ebb3a2"/>
                <path id="Trazado_16958" data-name="Trazado 16958" d="M-647.492-179.054l10.9-10.771a3.829,3.829,0,0,1,5.484-.154h0a4.11,4.11,0,0,1-.058,5.48l-10.325,12.089Z" transform="translate(664.098 195.551)" fill="#ebb3a2"/>
              </g>
              <g id="Grupo_3615" data-name="Grupo 3615" transform="translate(5.337)">
                <path id="Trazado_16959" data-name="Trazado 16959" d="M-630.529-202.015l4.322.28v28.377L-641.378-149.6l-4.612-.376,8.138-29.842Z" transform="translate(660.809 202.016)" fill="#36438f"/>
                <path id="Trazado_16960" data-name="Trazado 16960" d="M-650.868-162.76l12.679,11.954a2.864,2.864,0,0,0,4.5-.04l27.608-34.458a2.381,2.381,0,0,0-.025-2.951l-13.3-12.725a2.382,2.382,0,0,0-3.739.033l-27.749,34.64A2.861,2.861,0,0,0-650.868-162.76Z" transform="translate(655.72 202.15)" fill="#030907"/>
                <path id="Trazado_16961" data-name="Trazado 16961" d="M-653.063-162.9l12.681,11.952a2.862,2.862,0,0,0,4.495-.04l27.608-34.458a2.384,2.384,0,0,0-.027-2.95l-13.3-12.725a2.38,2.38,0,0,0-3.737.033l-27.749,34.64A2.864,2.864,0,0,0-653.063-162.9Z" transform="translate(653.694 202.016)" fill="#fff"/>
              </g>
              <path id="Trazado_16962" data-name="Trazado 16962" d="M-651.851-163.379c-1.487-.731-5.2-4.6-4.541-10.467a33.171,33.171,0,0,1,4.851-13.568c1.323-2.485,2.858-3.689,5.014-3.387h0a4.091,4.091,0,0,1,3.414,4.535l-2.433,5.389s2.675,6.834-2.926,17.2Z" transform="translate(656.469 212.329)" fill="#ec9471"/>
            </g>
          </g>
          <path id="Trazado_16963" data-name="Trazado 16963" d="M-647.685-167.3l-19.667-29.168c-8.215-9.319-21.575-9.477-31.44-1.925h0a23.642,23.642,0,0,0-3.333,34.45l16.953,23.119Z" transform="translate(708.068 203.783)" fill="url(#linear-gradient-4)"/>
        </g>
        <g id="Grupo_3619" data-name="Grupo 3619" transform="translate(55.511)">
          <path id="Trazado_16964" data-name="Trazado 16964" d="M-690.143-206.779s-17.536.671-34.1,7.113l5.374,99.967h64.849l6.832-76.94c.733-8.967-4.991-20.105-14.045-25.154l-7.372-3.949Z" transform="translate(724.241 206.779)" fill="url(#linear-gradient-4)"/>
          <path id="Trazado_16965" data-name="Trazado 16965" d="M-687.1-191.707s4.824,10.152,3.547,24.55" transform="translate(758.534 220.696)" fill="none" stroke="#000" stroke-linecap="round" stroke-linejoin="round" stroke-width="0.452"/>
        </g>
        <g id="Grupo_3623" data-name="Grupo 3623" transform="translate(0 5.12)">
          <g id="Grupo_3620" data-name="Grupo 3620" transform="translate(4.261 60.74)">
            <path id="Trazado_16966" data-name="Trazado 16966" d="M-735.143-172.538l34.78,48.038-8.388,14.3-42.134-35.772Z" transform="translate(750.886 172.538)" fill="#ec9471"/>
            <path id="Trazado_16967" data-name="Trazado 16967" d="M-684.747-141.974l-17.788-5.7,1.027-3.868a3.232,3.232,0,0,0-1.5-3.626,3.234,3.234,0,0,0-3.982.579l-13.6,14.445-8.388,14.3c10.109,6.165,15.895,5.13,19,3.116.41.065.819.146,1.233.2l14.293,1.7a2.636,2.636,0,0,0,3.156-1.758c.306-.966.233-2.418-2.614-3.327l2.846.91a2.737,2.737,0,0,0,3.3-1.893c.4-1.256-.569-2.675-2.276-3.429l2.141.464a2.808,2.808,0,0,0,3.452-2.237,2.915,2.915,0,0,0-2.06-3.21l-3.143-1,3.585.277A3.049,3.049,0,0,0-682.5-138.6,3.16,3.16,0,0,0-684.747-141.974Z" transform="translate(771.114 188.178)" fill="#ec9471"/>
          </g>
          <g id="Grupo_3622" data-name="Grupo 3622">
            <path id="Trazado_16968" data-name="Trazado 16968" d="M-675.376-176.427l-53.369,54.534a13.425,13.425,0,0,1-16.578,4.385h0a13.425,13.425,0,0,1-5.641-19.442l45.223-56.773a15.42,15.42,0,0,1,20.577-5.068h0C-677.211-194.278-670.067-183.874-675.376-176.427Z" transform="translate(753.102 207.181)" fill="#ec9471"/>
            <g id="Grupo_3621" data-name="Grupo 3621" transform="translate(25.125)">
              <path id="Trazado_16969" data-name="Trazado 16969" d="M-701.14-143.816l19.961-24.471a23.645,23.645,0,0,0-6.582-31.582h0c-11.213-7.913-24.26-4.33-33.877,7.1l-18.4,22.054Z" transform="translate(740.039 204.117)" fill="url(#linear-gradient-4)"/>
              <path id="Trazado_16970" data-name="Trazado 16970" d="M-722.856-164.489l4.129,3.11,18.381-24.719" transform="translate(755.906 220.755)" stroke="#000" stroke-linecap="round" stroke-linejoin="round" stroke-width="0.452" fill="url(#linear-gradient-4)"/>
            </g>
          </g>
        </g>
      </g>
      <g id="Grupo_3628" data-name="Grupo 3628" transform="translate(70.304)">
        <path id="Trazado_16971" data-name="Trazado 16971" d="M-666.613-226.577s7.923,23.29.6,38.751l-29.276-12.808Z" transform="translate(736.184 267.493)" fill="#4d2714"/>
        <path id="Trazado_16972" data-name="Trazado 16972" d="M-671.657-203.613l-12.262,32.361-21.646-11.829a3.251,3.251,0,0,1-1.373-4.2l18.924-41.078Z" transform="translate(725.15 265.846)" fill="#ec9471"/>
        <path id="Trazado_16973" data-name="Trazado 16973" d="M-688.7-200.99l-5.484-15.941,9.316,5.827Z" transform="translate(737.201 276.4)" fill="#030907"/>
        <path id="Trazado_16974" data-name="Trazado 16974" d="M-664.894-242.085s11.925,3.5,10.733,18.892c0,0-.987,11.142-2.539,27.168-.82,8.469-11.317,13.635-19.344,10.813-4.914-1.729-8.278-3.747-12.808-8.207l-6.247-7.447c-14.2-20.375,4.424-47.96,28.458-41.707Q-665.778-242.352-664.894-242.085Z" transform="translate(731.804 251.888)" fill="#ec9471"/>
        <path id="Trazado_16975" data-name="Trazado 16975" d="M-676.71-225.629l4.547,7.653a1.242,1.242,0,0,1-.975,2.033l-5.6-.083Z" transform="translate(751.466 268.368)" fill="#ec9471"/>
        <g id="Grupo_3626" data-name="Grupo 3626" transform="translate(64.939 32.905)">
          <g id="Grupo_3625" data-name="Grupo 3625">
            <path id="Trazado_16976" data-name="Trazado 16976" d="M-677.959-230.688s4.46-.431,4.276,1.15c0,0-.16,1.073-4.041,1.383s-4.847.087-5.053-.912S-680.031-230.627-677.959-230.688Z" transform="translate(682.787 230.742)" fill="#030907"/>
            <path id="Trazado_16977" data-name="Trazado 16977" d="M-680-225.24a1.76,1.76,0,0,0,1.108,2.222,1.752,1.752,0,0,0,2.181-1.175,1.76,1.76,0,0,0-1.108-2.223A1.751,1.751,0,0,0-680-225.24Z" transform="translate(685.286 234.662)" fill="#030907"/>
          </g>
          <path id="Trazado_16978" data-name="Trazado 16978" d="M-681.787-219.981a6.313,6.313,0,0,0,5.485,2.637" transform="translate(683.711 240.678)" fill="none" stroke="#000" stroke-linecap="round" stroke-linejoin="round" stroke-width="0.452"/>
        </g>
        <path id="Trazado_16979" data-name="Trazado 16979" d="M-678.379-212.564s-2.708-38.06,27.57-19.044c0,0-8.988-23.083-38.728-14.214-6.228,1.858-14.235,9.58-16.1,15.806-3.025,10.071,1.629,19.544,8.809,36.816l12.277-11.194C-683.6-206.893-678.379-212.564-678.379-212.564Z" transform="translate(725.758 247.85)" fill="#4d2714"/>
        <path id="Trazado_16980" data-name="Trazado 16980" d="M-672.364-247.7s-36.227-2.975-44.186,56.413l37.208,17.99s2.077-32.671,10.171-39.389l4.247-12.893Z" transform="translate(716.55 247.969)" fill="#4d2714"/>
        <path id="Trazado_16981" data-name="Trazado 16981" d="M-655.238-230.052s-7.444,15.9-28.551,18.088l-14.331-20.124,22.581-15.089S-660.746-243.031-655.238-230.052Z" transform="translate(733.568 248.47)" fill="#4d2714"/>
        <g id="Grupo_3627" data-name="Grupo 3627" transform="translate(34.049 31.508)">
          <path id="Trazado_16982" data-name="Trazado 16982" d="M-698.679-224.918a8.19,8.19,0,0,0,6.38,9.667,8.192,8.192,0,0,0,9.669-6.38,8.193,8.193,0,0,0-6.382-9.669A8.191,8.191,0,0,0-698.679-224.918Z" transform="translate(698.847 231.468)" fill="#ec9471"/>
          <path id="Trazado_16983" data-name="Trazado 16983" d="M-691.17-223.059s1.191-5.818-4.56-6.041" transform="translate(701.726 233.655)" fill="none" stroke="#000" stroke-linecap="round" stroke-linejoin="round" stroke-width="0.452"/>
        </g>
        <path id="Trazado_16984" data-name="Trazado 16984" d="M-706.925-205.318s10.471,14.935,23.144,14.106a2.921,2.921,0,0,0,2.672-3.187c-.185-1.737-1.108-4.462-3.653-8.719Z" transform="translate(725.438 287.124)" fill="#ec9471"/>
      </g>
    </g>
    <g id="Grupo_3630" data-name="Grupo 3630" transform="translate(184.199)">
      <path id="Trazado_16985" data-name="Trazado 16985" d="M-602.592-235.011c0-20.355-22.219-35.521-43.728-22.565a20.778,20.778,0,0,0-5.622,5.445c-6.859,10.621-6.615,21.256-2.4,29.524l-.029,0,.221.4c.1.188.206.375.31.562l20.417,36.92a3.953,3.953,0,0,0,6.918,0l20.459-36.991c.081-.146.162-.288.24-.437l.11-.2h-.013A27.238,27.238,0,0,0-602.592-235.011Z" transform="translate(657.334 262.383)" fill="url(#linear-gradient-4)"/>
      <path id="Trazado_16986" data-name="Trazado 16986" d="M-626.7-242.983A11.083,11.083,0,0,1-637.784-231.9a11.083,11.083,0,0,1-11.081-11.083,11.081,11.081,0,0,1,11.081-11.081A11.082,11.082,0,0,1-626.7-242.983Z" transform="translate(665.155 270.064)" fill="#fff"/>
    </g>
  </g>
</svg>
