<svg xmlns="http://www.w3.org/2000/svg" xmlns:xlink="http://www.w3.org/1999/xlink" width="259" height="341.097" viewBox="0 0 259 341.097">
  <defs>
    <clipPath id="clip-path">
      <path id="Trazado_16998" data-name="Trazado 16998" d="M-235.248,214.408l-50.317,185.9A32.373,32.373,0,0,0-253.9,439.4H-59.653a32.371,32.371,0,0,0,32.372-32.372l-7.27-185.9A32.372,32.372,0,0,0-66.923,188.75H-203.58A32.373,32.373,0,0,0-235.248,214.408Z" transform="translate(286.281 -188.75)" fill="none"/>
    </clipPath>
  </defs>
  <g id="_2_Onboarding_image" data-name="2_Onboarding  image" transform="translate(0 0.555)">
    <g id="Grupo_3655" data-name="Grupo 3655" transform="translate(0 89.895)">
      <path id="Trazado_16987" data-name="Trazado 16987" d="M-235.248,214.408l-50.317,185.9A32.373,32.373,0,0,0-253.9,439.4H-59.653a32.371,32.371,0,0,0,32.372-32.372l-7.27-185.9A32.372,32.372,0,0,0-66.923,188.75H-203.58A32.373,32.373,0,0,0-235.248,214.408Z" transform="translate(286.281 -188.75)" fill="#2666fa" opacity="0.1"/>
      <g id="Grupo_3654" data-name="Grupo 3654">
        <g id="Grupo_3653" data-name="Grupo 3653" clip-path="url(#clip-path)">
          <g id="Grupo_3649" data-name="Grupo 3649" transform="translate(-19.136 121.404)">
            <rect id="Rectángulo_3407" data-name="Rectángulo 3407" width="294.122" height="37.033" transform="translate(0 103.836)" fill="#2666fa" opacity="0.11"/>
            <g id="Grupo_3633" data-name="Grupo 3633" transform="translate(0 39.64)" opacity="0.3">
              <rect id="Rectángulo_3408" data-name="Rectángulo 3408" width="20.061" height="25.815" transform="translate(45.964 15.083)" fill="#2666fa"/>
              <rect id="Rectángulo_3409" data-name="Rectángulo 3409" width="20.061" height="36.683" transform="translate(169.29)" fill="#2666fa"/>
              <rect id="Rectángulo_3410" data-name="Rectángulo 3410" width="26.849" height="24.404" transform="translate(226.062 12.278)" fill="#2666fa"/>
              <rect id="Rectángulo_3411" data-name="Rectángulo 3411" width="20.061" height="25.815" transform="translate(91.392 6.117)" fill="#2666fa"/>
              <rect id="Rectángulo_3412" data-name="Rectángulo 3412" width="20.061" height="25.815" transform="translate(129.349 20.089)" fill="#2666fa"/>
              <rect id="Rectángulo_3413" data-name="Rectángulo 3413" width="285.92" height="33.873" transform="translate(0 30.323)" fill="#2666fa"/>
              <rect id="Rectángulo_3414" data-name="Rectángulo 3414" width="20.061" height="25.815" transform="translate(25.903 4.508)" fill="#2666fa"/>
            </g>
            <g id="Grupo_3638" data-name="Grupo 3638" transform="translate(103.849 19.494)">
              <rect id="Rectángulo_3415" data-name="Rectángulo 3415" width="30.557" height="84.342" fill="#bed0fe"/>
              <g id="Grupo_3637" data-name="Grupo 3637" transform="translate(4.139 6.041)">
                <g id="Grupo_3634" data-name="Grupo 3634">
                  <rect id="Rectángulo_3416" data-name="Rectángulo 3416" width="6.075" height="11.955" fill="#fff"/>
                  <rect id="Rectángulo_3417" data-name="Rectángulo 3417" width="6.075" height="11.955" transform="translate(15.286)" fill="#fff"/>
                </g>
                <g id="Grupo_3635" data-name="Grupo 3635" transform="translate(0 18.226)">
                  <rect id="Rectángulo_3418" data-name="Rectángulo 3418" width="6.075" height="11.955" fill="#fff"/>
                  <rect id="Rectángulo_3419" data-name="Rectángulo 3419" width="6.075" height="11.955" transform="translate(15.286)" fill="#fff"/>
                </g>
                <g id="Grupo_3636" data-name="Grupo 3636" transform="translate(0 36.452)">
                  <rect id="Rectángulo_3420" data-name="Rectángulo 3420" width="6.075" height="11.955" fill="#fff"/>
                  <rect id="Rectángulo_3421" data-name="Rectángulo 3421" width="6.075" height="11.955" transform="translate(15.286)" fill="#fff"/>
                </g>
              </g>
            </g>
            <g id="Grupo_3642" data-name="Grupo 3642" transform="translate(146.581 29.464)">
              <rect id="Rectángulo_3422" data-name="Rectángulo 3422" width="30.557" height="74.372" fill="#edd8c0"/>
              <g id="Grupo_3641" data-name="Grupo 3641" transform="translate(4.139 14.297)">
                <g id="Grupo_3639" data-name="Grupo 3639">
                  <rect id="Rectángulo_3423" data-name="Rectángulo 3423" width="6.075" height="11.955" fill="#e0cab1"/>
                  <rect id="Rectángulo_3424" data-name="Rectángulo 3424" width="6.075" height="11.955" transform="translate(15.286)" fill="#e0cab1"/>
                </g>
                <g id="Grupo_3640" data-name="Grupo 3640" transform="translate(0 18.226)">
                  <rect id="Rectángulo_3425" data-name="Rectángulo 3425" width="6.075" height="11.955" fill="#e0cab1"/>
                  <rect id="Rectángulo_3426" data-name="Rectángulo 3426" width="6.075" height="11.955" transform="translate(15.286)" fill="#e0cab1"/>
                </g>
              </g>
            </g>
            <g id="Grupo_3645" data-name="Grupo 3645" transform="translate(55.474)">
              <g id="Grupo_3643" data-name="Grupo 3643" opacity="0.22">
                <rect id="Rectángulo_3427" data-name="Rectángulo 3427" width="36.861" height="103.836" fill="#2666fa"/>
              </g>
              <g id="Grupo_3644" data-name="Grupo 3644" transform="translate(5.728 13.907)">
                <rect id="Rectángulo_3428" data-name="Rectángulo 3428" width="2.774" height="40.938" fill="#fff"/>
                <rect id="Rectángulo_3429" data-name="Rectángulo 3429" width="2.774" height="40.938" transform="translate(7.426)" fill="#fff"/>
                <rect id="Rectángulo_3430" data-name="Rectángulo 3430" width="2.774" height="40.938" transform="translate(14.851)" fill="#fff"/>
                <rect id="Rectángulo_3431" data-name="Rectángulo 3431" width="2.774" height="40.938" transform="translate(22.277)" fill="#fff"/>
              </g>
            </g>
            <g id="Grupo_3648" data-name="Grupo 3648" transform="translate(189.351)">
              <g id="Grupo_3646" data-name="Grupo 3646">
                <rect id="Rectángulo_3432" data-name="Rectángulo 3432" width="36.861" height="103.836" fill="#edd8c0"/>
              </g>
              <g id="Grupo_3647" data-name="Grupo 3647" transform="translate(5.728 13.907)">
                <rect id="Rectángulo_3433" data-name="Rectángulo 3433" width="2.774" height="40.938" fill="#e0cab1"/>
                <rect id="Rectángulo_3434" data-name="Rectángulo 3434" width="2.774" height="40.938" transform="translate(7.426)" fill="#e0cab1"/>
                <rect id="Rectángulo_3435" data-name="Rectángulo 3435" width="2.774" height="40.938" transform="translate(14.851)" fill="#e0cab1"/>
                <rect id="Rectángulo_3436" data-name="Rectángulo 3436" width="2.774" height="40.938" transform="translate(22.277)" fill="#e0cab1"/>
              </g>
            </g>
          </g>
          <g id="Grupo_4054" data-name="Grupo 4054" transform="translate(-39.667 176.838)">
            <path id="Trazado_17213" data-name="Trazado 17213" d="M-99.1-234.023h9.289s-.59-5.056-.951-6.146c-.344-1.052-.676-2.615-3.693-2.615-2.746,0-3.534,1.382-3.824,2.615S-99.1-234.023-99.1-234.023Z" transform="translate(155.725 242.783)" fill="#fff"/>
            <path id="Trazado_17214" data-name="Trazado 17214" d="M-121.608-224.49h-9.868l1.308-5.4h8.56Z" transform="translate(133.7 252.919)" fill="#ed5933"/>
            <path id="Trazado_17215" data-name="Trazado 17215" d="M1.054-202.71a13.95,13.95,0,0,0-.615-9.08,17.241,17.241,0,0,0-.813-1.8,20.875,20.875,0,0,0-3.925-4.5,18.435,18.435,0,0,0-4.616-2.124c-3.349-1.031-13.772-2.293-13.772-2.293L-32-223.4l-7.387-4.392S-47.25-232.607-50-233.937a48.835,48.835,0,0,0-17.65-4.1c-12.588,0-19.284.243-25.511,1.763-3.5.855-13.6,4.861-13.6,4.861l-11.408,4.252s-7.683-.616-9.691.816c-.736.527-1.563,3.354-1.563,3.354l6.484.139-1.249,4.113-6.174.246-1.02,1.929a12.24,12.24,0,0,0-1.227,7.887c.455,2.493,1.242,5.29,2.559,6.292,1.779,1.354,13.908,2.127,13.908,2.127s-.867-13.495,11.319-13.82A11.125,11.125,0,0,1-93.624-205c.234,1.457.462,5.888.462,5.888l61.15.98h0l.015,0v-.75c.15-4.343,1.538-14.706,12.423-14.706,12,0,11.312,15.393,11.312,15.393s5.9-.3,7.656-1.656A5.529,5.529,0,0,0,1.054-202.71Z" transform="translate(132.8 246.512)"/>
            <path id="Trazado_17216" data-name="Trazado 17216" d="M-85.18-226.376l-.586-10.1s-9.738-.071-13.8.822a33.758,33.758,0,0,0-7.852,3.743A43.317,43.317,0,0,0-113.728-227Z" transform="translate(145.775 247.736)" fill="#272425"/>
            <path id="Trazado_17217" data-name="Trazado 17217" d="M-93.279-225.877-94.6-236.52a45.542,45.542,0,0,1,10.2,1.361c7.071,1.843,18.492,10.762,18.492,10.762Z" transform="translate(158.79 247.706)" fill="#272425"/>
            <line id="Línea_204" data-name="Línea 204" x2="1.742" y2="21.415" transform="translate(65.512 21.827)" fill="none" stroke="#c9c9c9" stroke-miterlimit="10" stroke-width="0.5"/>
            <line id="Línea_205" data-name="Línea 205" x2="61.861" y2="1.075" transform="translate(39.331 42.883)" fill="none" stroke="#c9c9c9" stroke-miterlimit="10" stroke-width="0.5"/>
            <line id="Línea_206" data-name="Línea 206" x2="3.005" y2="20.111" transform="translate(92.885 23.309)" fill="none" stroke="#c9c9c9" stroke-miterlimit="10" stroke-width="0.5"/>
            <line id="Línea_207" data-name="Línea 207" x2="0.653" y2="12.365" transform="translate(32.047 20.736)" fill="none" stroke="#c9c9c9" stroke-miterlimit="10" stroke-width="0.5"/>
            <rect id="Rectángulo_3503" data-name="Rectángulo 3503" width="5.197" height="2.008" transform="translate(35.637 25.73)" fill="#9b9b9b" stroke="rgba(0,0,0,0)" stroke-width="1"/>
            <rect id="Rectángulo_3504" data-name="Rectángulo 3504" width="5.197" height="2.008" transform="translate(68.899 25.73)" fill="#c9c9c9"/>
            <path id="Trazado_17218" data-name="Trazado 17218" d="M-53.569-226.865h-5.943a.929.929,0,0,0-.65,1.532h0a13,13,0,0,0,10.228,4.783l1.1-.021A14.585,14.585,0,0,0-53.569-226.865Z" transform="translate(182.069 255.294)" fill="#fff"/>
            <g id="Grupo_3755" data-name="Grupo 3755" transform="translate(17.962 33.835)">
              <path id="Trazado_17219" data-name="Trazado 17219" d="M-101.613-212.911c0,6.031-4.587,10.925-10.248,10.925s-10.249-4.894-10.249-10.925,4.587-10.927,10.249-10.927S-101.613-218.948-101.613-212.911Z" transform="translate(122.11 223.838)" fill="#272425"/>
              <path id="Trazado_17220" data-name="Trazado 17220" d="M-109.906-215.683a4.5,4.5,0,0,1-4.345,4.633,4.5,4.5,0,0,1-4.345-4.633,4.5,4.5,0,0,1,4.345-4.631A4.5,4.5,0,0,1-109.906-215.683Z" transform="translate(124.5 226.608)" fill="#cfd1d2"/>
            </g>
            <g id="Grupo_3756" data-name="Grupo 3756" transform="translate(102.488 33.835)">
              <path id="Trazado_17221" data-name="Trazado 17221" d="M-51.311-212.911c0,6.031-4.589,10.925-10.248,10.925s-10.248-4.894-10.248-10.925,4.587-10.927,10.248-10.927S-51.311-218.948-51.311-212.911Z" transform="translate(71.808 223.838)" fill="#272425"/>
              <path id="Trazado_17222" data-name="Trazado 17222" d="M-59.6-215.683a4.5,4.5,0,0,1-4.345,4.633,4.5,4.5,0,0,1-4.345-4.633,4.5,4.5,0,0,1,4.345-4.631A4.5,4.5,0,0,1-59.6-215.683Z" transform="translate(74.198 226.608)" fill="#cfd1d2"/>
            </g>
          </g>
        </g>
      </g>
    </g>
    <g id="Grupo_3683" data-name="Grupo 3683" transform="translate(21.572 -13.441)">
      <g id="Grupo_3678" data-name="Grupo 3678" transform="translate(36.31 50.002)">
        <g id="Grupo_3659" data-name="Grupo 3659" transform="translate(37.119 184.909)">
          <g id="Grupo_3656" data-name="Grupo 3656">
            <path id="Trazado_16999" data-name="Trazado 16999" d="M-141.332,261.142l-49.277,7.29-42.034,107.18a41.7,41.7,0,0,0-1.369,4.6h53.057Z" transform="translate(234.012 -261.142)" fill="#515050"/>
          </g>
          <g id="Grupo_3658" data-name="Grupo 3658" transform="translate(51.198)">
            <g id="Grupo_3657" data-name="Grupo 3657">
              <path id="Trazado_17000" data-name="Trazado 17000" d="M-200.236,261.142l8.173,119.072H-138.8l-.543-65.82c-.282-15.567-5.307-23.386-14.4-36.02l-7.157-9.942Z" transform="translate(210.427 -261.142)" fill="#515050"/>
              <path id="Trazado_17001" data-name="Trazado 17001" d="M-190.433,320.55l-2.42-26.157-12.991-11.367" transform="translate(205.843 -243.251)" fill="#515050" stroke="#000" stroke-linecap="round" stroke-linejoin="round" stroke-width="0.445"/>
            </g>
          </g>
        </g>
        <g id="Grupo_3673" data-name="Grupo 3673" transform="translate(0 71.245)">
          <g id="Grupo_3664" data-name="Grupo 3664">
            <g id="Grupo_3662" data-name="Grupo 3662">
              <g id="Grupo_3660" data-name="Grupo 3660">
                <path id="Trazado_17002" data-name="Trazado 17002" d="M-245.855,198.61l2.5.076a3.8,3.8,0,0,1,2.866,1.436l22.385,28.155a3.809,3.809,0,0,1-.289,5.062l-.663.665Z" transform="translate(261.448 -198.601)" fill="#030907"/>
                <path id="Trazado_17003" data-name="Trazado 17003" d="M-253.879,211.759l14.075-12.719a1.682,1.682,0,0,1,2.452.209l25.5,32.481a1.683,1.683,0,0,1-.185,2.279l-14.031,12.866a1.683,1.683,0,0,1-2.463-.2l-25.542-32.628A1.682,1.682,0,0,1-253.879,211.759Z" transform="translate(254.434 -198.605)" fill="#030907"/>
              </g>
              <g id="Grupo_3661" data-name="Grupo 3661" transform="translate(6.786 16.105)">
                <path id="Trazado_17004" data-name="Trazado 17004" d="M-236.03,256.225S-253.9,230.9-250.2,224.055s11.336-16.609,15.06-16.589,12.259,7.377,9.916,13.039-6.2,12.7-6.2,12.7,5.391,5.8,4.766,16.391S-236.03,256.225-236.03,256.225Z" transform="translate(250.701 -207.466)" fill="#d08864"/>
              </g>
            </g>
            <path id="Trazado_17005" data-name="Trazado 17005" d="M-189.021,215.142h0a16.616,16.616,0,0,0-19.391,10.176L-237.2,292.51a16.669,16.669,0,0,0,7.757,20.729h0a16.671,16.671,0,0,0,23.357-8.759l28.684-67.232A16.612,16.612,0,0,0-189.021,215.142Z" transform="translate(267.612 -185.465)" fill="#5b211f"/>
            <g id="Grupo_3663" data-name="Grupo 3663" transform="translate(11.441 53.694)">
              <path id="Trazado_17006" data-name="Trazado 17006" d="M-225.557,228.147l24.041,43.837-28.209,19.778-18.414-54.206Z" transform="translate(248.139 -228.147)" fill="#5b211f"/>
            </g>
            <line id="Línea_194" data-name="Línea 194" x2="8.791" y2="16.03" transform="translate(44.829 73.397)" fill="none" stroke="#000" stroke-linecap="round" stroke-linejoin="round" stroke-width="0.445"/>
          </g>
          <g id="Grupo_3666" data-name="Grupo 3666" transform="translate(68.938 28.454)">
            <g id="Grupo_3665" data-name="Grupo 3665">
              <path id="Trazado_17007" data-name="Trazado 17007" d="M-153.429,215.446l20.993,2.993,4.215,22.278-19.385,58.753h-57.2l-11.7-61.161,5.543-23.24,16.578-.808Z" transform="translate(216.505 -214.26)" fill="#5b211f"/>
              <rect id="Rectángulo_3439" data-name="Rectángulo 3439" width="57.314" height="7.291" transform="translate(68.898 92.5) rotate(180)" fill="#5b211f"/>
            </g>
            <path id="Trazado_17008" data-name="Trazado 17008" d="M-210.512,262.206s-6.49-19.671-5.22-35.673" transform="translate(217.003 -204.227)" fill="#5b211f" stroke="#000" stroke-linecap="round" stroke-linejoin="round" stroke-width="0.445"/>
          </g>
          <g id="Grupo_3672" data-name="Grupo 3672" transform="translate(114.04 32.369)">
            <path id="Unión_1" data-name="Unión 1" d="M868.078,4554.748l28.714-49.487-19.437-54.583a16.045,16.045,0,0,1,30.322-10.506l23.559,65.848a18.593,18.593,0,0,1-6.957,20.739l-36.316,44.989Zm10.107-101.669,10.446,30.215Z" transform="translate(-856.995 -4429.384)" fill="#5b211f" stroke="rgba(0,0,0,0)" stroke-miterlimit="10" stroke-width="1"/>
            <g id="Grupo_3671" data-name="Grupo 3671" transform="translate(0 73.109)">
              <g id="Grupo_3668" data-name="Grupo 3668" transform="translate(0 53.644)">
                <path id="Trazado_17010" data-name="Trazado 17010" d="M-176.2,317.028a15.437,15.437,0,0,0,15.387-15.487A15.437,15.437,0,0,0-176.3,286.153a15.44,15.44,0,0,0-15.387,15.489A15.434,15.434,0,0,0-176.2,317.028Z" transform="translate(191.69 -286.153)" fill="#d08864"/>
              </g>
            </g>
          </g>
        </g>
        <g id="Grupo_3677" data-name="Grupo 3677" transform="translate(75.867)">
          <g id="Grupo_3676" data-name="Grupo 3676" transform="translate(0 18.037)">
            <path id="Trazado_17012" data-name="Trazado 17012" d="M-195.63,194.073a8.282,8.282,0,0,1-7.619,8.842c-4.466.271-9.169-3.273-9.429-7.886a8.282,8.282,0,0,1,7.619-8.842C-200.592,185.916-195.89,189.46-195.63,194.073Z" transform="translate(212.693 -155.561)" fill="#ba6e4d"/>
            <path id="Trazado_17013" data-name="Trazado 17013" d="M-200.971,206.835l-.205,19.984c-.087,7.017,4.057,10.805,10.749,10.805h0c5.711,0,11.987-2.7,11.8-8.893l-2.934-31.458Z" transform="translate(222.106 -146.485)" fill="#d08864"/>
            <path id="Trazado_17014" data-name="Trazado 17014" d="M-201.178,216.814l21.729-13.8c-.505-5.967-21.54-.616-21.54-.616Z" transform="translate(222.106 -144.098)" fill="#312220"/>
            <path id="Trazado_17015" data-name="Trazado 17015" d="M-187.9,231.684h0c-11.41-.093-21.645-7.214-21.645-20.665l.007-16.516c-.294-12.065,8.733-22.2,20.4-22.91h0c11.945-.725,27.566,8.653,28.259,20.987l-3.175,15.6C-163.941,222.316-174.238,230.855-187.9,231.684Z" transform="translate(215.264 -167.512)" fill="#d08864"/>
            <path id="Trazado_17016" data-name="Trazado 17016" d="M-166.349,208.6l-3.032-4.84a19.31,19.31,0,0,1,1.114-10.376c1.129-2.417,1-6.212-3.186-9.318-6.14-4.56-18.691-7.879-29.8-3.393a12.794,12.794,0,0,0-7.016,6.816,12.258,12.258,0,0,0-1.08,4.224l.053-3.015c.2-11.425,9.653-19.622,21.076-19.351,4,.095,8.57-.318,13.633.582,12.8,2.272,22.587,14.235,18.719,26.641l-4.015,8.313Z" transform="translate(215.424 -169.33)" fill="#030907"/>
            <g id="Grupo_3674" data-name="Grupo 3674" transform="translate(46.497 32.654)">
              <path id="Trazado_17017" data-name="Trazado 17017" d="M-170.211,195.07c.256,4.567-3.993,8.462-8.417,8.731a8.114,8.114,0,0,1-8.473-7.785c-.256-4.567,4.864-8.437,9.288-8.706S-170.469,190.5-170.211,195.07Z" transform="translate(187.11 -187.296)" fill="#d08864"/>
              <path id="Trazado_17018" data-name="Trazado 17018" d="M-184.154,195.914s.954-6.361,7.01-5.34" transform="translate(189.527 -184.707)" fill="none" stroke="#000" stroke-linecap="round" stroke-linejoin="round" stroke-width="0.452"/>
            </g>
            <path id="Trazado_17019" data-name="Trazado 17019" d="M-173.559,181.267s-3.212-1.856-8.886.563c-11.792,5.024-25.893,1.114-24.19-4.537l14.886-4.542,17.212,2.221Z" transform="translate(217.53 -166.532)" fill="#030907"/>
            <g id="Grupo_3675" data-name="Grupo 3675" transform="translate(7.848 24.245)">
              <path id="Trazado_17020" data-name="Trazado 17020" d="M-204.185,195.072l16.109-.1a9.942,9.942,0,0,1-9.029,5.863C-202.671,200.923-204.185,195.072-204.185,195.072Z" transform="translate(211.8 -172.608)" fill="#fff"/>
              <path id="Trazado_17021" data-name="Trazado 17021" d="M-202.667,191.017l-.66,3.216,2.674.186" transform="translate(212.501 -175.845)" fill="none" stroke="#000" stroke-linecap="round" stroke-linejoin="round" stroke-width="0.452"/>
              <path id="Trazado_17022" data-name="Trazado 17022" d="M-193.774,182.739s-4.422-.516-4.526,1.345c0,0-.036,1.261,3.824,1.636s4.875.113,5.265-1.061S-191.7,182.815-193.774,182.739Z" transform="translate(216.611 -182.667)" fill="#030907"/>
              <path id="Trazado_17023" data-name="Trazado 17023" d="M-204.671,182.685s3.673-.274,3.915,1.485c0,0,.136,1.19-3.075,1.358s-4.242-.289-4.515-1.254C-208.655,183.178-206.412,182.658-204.671,182.685Z" transform="translate(208.375 -182.669)" fill="#030907"/>
              <ellipse id="Elipse_468" data-name="Elipse 468" cx="1.923" cy="1.862" rx="1.923" ry="1.862" transform="translate(2.273 12.682) rotate(-88.23)" fill="#030907"/>
              <path id="Trazado_17024" data-name="Trazado 17024" d="M-194.068,189.459a1.9,1.9,0,0,1-1.863,1.927,1.887,1.887,0,0,1-1.861-1.919,1.9,1.9,0,0,1,1.861-1.927A1.89,1.89,0,0,1-194.068,189.459Z" transform="translate(217.027 -178.688)" fill="#030907"/>
            </g>
          </g>
          <path id="Trazado_17025" data-name="Trazado 17025" d="M-204.334,214.589a166.945,166.945,0,0,1,40.954,1.187l-32.95,17.536Z" transform="translate(219.526 -114.89)" fill="#d08864"/>
          <path id="Trazado_17026" data-name="Trazado 17026" d="M-186.97,179.924a20.517,20.517,0,0,0,20.516,20.516,20.517,20.517,0,0,0,20.516-20.516,20.517,20.517,0,0,0-20.516-20.518A20.517,20.517,0,0,0-186.97,179.924Z" transform="translate(233.722 -159.406)" fill="#030907"/>
        </g>
      </g>
      <g id="Grupo_3682" data-name="Grupo 3682">
        <g id="Grupo_3681" data-name="Grupo 3681">
          <g id="Grupo_3680" data-name="Grupo 3680">
            <g id="Grupo_3679" data-name="Grupo 3679">
              <path id="Unión_2" data-name="Unión 2" d="M1038.068,4650.311a34.228,34.228,0,1,1,55.555.724l3.625,10.989-10.212-4.273q-.633.489-1.3.953a34.219,34.219,0,0,1-47.672-8.393Z" transform="translate(-1018.428 -4583)" fill="#5b211f" stroke="rgba(0,0,0,0)" stroke-miterlimit="10" stroke-width="1"/>
            </g>
          </g>
        </g>
        <path id="Trazado_17028" data-name="Trazado 17028" d="M-226.965,164.307l-.593-8.319a4.362,4.362,0,0,0-4.349-4.049h-3.01v-.009a3.548,3.548,0,0,0-3.548-3.548h-3.528a3.548,3.548,0,0,0-3.548,3.548h-3.01a4.354,4.354,0,0,0-4.349,4.048l-.594,8.321h0a4.424,4.424,0,0,0-4.424,4.424v7.954h1.774v.882a2.655,2.655,0,0,0,2.655,2.655h0a2.655,2.655,0,0,0,2.655-2.655v-.882h21.227v.882a2.655,2.655,0,0,0,2.655,2.655h0a2.655,2.655,0,0,0,2.655-2.655v-.882h1.765v-7.954A4.437,4.437,0,0,0-226.965,164.307Zm-22.4-8.057a.839.839,0,0,1,.829-.774h16.634a.846.846,0,0,1,.829.774l.576,8.057h-19.444Zm-2.359,16.9a2.654,2.654,0,0,1-2.652-2.652,2.654,2.654,0,0,1,2.652-2.652,2.653,2.653,0,0,1,2.65,2.652A2.634,2.634,0,0,1-251.729,173.148Zm16.812.009h-10.614v-3.539h10.614Zm6.189-.009a2.654,2.654,0,0,1-2.652-2.652,2.654,2.654,0,0,1,2.652-2.652,2.653,2.653,0,0,1,2.65,2.652A2.647,2.647,0,0,1-228.728,173.148Z" transform="translate(287.897 -118.416)" fill="#fff"/>
      </g>
    </g>
  </g>
</svg>
