<svg id="_3_Onboarding_image" data-name="3_Onboarding  image" xmlns="http://www.w3.org/2000/svg" xmlns:xlink="http://www.w3.org/1999/xlink" width="292.075" height="335.846" viewBox="0 0 292.075 335.846">
  <defs>
    <clipPath id="clip-path">
      <path id="Trazado_16950" data-name="Trazado 16950" d="M-762.425-149.949-744.743,6.479A40.7,40.7,0,0,0-704.049,46.5h149.4a40.7,40.7,0,0,0,39.833-32.342l43.956-219.635a22.967,22.967,0,0,0-28.476-26.885l-236.428,46.975A36.09,36.09,0,0,0-762.425-149.949Z" transform="translate(762.43 233.182)" fill="none"/>
    </clipPath>
  </defs>
  <g id="Grupo_3611" data-name="Grupo 3611" transform="translate(0 56.166)">
    <path id="Trazado_16939" data-name="Trazado 16939" d="M-762.425-149.949-744.743,6.479A40.7,40.7,0,0,0-704.049,46.5h149.4a40.7,40.7,0,0,0,39.833-32.342l43.956-219.635a22.967,22.967,0,0,0-28.476-26.885l-236.428,46.975A36.09,36.09,0,0,0-762.425-149.949Z" transform="translate(762.43 233.182)" fill="#e9efff"/>
    <g id="Grupo_3610" data-name="Grupo 3610">
      <g id="Grupo_3609" data-name="Grupo 3609" clip-path="url(#clip-path)">
        <g id="Grupo_3605" data-name="Grupo 3605" transform="translate(-28.173 134.899)">
          <rect id="Rectángulo_3375" data-name="Rectángulo 3375" width="311.253" height="39.19" transform="translate(311.253 149.074) rotate(180)" fill="#d3dfff"/>
          <g id="Grupo_3589" data-name="Grupo 3589" transform="translate(8.679 41.949)">
            <rect id="Rectángulo_3376" data-name="Rectángulo 3376" width="21.23" height="27.318" transform="translate(253.932 43.28) rotate(180)" fill="#adc6fe"/>
            <rect id="Rectángulo_3377" data-name="Rectángulo 3377" width="21.23" height="38.819" transform="translate(123.424 38.819) rotate(180)" fill="#adc6fe"/>
            <rect id="Rectángulo_3378" data-name="Rectángulo 3378" width="22.642" height="25.826" transform="translate(63.345 38.819) rotate(180)" fill="#adc6fe"/>
            <rect id="Rectángulo_3379" data-name="Rectángulo 3379" width="21.23" height="27.318" transform="translate(205.859 33.792) rotate(180)" fill="#adc6fe"/>
            <rect id="Rectángulo_3380" data-name="Rectángulo 3380" width="21.23" height="27.319" transform="translate(165.691 48.577) rotate(180)" fill="#adc6fe"/>
            <rect id="Rectángulo_3381" data-name="Rectángulo 3381" width="302.574" height="35.846" transform="translate(302.574 67.936) rotate(180)" fill="#adc6fe"/>
            <rect id="Rectángulo_3382" data-name="Rectángulo 3382" width="48.817" height="27.318" transform="translate(302.749 32.089) rotate(180)" fill="#adc6fe"/>
          </g>
          <g id="Grupo_3594" data-name="Grupo 3594" transform="translate(169.019 20.63)">
            <rect id="Rectángulo_3383" data-name="Rectángulo 3383" width="32.337" height="89.255" transform="translate(32.337 89.255) rotate(180)" fill="#bed0fe"/>
            <g id="Grupo_3593" data-name="Grupo 3593" transform="translate(5.352 6.393)">
              <g id="Grupo_3590" data-name="Grupo 3590" transform="translate(0 0)">
                <rect id="Rectángulo_3384" data-name="Rectángulo 3384" width="6.429" height="12.651" transform="translate(22.606 12.651) rotate(180)" fill="#fff"/>
                <rect id="Rectángulo_3385" data-name="Rectángulo 3385" width="6.429" height="12.651" transform="translate(6.429 12.651) rotate(180)" fill="#fff"/>
              </g>
              <g id="Grupo_3591" data-name="Grupo 3591" transform="translate(0 19.287)">
                <rect id="Rectángulo_3386" data-name="Rectángulo 3386" width="6.429" height="12.651" transform="translate(22.606 12.651) rotate(180)" fill="#fff"/>
                <rect id="Rectángulo_3387" data-name="Rectángulo 3387" width="6.429" height="12.651" transform="translate(6.429 12.651) rotate(180)" fill="#fff"/>
              </g>
              <g id="Grupo_3592" data-name="Grupo 3592" transform="translate(0 38.575)">
                <rect id="Rectángulo_3388" data-name="Rectángulo 3388" width="6.429" height="12.651" transform="translate(22.606 12.651) rotate(180)" fill="#fff"/>
                <rect id="Rectángulo_3389" data-name="Rectángulo 3389" width="6.429" height="12.651" transform="translate(6.429 12.651) rotate(180)" fill="#fff"/>
              </g>
            </g>
          </g>
          <g id="Grupo_3598" data-name="Grupo 3598" transform="translate(123.797 31.18)">
            <rect id="Rectángulo_3390" data-name="Rectángulo 3390" width="32.337" height="78.704" transform="translate(32.337 78.704) rotate(180)" fill="#edd8c0"/>
            <g id="Grupo_3597" data-name="Grupo 3597" transform="translate(5.352 15.129)">
              <g id="Grupo_3595" data-name="Grupo 3595" transform="translate(0 0)">
                <rect id="Rectángulo_3391" data-name="Rectángulo 3391" width="6.429" height="12.651" transform="translate(22.606 12.651) rotate(180)" fill="#e0cab1"/>
                <rect id="Rectángulo_3392" data-name="Rectángulo 3392" width="6.429" height="12.651" transform="translate(6.429 12.651) rotate(180)" fill="#e0cab1"/>
              </g>
              <g id="Grupo_3596" data-name="Grupo 3596" transform="translate(0 19.287)">
                <rect id="Rectángulo_3393" data-name="Rectángulo 3393" width="6.429" height="12.651" transform="translate(22.606 12.651) rotate(180)" fill="#e0cab1"/>
                <rect id="Rectángulo_3394" data-name="Rectángulo 3394" width="6.429" height="12.651" transform="translate(6.429 12.651) rotate(180)" fill="#e0cab1"/>
              </g>
            </g>
          </g>
          <g id="Grupo_3601" data-name="Grupo 3601" transform="translate(213.54 0)">
            <g id="Grupo_3599" data-name="Grupo 3599" transform="translate(0)">
              <rect id="Rectángulo_3395" data-name="Rectángulo 3395" width="39.008" height="109.884" transform="translate(39.008 109.884) rotate(180)" fill="#bed0fe"/>
            </g>
            <g id="Grupo_3600" data-name="Grupo 3600" transform="translate(6.437 14.717)">
              <rect id="Rectángulo_3396" data-name="Rectángulo 3396" width="2.935" height="43.322" transform="translate(26.51 43.322) rotate(180)" fill="#fff"/>
              <rect id="Rectángulo_3397" data-name="Rectángulo 3397" width="2.935" height="43.322" transform="translate(18.652 43.322) rotate(180)" fill="#fff"/>
              <rect id="Rectángulo_3398" data-name="Rectángulo 3398" width="2.935" height="43.322" transform="translate(10.794 43.322) rotate(180)" fill="#fff"/>
              <rect id="Rectángulo_3399" data-name="Rectángulo 3399" width="2.935" height="43.322" transform="translate(2.935 43.322) rotate(180)" fill="#fff"/>
            </g>
          </g>
          <g id="Grupo_3604" data-name="Grupo 3604" transform="translate(71.865 0)">
            <g id="Grupo_3602" data-name="Grupo 3602" transform="translate(0)">
              <rect id="Rectángulo_3400" data-name="Rectángulo 3400" width="39.008" height="109.884" transform="translate(39.008 109.884) rotate(180)" fill="#bed0fe"/>
            </g>
            <g id="Grupo_3603" data-name="Grupo 3603" transform="translate(6.436 14.717)">
              <rect id="Rectángulo_3401" data-name="Rectángulo 3401" width="2.936" height="43.322" transform="translate(26.51 43.322) rotate(180)" fill="#fff"/>
              <rect id="Rectángulo_3402" data-name="Rectángulo 3402" width="2.936" height="43.322" transform="translate(18.652 43.322) rotate(180)" fill="#fff"/>
              <rect id="Rectángulo_3403" data-name="Rectángulo 3403" width="2.936" height="43.322" transform="translate(10.794 43.322) rotate(180)" fill="#fff"/>
              <rect id="Rectángulo_3404" data-name="Rectángulo 3404" width="2.936" height="43.322" transform="translate(2.936 43.322) rotate(180)" fill="#fff"/>
            </g>
          </g>
        </g>
        <g id="Grupo_4049" data-name="Grupo 4049" transform="translate(168.681 209.437)">
          <path id="Trazado_17213" data-name="Trazado 17213" d="M-89.231-234.023H-99.1s.627-5.056,1.011-6.146c.366-1.052.718-2.615,3.926-2.615,2.918,0,3.756,1.382,4.065,2.615S-89.231-234.023-89.231-234.023Z" transform="translate(171.844 242.783)" fill="#fff"/>
          <path id="Trazado_17214" data-name="Trazado 17214" d="M-131.476-224.49h10.488l-1.39-5.4h-9.1Z" transform="translate(261.415 252.919)" fill="#ed5933"/>
          <path id="Trazado_17215" data-name="Trazado 17215" d="M-132.274-202.71a13.183,13.183,0,0,1,.654-9.08,16.769,16.769,0,0,1,.864-1.8,21.317,21.317,0,0,1,4.172-4.5,20.194,20.194,0,0,1,4.906-2.124c3.559-1.031,14.638-2.293,14.638-2.293l9.894-.9,7.851-4.392s8.36-4.815,11.284-6.146a54.621,54.621,0,0,1,18.76-4.1c13.379,0,20.5.243,27.115,1.763,3.715.855,14.452,4.861,14.452,4.861l12.125,4.252s8.165-.616,10.3.816c.782.527,1.661,3.354,1.661,3.354l-6.892.139,1.327,4.113,6.562.246,1.084,1.929a11.608,11.608,0,0,1,1.3,7.887c-.484,2.493-1.32,5.29-2.72,6.292-1.891,1.354-14.783,2.127-14.783,2.127s.922-13.495-12.03-13.82c-6.494-.164-11.121,4.54-11.9,9.076-.248,1.457-.491,5.888-.491,5.888l-64.993.98h0l-.016,0v-.75c-.159-4.343-1.634-14.706-13.2-14.706-12.757,0-12.023,15.393-12.023,15.393s-6.274-.3-8.137-1.656A5.471,5.471,0,0,1-132.274-202.71Z" transform="translate(132.8 246.512)"/>
          <path id="Trazado_17216" data-name="Trazado 17216" d="M-113.728-226.376l.623-10.1s10.35-.071,14.665.822a36.95,36.95,0,0,1,8.346,3.743A45.689,45.689,0,0,1-83.386-227Z" transform="translate(192.117 247.736)" fill="#272425"/>
          <path id="Trazado_17217" data-name="Trazado 17217" d="M-65.5-225.877l1.4-10.643a51.3,51.3,0,0,0-10.841,1.361C-82.459-233.316-94.6-224.4-94.6-224.4Z" transform="translate(138.667 247.706)" fill="#272425"/>
          <line id="Línea_204" data-name="Línea 204" x1="1.851" y2="21.415" transform="translate(71.311 21.827)" fill="none" stroke="#c9c9c9" stroke-miterlimit="10" stroke-width="0.5"/>
          <line id="Línea_205" data-name="Línea 205" x1="65.75" y2="1.075" transform="translate(35.24 42.883)" fill="none" stroke="#c9c9c9" stroke-miterlimit="10" stroke-width="0.5"/>
          <line id="Línea_206" data-name="Línea 206" x1="3.194" y2="20.111" transform="translate(40.875 23.309)" fill="none" stroke="#c9c9c9" stroke-miterlimit="10" stroke-width="0.5"/>
          <line id="Línea_207" data-name="Línea 207" x1="0.694" y2="12.365" transform="translate(108.038 20.736)" fill="none" stroke="#c9c9c9" stroke-miterlimit="10" stroke-width="0.5"/>
          <rect id="Rectángulo_3503" data-name="Rectángulo 3503" width="5.524" height="2.008" transform="translate(99.391 25.73)" fill="#9b9b9b" stroke="rgba(0,0,0,0)" stroke-width="1"/>
          <rect id="Rectángulo_3504" data-name="Rectángulo 3504" width="5.524" height="2.008" transform="translate(64.038 25.73)" fill="#c9c9c9"/>
          <path id="Trazado_17218" data-name="Trazado 17218" d="M-55.346-226.865h6.317a.922.922,0,0,1,.691,1.532h0a14.181,14.181,0,0,1-10.871,4.783l-1.173-.021A14.617,14.617,0,0,1-55.346-226.865Z" transform="translate(61.562 255.294)" fill="#fff"/>
          <g id="Grupo_3755" data-name="Grupo 3755" transform="translate(101.915 33.835)">
            <path id="Trazado_17219" data-name="Trazado 17219" d="M-122.11-212.911a10.91,10.91,0,0,0,10.893,10.925,10.91,10.91,0,0,0,10.893-10.925,10.908,10.908,0,0,0-10.893-10.927A10.908,10.908,0,0,0-122.11-212.911Z" transform="translate(122.11 223.838)" fill="#272425"/>
            <path id="Trazado_17220" data-name="Trazado 17220" d="M-118.6-215.683a4.627,4.627,0,0,0,4.619,4.633,4.627,4.627,0,0,0,4.619-4.633,4.625,4.625,0,0,0-4.619-4.631A4.625,4.625,0,0,0-118.6-215.683Z" transform="translate(124.871 226.608)" fill="#cfd1d2"/>
          </g>
          <g id="Grupo_3756" data-name="Grupo 3756" transform="translate(12.077 33.835)">
            <path id="Trazado_17221" data-name="Trazado 17221" d="M-71.808-212.911a10.911,10.911,0,0,0,10.893,10.925,10.91,10.91,0,0,0,10.893-10.925,10.908,10.908,0,0,0-10.893-10.927A10.909,10.909,0,0,0-71.808-212.911Z" transform="translate(71.808 223.838)" fill="#272425"/>
            <path id="Trazado_17222" data-name="Trazado 17222" d="M-68.295-215.683a4.627,4.627,0,0,0,4.619,4.633,4.627,4.627,0,0,0,4.619-4.633,4.625,4.625,0,0,0-4.619-4.631A4.625,4.625,0,0,0-68.295-215.683Z" transform="translate(74.569 226.608)" fill="#cfd1d2"/>
          </g>
        </g>
      </g>
    </g>
  </g>
  <g id="Grupo_3631" data-name="Grupo 3631" transform="translate(17.941)">
    <g id="Grupo_3629" data-name="Grupo 3629" transform="translate(0 27.953)">
      <g id="Grupo_3613" data-name="Grupo 3613" transform="translate(43.832 186.075)">
        <g id="Grupo_3612" data-name="Grupo 3612">
          <path id="Trazado_16951" data-name="Trazado 16951" d="M-713.043-151.107s-14.706,21.121-15.843,90.367l-1.427,31.451h48.552L-670.5-86.91l8.834-64.2Z" transform="translate(730.313 151.107)" fill="#515050"/>
          <path id="Trazado_16952" data-name="Trazado 16952" d="M-672-151.107s7.661,30.542,14.191,80.01l5.572,41.809h-44.919l-7.615-121.818Z" transform="translate(753.9 151.107)" fill="#515050"/>
        </g>
        <path id="Trazado_16953" data-name="Trazado 16953" d="M-701.845-80.392l5.659-39.247,14.7-10.506" transform="translate(756.601 170.463)" fill="#515050" stroke="#000" stroke-linecap="round" stroke-linejoin="round" stroke-width="0.452"/>
      </g>
      <g id="Grupo_3624" data-name="Grupo 3624" transform="translate(0 78.995)">
        <g id="Grupo_3618" data-name="Grupo 3618" transform="translate(86.618 5.762)">
          <g id="Grupo_3617" data-name="Grupo 3617" transform="translate(8.851 3.4)">
            <path id="Trazado_16954" data-name="Trazado 16954" d="M-587.372-164.764a12.79,12.79,0,0,0-17.847-2.945l-34.954,25.054-31.249-46.152c-.24-.352-.517-.733-.787-1.071a17.527,17.527,0,0,0-24.625-2.829,17.528,17.528,0,0,0-2.831,24.627l43.78,55.15.719.906.148.181a14.325,14.325,0,0,0,20.173,1.885l40.4-39.928C-589.343-154.137-583.44-159.281-587.372-164.764Z" transform="translate(703.466 207.101)" fill="#ec9471"/>
            <g id="Grupo_3616" data-name="Grupo 3616" transform="translate(90.394)">
              <g id="Grupo_3614" data-name="Grupo 3614" transform="translate(0.661 16.579)">
                <path id="Trazado_16955" data-name="Trazado 16955" d="M-644.44-187.825l27.151,7.921s0,21.044-25.045,24.848c-1.371.208-7.534-2.152-8.6-3.095l-4.168-11.881a5.064,5.064,0,0,1,.3-6.478Z" transform="translate(656.126 198.54)" fill="#ec9471"/>
                <path id="Trazado_16956" data-name="Trazado 16956" d="M-651.218-179.18l9.6-12.61a3.928,3.928,0,0,1,5.483-.831h0a4.007,4.007,0,0,1,.579,5.393l-8.871,13.833Z" transform="translate(660.657 193.396)" fill="#ebb3a2"/>
                <path id="Trazado_16957" data-name="Trazado 16957" d="M-645.182-174.676l11.54-11.388a3.738,3.738,0,0,1,5.322-.365h0a3.986,3.986,0,0,1-.185,5.309l-11.01,12.641Z" transform="translate(666.231 198.951)" fill="#ebb3a2"/>
                <path id="Trazado_16958" data-name="Trazado 16958" d="M-647.492-179.054l10.9-10.771a3.829,3.829,0,0,1,5.484-.154h0a4.11,4.11,0,0,1-.058,5.48l-10.325,12.089Z" transform="translate(664.098 195.551)" fill="#ebb3a2"/>
              </g>
              <g id="Grupo_3615" data-name="Grupo 3615" transform="translate(5.337)">
                <path id="Trazado_16959" data-name="Trazado 16959" d="M-630.529-202.015l4.322.28v28.377L-641.378-149.6l-4.612-.376,8.138-29.842Z" transform="translate(660.809 202.016)" fill="#36438f"/>
                <path id="Trazado_16960" data-name="Trazado 16960" d="M-650.868-162.76l12.679,11.954a2.864,2.864,0,0,0,4.5-.04l27.608-34.458a2.381,2.381,0,0,0-.025-2.951l-13.3-12.725a2.382,2.382,0,0,0-3.739.033l-27.749,34.64A2.861,2.861,0,0,0-650.868-162.76Z" transform="translate(655.72 202.15)" fill="#030907"/>
                <path id="Trazado_16961" data-name="Trazado 16961" d="M-653.063-162.9l12.681,11.952a2.862,2.862,0,0,0,4.495-.04l27.608-34.458a2.384,2.384,0,0,0-.027-2.95l-13.3-12.725a2.38,2.38,0,0,0-3.737.033l-27.749,34.64A2.864,2.864,0,0,0-653.063-162.9Z" transform="translate(653.694 202.016)" fill="#fff"/>
              </g>
              <path id="Trazado_16962" data-name="Trazado 16962" d="M-651.851-163.379c-1.487-.731-5.2-4.6-4.541-10.467a33.171,33.171,0,0,1,4.851-13.568c1.323-2.485,2.858-3.689,5.014-3.387h0a4.091,4.091,0,0,1,3.414,4.535l-2.433,5.389s2.675,6.834-2.926,17.2Z" transform="translate(656.469 212.329)" fill="#ec9471"/>
            </g>
          </g>
          <path id="Trazado_16963" data-name="Trazado 16963" d="M-647.685-167.3l-19.667-29.168c-8.215-9.319-21.575-9.477-31.44-1.925h0a23.642,23.642,0,0,0-3.333,34.45l16.953,23.119Z" transform="translate(708.068 203.783)" fill="#5b211f"/>
        </g>
        <g id="Grupo_3619" data-name="Grupo 3619" transform="translate(55.511)">
          <path id="Trazado_16964" data-name="Trazado 16964" d="M-690.143-206.779s-17.536.671-34.1,7.113l5.374,99.967h64.849l6.832-76.94c.733-8.967-4.991-20.105-14.045-25.154l-7.372-3.949Z" transform="translate(724.241 206.779)" fill="#5b211f"/>
          <path id="Trazado_16965" data-name="Trazado 16965" d="M-687.1-191.707s4.824,10.152,3.547,24.55" transform="translate(758.534 220.696)" fill="none" stroke="#000" stroke-linecap="round" stroke-linejoin="round" stroke-width="0.452"/>
        </g>
        <g id="Grupo_3623" data-name="Grupo 3623" transform="translate(0 5.12)">
          <g id="Grupo_3620" data-name="Grupo 3620" transform="translate(4.261 60.74)">
            <path id="Trazado_16966" data-name="Trazado 16966" d="M-735.143-172.538l34.78,48.038-8.388,14.3-42.134-35.772Z" transform="translate(750.886 172.538)" fill="#ec9471"/>
            <path id="Trazado_16967" data-name="Trazado 16967" d="M-684.747-141.974l-17.788-5.7,1.027-3.868a3.232,3.232,0,0,0-1.5-3.626,3.234,3.234,0,0,0-3.982.579l-13.6,14.445-8.388,14.3c10.109,6.165,15.895,5.13,19,3.116.41.065.819.146,1.233.2l14.293,1.7a2.636,2.636,0,0,0,3.156-1.758c.306-.966.233-2.418-2.614-3.327l2.846.91a2.737,2.737,0,0,0,3.3-1.893c.4-1.256-.569-2.675-2.276-3.429l2.141.464a2.808,2.808,0,0,0,3.452-2.237,2.915,2.915,0,0,0-2.06-3.21l-3.143-1,3.585.277A3.049,3.049,0,0,0-682.5-138.6,3.16,3.16,0,0,0-684.747-141.974Z" transform="translate(771.114 188.178)" fill="#ec9471"/>
          </g>
          <g id="Grupo_3622" data-name="Grupo 3622">
            <path id="Trazado_16968" data-name="Trazado 16968" d="M-675.376-176.427l-53.369,54.534a13.425,13.425,0,0,1-16.578,4.385h0a13.425,13.425,0,0,1-5.641-19.442l45.223-56.773a15.42,15.42,0,0,1,20.577-5.068h0C-677.211-194.278-670.067-183.874-675.376-176.427Z" transform="translate(753.102 207.181)" fill="#ec9471"/>
            <g id="Grupo_3621" data-name="Grupo 3621" transform="translate(25.125)">
              <path id="Trazado_16969" data-name="Trazado 16969" d="M-701.14-143.816l19.961-24.471a23.645,23.645,0,0,0-6.582-31.582h0c-11.213-7.913-24.26-4.33-33.877,7.1l-18.4,22.054Z" transform="translate(740.039 204.117)" fill="#5b211f"/>
              <path id="Trazado_16970" data-name="Trazado 16970" d="M-722.856-164.489l4.129,3.11,18.381-24.719" transform="translate(755.906 220.755)" fill="#5b211f" stroke="#000" stroke-linecap="round" stroke-linejoin="round" stroke-width="0.452"/>
            </g>
          </g>
        </g>
      </g>
      <g id="Grupo_3628" data-name="Grupo 3628" transform="translate(70.304)">
        <path id="Trazado_16971" data-name="Trazado 16971" d="M-666.613-226.577s7.923,23.29.6,38.751l-29.276-12.808Z" transform="translate(736.184 267.493)" fill="#4d2714"/>
        <path id="Trazado_16972" data-name="Trazado 16972" d="M-671.657-203.613l-12.262,32.361-21.646-11.829a3.251,3.251,0,0,1-1.373-4.2l18.924-41.078Z" transform="translate(725.15 265.846)" fill="#ec9471"/>
        <path id="Trazado_16973" data-name="Trazado 16973" d="M-688.7-200.99l-5.484-15.941,9.316,5.827Z" transform="translate(737.201 276.4)" fill="#030907"/>
        <path id="Trazado_16974" data-name="Trazado 16974" d="M-664.894-242.085s11.925,3.5,10.733,18.892c0,0-.987,11.142-2.539,27.168-.82,8.469-11.317,13.635-19.344,10.813-4.914-1.729-8.278-3.747-12.808-8.207l-6.247-7.447c-14.2-20.375,4.424-47.96,28.458-41.707Q-665.778-242.352-664.894-242.085Z" transform="translate(731.804 251.888)" fill="#ec9471"/>
        <path id="Trazado_16975" data-name="Trazado 16975" d="M-676.71-225.629l4.547,7.653a1.242,1.242,0,0,1-.975,2.033l-5.6-.083Z" transform="translate(751.466 268.368)" fill="#ec9471"/>
        <g id="Grupo_3626" data-name="Grupo 3626" transform="translate(64.939 32.905)">
          <g id="Grupo_3625" data-name="Grupo 3625">
            <path id="Trazado_16976" data-name="Trazado 16976" d="M-677.959-230.688s4.46-.431,4.276,1.15c0,0-.16,1.073-4.041,1.383s-4.847.087-5.053-.912S-680.031-230.627-677.959-230.688Z" transform="translate(682.787 230.742)" fill="#030907"/>
            <path id="Trazado_16977" data-name="Trazado 16977" d="M-680-225.24a1.76,1.76,0,0,0,1.108,2.222,1.752,1.752,0,0,0,2.181-1.175,1.76,1.76,0,0,0-1.108-2.223A1.751,1.751,0,0,0-680-225.24Z" transform="translate(685.286 234.662)" fill="#030907"/>
          </g>
          <path id="Trazado_16978" data-name="Trazado 16978" d="M-681.787-219.981a6.313,6.313,0,0,0,5.485,2.637" transform="translate(683.711 240.678)" fill="none" stroke="#000" stroke-linecap="round" stroke-linejoin="round" stroke-width="0.452"/>
        </g>
        <path id="Trazado_16979" data-name="Trazado 16979" d="M-678.379-212.564s-2.708-38.06,27.57-19.044c0,0-8.988-23.083-38.728-14.214-6.228,1.858-14.235,9.58-16.1,15.806-3.025,10.071,1.629,19.544,8.809,36.816l12.277-11.194C-683.6-206.893-678.379-212.564-678.379-212.564Z" transform="translate(725.758 247.85)" fill="#4d2714"/>
        <path id="Trazado_16980" data-name="Trazado 16980" d="M-672.364-247.7s-36.227-2.975-44.186,56.413l37.208,17.99s2.077-32.671,10.171-39.389l4.247-12.893Z" transform="translate(716.55 247.969)" fill="#4d2714"/>
        <path id="Trazado_16981" data-name="Trazado 16981" d="M-655.238-230.052s-7.444,15.9-28.551,18.088l-14.331-20.124,22.581-15.089S-660.746-243.031-655.238-230.052Z" transform="translate(733.568 248.47)" fill="#4d2714"/>
        <g id="Grupo_3627" data-name="Grupo 3627" transform="translate(34.049 31.508)">
          <path id="Trazado_16982" data-name="Trazado 16982" d="M-698.679-224.918a8.19,8.19,0,0,0,6.38,9.667,8.192,8.192,0,0,0,9.669-6.38,8.193,8.193,0,0,0-6.382-9.669A8.191,8.191,0,0,0-698.679-224.918Z" transform="translate(698.847 231.468)" fill="#ec9471"/>
          <path id="Trazado_16983" data-name="Trazado 16983" d="M-691.17-223.059s1.191-5.818-4.56-6.041" transform="translate(701.726 233.655)" fill="none" stroke="#000" stroke-linecap="round" stroke-linejoin="round" stroke-width="0.452"/>
        </g>
        <path id="Trazado_16984" data-name="Trazado 16984" d="M-706.925-205.318s10.471,14.935,23.144,14.106a2.921,2.921,0,0,0,2.672-3.187c-.185-1.737-1.108-4.462-3.653-8.719Z" transform="translate(725.438 287.124)" fill="#ec9471"/>
      </g>
    </g>
    <g id="Grupo_3630" data-name="Grupo 3630" transform="translate(184.199)">
      <path id="Trazado_16985" data-name="Trazado 16985" d="M-602.592-235.011c0-20.355-22.219-35.521-43.728-22.565a20.778,20.778,0,0,0-5.622,5.445c-6.859,10.621-6.615,21.256-2.4,29.524l-.029,0,.221.4c.1.188.206.375.31.562l20.417,36.92a3.953,3.953,0,0,0,6.918,0l20.459-36.991c.081-.146.162-.288.24-.437l.11-.2h-.013A27.238,27.238,0,0,0-602.592-235.011Z" transform="translate(657.334 262.383)" fill="#5b211f"/>
      <path id="Trazado_16986" data-name="Trazado 16986" d="M-626.7-242.983A11.083,11.083,0,0,1-637.784-231.9a11.083,11.083,0,0,1-11.081-11.083,11.081,11.081,0,0,1,11.081-11.081A11.082,11.082,0,0,1-626.7-242.983Z" transform="translate(665.155 270.064)" fill="#fff"/>
    </g>
  </g>
</svg>
