<svg xmlns="http://www.w3.org/2000/svg" xmlns:xlink="http://www.w3.org/1999/xlink" width="268.664" height="336.344" viewBox="0 0 268.664 336.344">
  <defs>
    <clipPath id="clip-path">
      <path id="Trazado_17040" data-name="Trazado 17040" d="M-79.121-311.871l-26.39,183.819A32.01,32.01,0,0,0-74.2-89.4H125.058a32.009,32.009,0,0,0,32.009-32.009L122.922-305.232c-5.03-17.217-16.128-32.009-33.806-32.009H-47.807A32.01,32.01,0,0,0-79.121-311.871Z" transform="translate(106.218 337.241)" fill="none"/>
    </clipPath>
    <linearGradient id="linear-gradient" x1="0.5" x2="0.5" y2="1" gradientUnits="objectBoundingBox">
      <stop offset="0" stop-color="#ffcf00"/>
      <stop offset="1" stop-color="#ff9100"/>
    </linearGradient>
    <linearGradient id="linear-gradient-2" x1="0.5" x2="0.5" y2="1" gradientUnits="objectBoundingBox">
      <stop offset="0" stop-color="#208dfe"/>
      <stop offset="1" stop-color="#3a56ff"/>
    </linearGradient>
  </defs>
  <g id="_4_Onboarding_image" data-name="4_Onboarding  image" transform="translate(0 0.503)">
    <g id="Grupo_3707" data-name="Grupo 3707" transform="translate(5.379 88.003)">
      <path id="Trazado_17029" data-name="Trazado 17029" d="M-79.121-311.871l-26.39,183.819A32.01,32.01,0,0,0-74.2-89.4H125.058a32.009,32.009,0,0,0,32.009-32.009L122.922-305.232c-5.03-17.217-16.128-32.009-33.806-32.009H-47.807A32.01,32.01,0,0,0-79.121-311.871Z" transform="translate(106.218 337.241)" fill="#e9efff"/>
      <g id="Grupo_3706" data-name="Grupo 3706">
        <g id="Grupo_3705" data-name="Grupo 3705" clip-path="url(#clip-path)">
          <g id="Grupo_3701" data-name="Grupo 3701" transform="translate(-9.914 114.75)">
            <rect id="Rectángulo_3440" data-name="Rectángulo 3440" width="290.825" height="36.618" transform="translate(0 102.672)" fill="#d3dfff"/>
            <g id="Grupo_3685" data-name="Grupo 3685" transform="translate(0 39.195)">
              <rect id="Rectángulo_3441" data-name="Rectángulo 3441" width="19.837" height="25.525" transform="translate(45.449 14.914)" fill="#adc6fe"/>
              <rect id="Rectángulo_3442" data-name="Rectángulo 3442" width="19.837" height="36.272" transform="translate(167.392)" fill="#adc6fe"/>
              <rect id="Rectángulo_3443" data-name="Rectángulo 3443" width="26.548" height="24.131" transform="translate(223.528 12.141)" fill="#adc6fe"/>
              <rect id="Rectángulo_3444" data-name="Rectángulo 3444" width="19.837" height="25.525" transform="translate(90.367 6.049)" fill="#adc6fe"/>
              <rect id="Rectángulo_3445" data-name="Rectángulo 3445" width="19.836" height="25.525" transform="translate(127.899 19.864)" fill="#adc6fe"/>
              <rect id="Rectángulo_3446" data-name="Rectángulo 3446" width="282.715" height="33.493" transform="translate(0 29.983)" fill="#adc6fe"/>
              <rect id="Rectángulo_3447" data-name="Rectángulo 3447" width="19.836" height="25.525" transform="translate(25.613 4.458)" fill="#adc6fe"/>
            </g>
            <g id="Grupo_3690" data-name="Grupo 3690" transform="translate(102.685 19.276)">
              <rect id="Rectángulo_3448" data-name="Rectángulo 3448" width="30.215" height="83.397" fill="#bed0fe"/>
              <g id="Grupo_3689" data-name="Grupo 3689" transform="translate(4.092 5.973)">
                <g id="Grupo_3686" data-name="Grupo 3686">
                  <rect id="Rectángulo_3449" data-name="Rectángulo 3449" width="6.007" height="11.821" fill="#fff"/>
                  <rect id="Rectángulo_3450" data-name="Rectángulo 3450" width="6.007" height="11.821" transform="translate(15.115)" fill="#fff"/>
                </g>
                <g id="Grupo_3687" data-name="Grupo 3687" transform="translate(0 18.022)">
                  <rect id="Rectángulo_3451" data-name="Rectángulo 3451" width="6.007" height="11.821" fill="#fff"/>
                  <rect id="Rectángulo_3452" data-name="Rectángulo 3452" width="6.007" height="11.821" transform="translate(15.115)" fill="#fff"/>
                </g>
                <g id="Grupo_3688" data-name="Grupo 3688" transform="translate(0 36.043)">
                  <rect id="Rectángulo_3453" data-name="Rectángulo 3453" width="6.007" height="11.821" fill="#fff"/>
                  <rect id="Rectángulo_3454" data-name="Rectángulo 3454" width="6.007" height="11.821" transform="translate(15.115)" fill="#fff"/>
                </g>
              </g>
            </g>
            <g id="Grupo_3694" data-name="Grupo 3694" transform="translate(144.938 29.134)">
              <rect id="Rectángulo_3455" data-name="Rectángulo 3455" width="30.214" height="73.538" transform="translate(0)" fill="#edd8c0"/>
              <g id="Grupo_3693" data-name="Grupo 3693" transform="translate(4.092 14.136)">
                <g id="Grupo_3691" data-name="Grupo 3691">
                  <rect id="Rectángulo_3456" data-name="Rectángulo 3456" width="6.007" height="11.821" fill="#e0cab1"/>
                  <rect id="Rectángulo_3457" data-name="Rectángulo 3457" width="6.007" height="11.821" transform="translate(15.115)" fill="#e0cab1"/>
                </g>
                <g id="Grupo_3692" data-name="Grupo 3692" transform="translate(0 18.022)">
                  <rect id="Rectángulo_3458" data-name="Rectángulo 3458" width="6.007" height="11.821" fill="#e0cab1"/>
                  <rect id="Rectángulo_3459" data-name="Rectángulo 3459" width="6.007" height="11.821" transform="translate(15.115)" fill="#e0cab1"/>
                </g>
              </g>
            </g>
            <g id="Grupo_3697" data-name="Grupo 3697" transform="translate(54.853)">
              <g id="Grupo_3695" data-name="Grupo 3695">
                <rect id="Rectángulo_3460" data-name="Rectángulo 3460" width="36.448" height="102.672" fill="#bed0fe"/>
              </g>
              <g id="Grupo_3696" data-name="Grupo 3696" transform="translate(5.664 13.751)">
                <rect id="Rectángulo_3461" data-name="Rectángulo 3461" width="2.743" height="40.479" fill="#fff"/>
                <rect id="Rectángulo_3462" data-name="Rectángulo 3462" width="2.743" height="40.479" transform="translate(7.342)" fill="#fff"/>
                <rect id="Rectángulo_3463" data-name="Rectángulo 3463" width="2.743" height="40.479" transform="translate(14.685)" fill="#fff"/>
                <rect id="Rectángulo_3464" data-name="Rectángulo 3464" width="2.743" height="40.479" transform="translate(22.027)" fill="#fff"/>
              </g>
            </g>
            <g id="Grupo_3700" data-name="Grupo 3700" transform="translate(187.229)">
              <g id="Grupo_3698" data-name="Grupo 3698" transform="translate(0)">
                <rect id="Rectángulo_3465" data-name="Rectángulo 3465" width="36.448" height="102.672" fill="#bed0fe"/>
              </g>
              <g id="Grupo_3699" data-name="Grupo 3699" transform="translate(5.664 13.751)">
                <rect id="Rectángulo_3466" data-name="Rectángulo 3466" width="2.743" height="40.479" fill="#fff"/>
                <rect id="Rectángulo_3467" data-name="Rectángulo 3467" width="2.743" height="40.479" transform="translate(7.342)" fill="#fff"/>
                <rect id="Rectángulo_3468" data-name="Rectángulo 3468" width="2.743" height="40.479" transform="translate(14.685)" fill="#fff"/>
                <rect id="Rectángulo_3469" data-name="Rectángulo 3469" width="2.743" height="40.479" transform="translate(22.027)" fill="#fff"/>
              </g>
            </g>
          </g>
          <g id="Grupo_3704" data-name="Grupo 3704" transform="translate(-47.772 169.756)">
            <path id="Trazado_17030" data-name="Trazado 17030" d="M-99.1-233.968h9.935s-.631-5.088-1.017-6.184c-.368-1.059-.722-2.631-3.95-2.631-2.937,0-3.779,1.391-4.09,2.631S-99.1-233.968-99.1-233.968Z" transform="translate(159.66 242.783)" fill="#fff"/>
            <path id="Trazado_17031" data-name="Trazado 17031" d="M-120.922-224.456h-10.553l1.4-5.431h9.155Z" transform="translate(133.855 253.063)" fill="#ed5933"/>
            <path id="Trazado_17032" data-name="Trazado 17032" d="M10.358-202.488a13.266,13.266,0,0,0-.658-9.137,16.871,16.871,0,0,0-.87-1.808,21.451,21.451,0,0,0-4.2-4.525A20.321,20.321,0,0,0-.3-220.1c-3.582-1.037-14.73-2.308-14.73-2.308l-9.956-.906-7.9-4.419s-8.413-4.845-11.354-6.184a54.964,54.964,0,0,0-18.877-4.126c-13.463,0-20.624.244-27.285,1.774-3.738.861-14.543,4.892-14.543,4.892l-12.2,4.279s-8.217-.62-10.364.821c-.787.53-1.671,3.375-1.671,3.375l6.935.14-1.335,4.139-6.6.248-1.091,1.941a11.681,11.681,0,0,0-1.312,7.936c.487,2.509,1.328,5.323,2.737,6.331,1.9,1.362,14.875,2.14,14.875,2.14s-.927-13.579,12.106-13.906c6.534-.165,11.191,4.568,11.973,9.133.25,1.466.494,5.925.494,5.925l65.4.987h0l.016,0v-.755c.16-4.371,1.644-14.8,13.286-14.8,12.837,0,12.1,15.49,12.1,15.49s6.313-.3,8.188-1.666A5.506,5.506,0,0,0,10.358-202.488Z" transform="translate(132.8 246.566)" fill="url(#linear-gradient)"/>
            <path id="Trazado_17033" data-name="Trazado 17033" d="M-83.2-226.313l-.627-10.167s-10.415-.072-14.757.827a37.182,37.182,0,0,0-8.4,3.767,45.975,45.975,0,0,0-6.75,4.946Z" transform="translate(148.003 247.807)" fill="#272425"/>
            <path id="Trazado_17034" data-name="Trazado 17034" d="M-93.187-225.811-94.6-236.52a51.626,51.626,0,0,1,10.909,1.369c7.562,1.855,19.778,10.83,19.778,10.83Z" transform="translate(163.252 247.776)" fill="#272425"/>
            <line id="Línea_196" data-name="Línea 196" x2="1.863" y2="21.549" transform="translate(70.066 21.964)" fill="none" stroke="#efac06" stroke-miterlimit="10" stroke-width="0.5"/>
            <line id="Línea_197" data-name="Línea 197" x2="66.161" y2="1.082" transform="translate(42.065 43.151)" fill="none" stroke="#efac06" stroke-miterlimit="10" stroke-width="0.5"/>
            <line id="Línea_198" data-name="Línea 198" x2="3.214" y2="20.237" transform="translate(99.341 23.455)" fill="none" stroke="#efac06" stroke-miterlimit="10" stroke-width="0.5"/>
            <line id="Línea_199" data-name="Línea 199" x2="0.698" y2="12.442" transform="translate(34.274 20.866)" fill="none" stroke="#efac06" stroke-miterlimit="10" stroke-width="0.5"/>
            <rect id="Rectángulo_3470" data-name="Rectángulo 3470" width="5.558" height="2.021" transform="translate(38.114 25.891)" fill="#efac06"/>
            <rect id="Rectángulo_3471" data-name="Rectángulo 3471" width="5.558" height="2.021" transform="translate(73.689 25.891)" fill="#efac06"/>
            <path id="Trazado_17035" data-name="Trazado 17035" d="M-53.1-226.865h-6.357a.927.927,0,0,0-.7,1.542h0a14.27,14.27,0,0,0,10.939,4.813l1.181-.022A14.709,14.709,0,0,0-53.1-226.865Z" transform="translate(190.527 255.472)" fill="#fff"/>
            <g id="Grupo_3702" data-name="Grupo 3702" transform="translate(19.211 34.047)">
              <path id="Trazado_17036" data-name="Trazado 17036" d="M-100.188-212.843a10.978,10.978,0,0,1-10.961,10.993,10.978,10.978,0,0,1-10.961-10.993,10.976,10.976,0,0,1,10.961-10.995A10.976,10.976,0,0,1-100.188-212.843Z" transform="translate(122.11 223.838)" fill="#272425"/>
              <path id="Trazado_17037" data-name="Trazado 17037" d="M-109.3-215.654a4.656,4.656,0,0,1-4.647,4.662,4.656,4.656,0,0,1-4.647-4.662,4.654,4.654,0,0,1,4.647-4.66A4.654,4.654,0,0,1-109.3-215.654Z" transform="translate(124.91 226.647)" fill="#cfd1d2"/>
            </g>
            <g id="Grupo_3703" data-name="Grupo 3703" transform="translate(109.612 34.047)">
              <path id="Trazado_17038" data-name="Trazado 17038" d="M-49.886-212.843A10.979,10.979,0,0,1-60.847-201.85a10.978,10.978,0,0,1-10.961-10.993,10.976,10.976,0,0,1,10.961-10.995A10.977,10.977,0,0,1-49.886-212.843Z" transform="translate(71.808 223.838)" fill="#272425"/>
              <path id="Trazado_17039" data-name="Trazado 17039" d="M-59-215.654a4.656,4.656,0,0,1-4.647,4.662,4.656,4.656,0,0,1-4.647-4.662,4.654,4.654,0,0,1,4.647-4.66A4.654,4.654,0,0,1-59-215.654Z" transform="translate(74.608 226.647)" fill="#cfd1d2"/>
            </g>
          </g>
        </g>
      </g>
    </g>
    <g id="Grupo_3728" data-name="Grupo 3728" transform="translate(0 0.001)">
      <g id="Grupo_3711" data-name="Grupo 3711" transform="translate(193.28 0)">
        <g id="Grupo_3709" data-name="Grupo 3709" transform="translate(0)">
          <g id="Grupo_3708" data-name="Grupo 3708">
            <path id="Unión_3" data-name="Unión 3" d="M13.9,56.66,5.019,61.2l2.5-10.14a30.791,30.791,0,1,1,6.376,5.6Z" transform="translate(0 0)" stroke="rgba(0,0,0,0)" stroke-miterlimit="10" stroke-width="1" fill="url(#linear-gradient-2)"/>
          </g>
        </g>
        <g id="Grupo_3710" data-name="Grupo 3710" transform="translate(11.192 21.646)">
          <path id="Trazado_17042" data-name="Trazado 17042" d="M43.915-365.507v6.3a.787.787,0,0,1-.787.787h-6.3a.787.787,0,0,1-.785-.787v-6.3a.787.787,0,0,0-.787-.787h-6.3a.787.787,0,0,0-.787.784l-.025,6.3a.785.785,0,0,1-.785.784h-6.27a.787.787,0,0,1-.787-.787v-6.3a.787.787,0,0,0-.785-.787h-6.3a.787.787,0,0,0-.787.787h0v6.3a.787.787,0,0,1-.787.787h-6.3a.787.787,0,0,1-.787-.787v-6.249a.788.788,0,0,1,.782-.787l6.306-.041a.786.786,0,0,0,.782-.787v-6.3a.787.787,0,0,1,.787-.787h6.3a.787.787,0,0,1,.785.787v6.3a.787.787,0,0,0,.787.787h6.294a.787.787,0,0,0,.787-.787v0l-.025-6.29a.79.79,0,0,1,.785-.791h6.326a.787.787,0,0,1,.787.787v6.3a.786.786,0,0,0,.785.787h6.3A.787.787,0,0,1,43.915-365.507Z" transform="translate(-4.564 374.164)" fill="#fff" fill-rule="evenodd"/>
        </g>
      </g>
      <g id="Grupo_3727" data-name="Grupo 3727" transform="translate(0 48.656)">
        <g id="Grupo_3712" data-name="Grupo 3712" transform="translate(102.808 186.98)">
          <path id="Trazado_17043" data-name="Trazado 17043" d="M-33.234-255.093l-18.771,100.2H-4.114l6.357-30.667,3.479,30.667h50.27s1.368-78.038-17.6-91.939Z" transform="translate(52.005 255.093)" fill="url(#linear-gradient)"/>
          <line id="Línea_200" data-name="Línea 200" x1="16.493" y1="8.568" transform="translate(37.754 60.969)" fill="none" stroke="#000" stroke-linecap="round" stroke-linejoin="round" stroke-width="0.452"/>
        </g>
        <g id="Grupo_3723" data-name="Grupo 3723" transform="translate(0 30.398)">
          <path id="Trazado_17044" data-name="Trazado 17044" d="M-2.231-311.107l30.444,1.718s7.226,1.52,11.027,27.581c4.581,31.418,2.182,94.532,2.182,94.532l-84.691,3.963-3.566-106.981,6.389-16.18,19.061-3.337Z" transform="translate(158.934 367.023)" fill="url(#linear-gradient-2)"/>
          <g id="Grupo_3717" data-name="Grupo 3717">
            <path id="Trazado_17045" data-name="Trazado 17045" d="M-18.065-308.529s-9.4,1.4-20.533,15.741c-7.726,9.954-24.276,34.056-33.749,48.822a16.208,16.208,0,0,0,2.989,20.959h0c6.743,5.891,18.7,5.2,24.6-1.542l36.651-43.405Z" transform="translate(136.554 369.078)" fill="url(#linear-gradient-2)"/>
            <g id="Grupo_3716" data-name="Grupo 3716">
              <g id="Grupo_3714" data-name="Grupo 3714" transform="translate(24.91 42.944)">
                <path id="Trazado_17046" data-name="Trazado 17046" d="M-61.049-289.091l20.27,23.164A18.209,18.209,0,0,1-42.57-239.75h0a18.21,18.21,0,0,1-28.44-6.772l-9.937-23.739Z" transform="translate(106.832 341.629)" fill="url(#linear-gradient-2)"/>
                <g id="Grupo_3713" data-name="Grupo 3713">
                  <path id="Trazado_17047" data-name="Trazado 17047" d="M-81.512-318.325l41.4,64.662a15.032,15.032,0,0,1-4.459,20.822h0a15.031,15.031,0,0,1-21.96-6.707L-95.35-312.389Z" transform="translate(95.35 318.325)" fill="#ec9471"/>
                </g>
              </g>
              <g id="Grupo_3715" data-name="Grupo 3715">
                <path id="Trazado_17048" data-name="Trazado 17048" d="M-72.806-296.733s9.433-2.1,7.158-14.057l-2.967-15.452a2.77,2.77,0,0,0-3.569-2.113h0a2.768,2.768,0,0,0-1.914,2.433l-.678,8.973-12.844-23.7a3,3,0,0,0-4.471-.947h0a3,3,0,0,0-.859,3.709l7.442,15.049-1.134,1.227L-97.6-334.522a2.891,2.891,0,0,0-4.468.072h0a2.89,2.89,0,0,0,.052,3.663l10.747,12.747-1.087,1.456L-102.9-326.09a2.364,2.364,0,0,0-3.393.239h0a2.361,2.361,0,0,0,.189,3.231l10.885,10.3-.855,1.24-9.917-6.423a2.085,2.085,0,0,0-3.082,1.012h0a2.084,2.084,0,0,0,.746,2.442l11.372,8.028s5.251,16.189,13.344,13.975Z" transform="translate(109.211 342.221)" fill="#ec9471"/>
                <path id="Trazado_17049" data-name="Trazado 17049" d="M-86.7-328.159s-8.847,3-7.4,14.76" transform="translate(121.133 353.43)" fill="none" stroke="#000" stroke-linecap="round" stroke-linejoin="round" stroke-width="0.452"/>
              </g>
            </g>
          </g>
          <g id="Grupo_3722" data-name="Grupo 3722" transform="translate(163.826 57.498)">
            <g id="Grupo_3718" data-name="Grupo 3718" transform="translate(0)">
              <path id="Trazado_17050" data-name="Trazado 17050" d="M17.627-304.117,70.038-248.73,39.055-228.115l-50.268-45.738a20.91,20.91,0,0,1-3.123-27.364h0A20.91,20.91,0,0,1,17.627-304.117Z" transform="translate(18.052 310.227)" fill="url(#linear-gradient-2)"/>
              <line id="Línea_201" data-name="Línea 201" x2="18.963" y2="17.734" transform="translate(18.369 46.527)" fill="none" stroke="#000" stroke-linecap="round" stroke-linejoin="round" stroke-width="0.452"/>
            </g>
            <g id="Grupo_3721" data-name="Grupo 3721" transform="translate(20.341 57.362)">
              <g id="Grupo_3720" data-name="Grupo 3720">
                <path id="Trazado_17051" data-name="Trazado 17051" d="M10.275-246.647l6.576-21.69c4.175-8.9,18.5-12.546,27.232-8.035h0a17.329,17.329,0,0,1,4.493,27.453l-17.149,17.7Z" transform="translate(20.293 278.309)" fill="url(#linear-gradient-2)"/>
                <g id="Grupo_3719" data-name="Grupo 3719" transform="translate(0 17.277)">
                  <path id="Trazado_17052" data-name="Trazado 17052" d="M-6.734-206.179l35.018-56.273A14.3,14.3,0,0,1,48.2-266.179h0a14.3,14.3,0,0,1,2.171,21.74L1.758-190.819Z" transform="translate(6.734 268.695)" fill="#ec9471"/>
                </g>
              </g>
              <line id="Línea_202" data-name="Línea 202" x2="12.167" y2="22.898" transform="translate(0 79.793)" fill="none" stroke="#000" stroke-linecap="round" stroke-linejoin="round" stroke-width="0.452"/>
            </g>
          </g>
          <line id="Línea_203" data-name="Línea 203" x1="0.828" y1="23.247" transform="translate(112.674 95.57)" fill="none" stroke="#000" stroke-linecap="round" stroke-linejoin="round" stroke-width="0.452"/>
        </g>
        <g id="Grupo_3726" data-name="Grupo 3726" transform="translate(110.343)">
          <path id="Trazado_17053" data-name="Trazado 17053" d="M-10.609-328.754l2.768,30.789a6.975,6.975,0,0,1-2.248,5.78l-19.224,17.627-3.56-17.373-1.148-37.588Z" transform="translate(58.805 382.743)" fill="#ec9471"/>
          <path id="Trazado_17054" data-name="Trazado 17054" d="M-16.279-331.277s5.023,16.78-17.114,30.324l-.367-14.94Z" transform="translate(59.014 381.342)" fill="#030907"/>
          <path id="Trazado_17055" data-name="Trazado 17055" d="M-31.493-331.5a7.988,7.988,0,0,1-7.681,8.235,7.9,7.9,0,0,1-7.952-7.9,7.992,7.992,0,0,1,7.681-8.236A7.906,7.906,0,0,1-31.493-331.5Z" transform="translate(48.358 374.866)" fill="#db7d5d"/>
          <path id="Trazado_17056" data-name="Trazado 17056" d="M-26.188-293.068h0c-11-.521-18.653-9.771-18.514-19.062l.4-19.431c.174-11.644,9.263-21.075,20.54-21.314h0c11.543-.246,23.088,9.173,23.289,21.09L-.97-316.647C-1.4-303.016-12.982-293.35-26.188-293.068Z" transform="translate(50.29 364.121)" fill="#ec9471"/>
          <path id="Trazado_17057" data-name="Trazado 17057" d="M-3.623-311.988l-2.043-.275a1.46,1.46,0,0,1-1.256-1.589l.945-9.475s-6.915-2.031-4.753-12.8c0,0-25.1-11.247-31.055,7.877,0,0-6.968-2.875-2.471-9.467,0,0-9.365-9.435,2.306-17.594s34.135-2.293,42.862,8.6c0,0,29.154,5.228,7.942,33.283Z" transform="translate(47.812 359.135)" fill="#030907"/>
          <g id="Grupo_3724" data-name="Grupo 3724" transform="translate(43.643 39.582)">
            <ellipse id="Elipse_471" data-name="Elipse 471" cx="7.993" cy="7.741" rx="7.993" ry="7.741" transform="translate(0 15.966) rotate(-87.102)" fill="#ec9471"/>
            <path id="Trazado_17058" data-name="Trazado 17058" d="M-20.483-327.672s-1-7.248,5.382-6.43" transform="translate(25.909 339.456)" fill="none" stroke="#000" stroke-linecap="round" stroke-linejoin="round" stroke-width="0.452"/>
          </g>
          <g id="Grupo_3725" data-name="Grupo 3725" transform="translate(5.885 35.38)">
            <path id="Trazado_17059" data-name="Trazado 17059" d="M-38.837-333.1l-.653,4.977,2.643.185" transform="translate(48.562 344.508)" fill="none" stroke="#000" stroke-linecap="round" stroke-linejoin="round" stroke-width="0.452"/>
            <path id="Trazado_17060" data-name="Trazado 17060" d="M-29.988-339.38s-4.372-.51-4.475,1.33c0,0-.036,1.247,3.781,1.617s4.822.111,5.208-1.049S-27.932-339.3-29.988-339.38Z" transform="translate(52.569 339.451)" fill="#030907"/>
            <path id="Trazado_17061" data-name="Trazado 17061" d="M-40.874-339.433s3.63-.271,3.871,1.468c0,0,.135,1.177-3.043,1.342s-4.195-.286-4.464-1.24C-44.813-338.946-42.6-339.46-40.874-339.433Z" transform="translate(44.538 339.449)" fill="#030907"/>
            <path id="Trazado_17062" data-name="Trazado 17062" d="M-39.573-333.657a1.875,1.875,0,0,1-1.84,1.9,1.866,1.866,0,0,1-1.842-1.9,1.879,1.879,0,0,1,1.842-1.907A1.867,1.867,0,0,1-39.573-333.657Z" transform="translate(45.56 342.552)" fill="#030907"/>
            <path id="Trazado_17063" data-name="Trazado 17063" d="M-30.273-333.68a1.875,1.875,0,0,1-1.84,1.9,1.868,1.868,0,0,1-1.842-1.9,1.877,1.877,0,0,1,1.842-1.9A1.866,1.866,0,0,1-30.273-333.68Z" transform="translate(52.974 342.534)" fill="#030907"/>
            <path id="Trazado_17064" data-name="Trazado 17064" d="M-31.844-328.812s-2.834,3.409-6.576,1.921" transform="translate(49.414 347.928)" fill="none" stroke="#000" stroke-linecap="round" stroke-linejoin="round" stroke-width="0.452"/>
          </g>
        </g>
      </g>
    </g>
  </g>
</svg>
