<svg id="_8_Phone_Verify_image" data-name="8_Phone Verify image" xmlns="http://www.w3.org/2000/svg" xmlns:xlink="http://www.w3.org/1999/xlink" width="265.495" height="267.107" viewBox="0 0 265.495 267.107">
  <defs>
    <clipPath id="clip-path">
      <path id="Trazado_17317" data-name="Trazado 17317" d="M-78.893-311.658-105.5-126.3A32.279,32.279,0,0,0-73.928-87.324H127A32.277,32.277,0,0,0,159.277-119.6L124.845-304.963c-5.072-17.361-16.263-32.278-34.09-32.278H-47.317A32.279,32.279,0,0,0-78.893-311.658Z" transform="translate(106.218 337.241)" fill="none"/>
    </clipPath>
  </defs>
  <g id="Grupo_3787" data-name="Grupo 3787" transform="translate(0 17.19)">
    <g id="Grupo_3786" data-name="Grupo 3786" transform="translate(0 0)">
      <path id="Trazado_17306" data-name="Trazado 17306" d="M-78.893-311.658-105.5-126.3A32.279,32.279,0,0,0-73.928-87.324H127A32.277,32.277,0,0,0,159.277-119.6L124.845-304.963c-5.072-17.361-16.263-32.278-34.09-32.278H-47.317A32.279,32.279,0,0,0-78.893-311.658Z" transform="translate(106.218 337.241)" fill="#e9efff"/>
      <g id="Grupo_3785" data-name="Grupo 3785">
        <g id="Grupo_3784" data-name="Grupo 3784" clip-path="url(#clip-path)">
          <g id="Grupo_3780" data-name="Grupo 3780" transform="translate(-9.998 115.713)">
            <rect id="Rectángulo_4905" data-name="Rectángulo 4905" width="293.266" height="36.925" transform="translate(0 103.534)" fill="#d3dfff"/>
            <g id="Grupo_3764" data-name="Grupo 3764" transform="translate(0 39.524)">
              <rect id="Rectángulo_4906" data-name="Rectángulo 4906" width="20.003" height="25.74" transform="translate(45.83 15.039)" fill="#adc6fe"/>
              <rect id="Rectángulo_4907" data-name="Rectángulo 4907" width="20.003" height="36.576" transform="translate(168.797)" fill="#adc6fe"/>
              <rect id="Rectángulo_4908" data-name="Rectángulo 4908" width="26.771" height="24.334" transform="translate(225.404 12.243)" fill="#adc6fe"/>
              <rect id="Rectángulo_4909" data-name="Rectángulo 4909" width="20.003" height="25.74" transform="translate(91.126 6.099)" fill="#adc6fe"/>
              <rect id="Rectángulo_4910" data-name="Rectángulo 4910" width="20.003" height="25.74" transform="translate(128.972 20.03)" fill="#adc6fe"/>
              <rect id="Rectángulo_4911" data-name="Rectángulo 4911" width="285.088" height="33.774" transform="translate(0 30.235)" fill="#adc6fe"/>
              <rect id="Rectángulo_4912" data-name="Rectángulo 4912" width="20.003" height="25.74" transform="translate(25.828 4.495)" fill="#adc6fe"/>
            </g>
            <g id="Grupo_3769" data-name="Grupo 3769" transform="translate(103.546 19.437)">
              <rect id="Rectángulo_4913" data-name="Rectángulo 4913" width="30.468" height="84.096" fill="#bed0fe"/>
              <g id="Grupo_3768" data-name="Grupo 3768" transform="translate(4.126 6.023)">
                <g id="Grupo_3765" data-name="Grupo 3765" transform="translate(0 0)">
                  <rect id="Rectángulo_4914" data-name="Rectángulo 4914" width="6.058" height="11.92" fill="#fff"/>
                  <rect id="Rectángulo_4915" data-name="Rectángulo 4915" width="6.058" height="11.92" transform="translate(15.242)" fill="#fff"/>
                </g>
                <g id="Grupo_3766" data-name="Grupo 3766" transform="translate(0 18.173)">
                  <rect id="Rectángulo_4916" data-name="Rectángulo 4916" width="6.058" height="11.92" transform="translate(0 0)" fill="#fff"/>
                  <rect id="Rectángulo_4917" data-name="Rectángulo 4917" width="6.058" height="11.92" transform="translate(15.242 0)" fill="#fff"/>
                </g>
                <g id="Grupo_3767" data-name="Grupo 3767" transform="translate(0 36.346)">
                  <rect id="Rectángulo_4918" data-name="Rectángulo 4918" width="6.058" height="11.92" fill="#fff"/>
                  <rect id="Rectángulo_4919" data-name="Rectángulo 4919" width="6.058" height="11.92" transform="translate(15.242)" fill="#fff"/>
                </g>
              </g>
            </g>
            <g id="Grupo_3773" data-name="Grupo 3773" transform="translate(146.155 29.378)">
              <rect id="Rectángulo_4920" data-name="Rectángulo 4920" width="30.468" height="74.155" fill="#bed0fe"/>
              <g id="Grupo_3772" data-name="Grupo 3772" transform="translate(4.126 14.255)">
                <g id="Grupo_3770" data-name="Grupo 3770" transform="translate(0 0)">
                  <rect id="Rectángulo_4921" data-name="Rectángulo 4921" width="6.058" height="11.92" fill="#fff"/>
                  <rect id="Rectángulo_4922" data-name="Rectángulo 4922" width="6.058" height="11.92" transform="translate(15.242)" fill="#fff"/>
                </g>
                <g id="Grupo_3771" data-name="Grupo 3771" transform="translate(0 18.173)">
                  <rect id="Rectángulo_4923" data-name="Rectángulo 4923" width="6.058" height="11.92" fill="#fff"/>
                  <rect id="Rectángulo_4924" data-name="Rectángulo 4924" width="6.058" height="11.92" transform="translate(15.242)" fill="#fff"/>
                </g>
              </g>
            </g>
            <g id="Grupo_3776" data-name="Grupo 3776" transform="translate(55.313)">
              <g id="Grupo_3774" data-name="Grupo 3774">
                <rect id="Rectángulo_4925" data-name="Rectángulo 4925" width="36.754" height="103.534" fill="#bed0fe"/>
              </g>
              <g id="Grupo_3775" data-name="Grupo 3775" transform="translate(5.711 13.867)">
                <rect id="Rectángulo_4926" data-name="Rectángulo 4926" width="2.766" height="40.819" transform="translate(0)" fill="#fff"/>
                <rect id="Rectángulo_4927" data-name="Rectángulo 4927" width="2.766" height="40.819" transform="translate(7.404)" fill="#fff"/>
                <rect id="Rectángulo_4928" data-name="Rectángulo 4928" width="2.766" height="40.819" transform="translate(14.808)" fill="#fff"/>
                <rect id="Rectángulo_4929" data-name="Rectángulo 4929" width="2.766" height="40.819" transform="translate(22.212)" fill="#fff"/>
              </g>
            </g>
            <g id="Grupo_3779" data-name="Grupo 3779" transform="translate(188.8)">
              <g id="Grupo_3777" data-name="Grupo 3777" transform="translate(0)">
                <rect id="Rectángulo_4930" data-name="Rectángulo 4930" width="36.754" height="103.534" fill="#bed0fe"/>
              </g>
              <g id="Grupo_3778" data-name="Grupo 3778" transform="translate(5.711 13.867)">
                <rect id="Rectángulo_4931" data-name="Rectángulo 4931" width="2.766" height="40.819" transform="translate(0)" fill="#fff"/>
                <rect id="Rectángulo_4932" data-name="Rectángulo 4932" width="2.766" height="40.819" transform="translate(7.404)" fill="#fff"/>
                <rect id="Rectángulo_4933" data-name="Rectángulo 4933" width="2.766" height="40.819" transform="translate(14.808)" fill="#fff"/>
                <rect id="Rectángulo_4934" data-name="Rectángulo 4934" width="2.766" height="40.819" transform="translate(22.212)" fill="#fff"/>
              </g>
            </g>
          </g>
          <g id="Grupo_4053" data-name="Grupo 4053" transform="translate(-28.667 172.543)">
            <path id="Trazado_17213" data-name="Trazado 17213" d="M-99.1-234.023h9.289s-.59-5.056-.951-6.146c-.344-1.052-.676-2.615-3.693-2.615-2.746,0-3.534,1.382-3.824,2.615S-99.1-234.023-99.1-234.023Z" transform="translate(155.725 242.783)" fill="#fff"/>
            <path id="Trazado_17214" data-name="Trazado 17214" d="M-121.608-224.49h-9.868l1.308-5.4h8.56Z" transform="translate(133.7 252.919)" fill="#ed5933"/>
            <path id="Trazado_17215" data-name="Trazado 17215" d="M1.054-202.71a13.95,13.95,0,0,0-.615-9.08,17.241,17.241,0,0,0-.813-1.8,20.875,20.875,0,0,0-3.925-4.5,18.435,18.435,0,0,0-4.616-2.124c-3.349-1.031-13.772-2.293-13.772-2.293L-32-223.4l-7.387-4.392S-47.25-232.607-50-233.937a48.835,48.835,0,0,0-17.65-4.1c-12.588,0-19.284.243-25.511,1.763-3.5.855-13.6,4.861-13.6,4.861l-11.408,4.252s-7.683-.616-9.691.816c-.736.527-1.563,3.354-1.563,3.354l6.484.139-1.249,4.113-6.174.246-1.02,1.929a12.24,12.24,0,0,0-1.227,7.887c.455,2.493,1.242,5.29,2.559,6.292,1.779,1.354,13.908,2.127,13.908,2.127s-.867-13.495,11.319-13.82A11.125,11.125,0,0,1-93.624-205c.234,1.457.462,5.888.462,5.888l61.15.98h0l.015,0v-.75c.15-4.343,1.538-14.706,12.423-14.706,12,0,11.312,15.393,11.312,15.393s5.9-.3,7.656-1.656A5.529,5.529,0,0,0,1.054-202.71Z" transform="translate(132.8 246.512)"/>
            <path id="Trazado_17216" data-name="Trazado 17216" d="M-85.18-226.376l-.586-10.1s-9.738-.071-13.8.822a33.758,33.758,0,0,0-7.852,3.743A43.317,43.317,0,0,0-113.728-227Z" transform="translate(145.775 247.736)" fill="#272425"/>
            <path id="Trazado_17217" data-name="Trazado 17217" d="M-93.279-225.877-94.6-236.52a45.542,45.542,0,0,1,10.2,1.361c7.071,1.843,18.492,10.762,18.492,10.762Z" transform="translate(158.79 247.706)" fill="#272425"/>
            <line id="Línea_204" data-name="Línea 204" x2="1.742" y2="21.415" transform="translate(65.512 21.827)" fill="none" stroke="#c9c9c9" stroke-miterlimit="10" stroke-width="0.5"/>
            <line id="Línea_205" data-name="Línea 205" x2="61.861" y2="1.075" transform="translate(39.331 42.883)" fill="none" stroke="#c9c9c9" stroke-miterlimit="10" stroke-width="0.5"/>
            <line id="Línea_206" data-name="Línea 206" x2="3.005" y2="20.111" transform="translate(92.885 23.309)" fill="none" stroke="#c9c9c9" stroke-miterlimit="10" stroke-width="0.5"/>
            <line id="Línea_207" data-name="Línea 207" x2="0.653" y2="12.365" transform="translate(32.047 20.736)" fill="none" stroke="#c9c9c9" stroke-miterlimit="10" stroke-width="0.5"/>
            <rect id="Rectángulo_3503" data-name="Rectángulo 3503" width="5.197" height="2.008" transform="translate(35.637 25.73)" fill="#9b9b9b" stroke="rgba(0,0,0,0)" stroke-width="1"/>
            <rect id="Rectángulo_3504" data-name="Rectángulo 3504" width="5.197" height="2.008" transform="translate(68.899 25.73)" fill="#c9c9c9"/>
            <path id="Trazado_17218" data-name="Trazado 17218" d="M-53.569-226.865h-5.943a.929.929,0,0,0-.65,1.532h0a13,13,0,0,0,10.228,4.783l1.1-.021A14.585,14.585,0,0,0-53.569-226.865Z" transform="translate(182.069 255.294)" fill="#fff"/>
            <g id="Grupo_3755" data-name="Grupo 3755" transform="translate(17.962 33.835)">
              <path id="Trazado_17219" data-name="Trazado 17219" d="M-101.613-212.911c0,6.031-4.587,10.925-10.248,10.925s-10.249-4.894-10.249-10.925,4.587-10.927,10.249-10.927S-101.613-218.948-101.613-212.911Z" transform="translate(122.11 223.838)" fill="#272425"/>
              <path id="Trazado_17220" data-name="Trazado 17220" d="M-109.906-215.683a4.5,4.5,0,0,1-4.345,4.633,4.5,4.5,0,0,1-4.345-4.633,4.5,4.5,0,0,1,4.345-4.631A4.5,4.5,0,0,1-109.906-215.683Z" transform="translate(124.5 226.608)" fill="#cfd1d2"/>
            </g>
            <g id="Grupo_3756" data-name="Grupo 3756" transform="translate(102.488 33.835)">
              <path id="Trazado_17221" data-name="Trazado 17221" d="M-51.311-212.911c0,6.031-4.589,10.925-10.248,10.925s-10.248-4.894-10.248-10.925,4.587-10.927,10.248-10.927S-51.311-218.948-51.311-212.911Z" transform="translate(71.808 223.838)" fill="#272425"/>
              <path id="Trazado_17222" data-name="Trazado 17222" d="M-59.6-215.683a4.5,4.5,0,0,1-4.345,4.633,4.5,4.5,0,0,1-4.345-4.633,4.5,4.5,0,0,1,4.345-4.631A4.5,4.5,0,0,1-59.6-215.683Z" transform="translate(74.198 226.608)" fill="#cfd1d2"/>
            </g>
          </g>
        </g>
      </g>
    </g>
  </g>
  <g id="Email_campaign-rafiki" data-name="Email campaign-rafiki" transform="translate(72.843 0)">
    <g id="freepik--Phone--inject-243" transform="translate(9.12 0)">
      <g id="freepik--group--inject-243" transform="translate(0 0)">
        <rect id="Rectángulo_4881" data-name="Rectángulo 4881" width="103.452" height="182.767" rx="10.4" fill="#2e353a"/>
        <path id="Trazado_17284" data-name="Trazado 17284" d="M208.595,87.294v170.2a2.464,2.464,0,0,1-.756,1.773,2.562,2.562,0,0,1-1.818.715H114.3a2.3,2.3,0,0,1-1.644-.662A2.207,2.207,0,0,1,112,257.7V87.089a1.986,1.986,0,0,1,.543-1.446A2.064,2.064,0,0,1,113.969,85H136.9a1.613,1.613,0,0,1,1.476,1.012l.949,2.294a1.613,1.613,0,0,0,1.476,1h39.039a1.6,1.6,0,0,0,1.476-.985l.933-2.3A1.646,1.646,0,0,1,183.743,85h22.6A2.292,2.292,0,0,1,208.595,87.294Z" transform="translate(-108.538 -81.168)" fill="#c9c9c9"/>
        <rect id="Rectángulo_4882" data-name="Rectángulo 4882" width="96.596" height="21.258" transform="translate(3.46 14.864)" fill="#fff" opacity="0.2"/>
        <rect id="Rectángulo_4883" data-name="Rectángulo 4883" width="1.168" height="1.561" transform="translate(15.311 10.683) rotate(180)" fill="#fff" opacity="0.6"/>
        <rect id="Rectángulo_4884" data-name="Rectángulo 4884" width="1.168" height="2.083" transform="translate(13.406 10.688) rotate(180)" fill="#fff" opacity="0.6"/>
        <rect id="Rectángulo_4885" data-name="Rectángulo 4885" width="1.168" height="2.599" transform="translate(11.501 10.688) rotate(180)" fill="#fff" opacity="0.6"/>
        <rect id="Rectángulo_4886" data-name="Rectángulo 4886" width="1.168" height="3.121" transform="translate(9.59 10.683) rotate(180)" fill="#fff" opacity="0.6"/>
        <rect id="Rectángulo_4887" data-name="Rectángulo 4887" width="0.694" height="1.561" transform="translate(88.889 8.557)" fill="#fff" opacity="0.6"/>
        <rect id="Rectángulo_4888" data-name="Rectángulo 4888" width="5.527" height="2.696" transform="translate(95.579 10.688) rotate(180)" fill="#fff" opacity="0.6"/>
        <circle id="Elipse_472" data-name="Elipse 472" cx="1.302" cy="1.302" r="1.302" transform="translate(48.269 2.75)" fill="#fff" opacity="0.6"/>
        <path id="Trazado_17285" data-name="Trazado 17285" d="M201.888,84.694a.834.834,0,1,1-.834-.834A.834.834,0,0,1,201.888,84.694Z" transform="translate(-148.325 -80.642)" fill="#fff" opacity="0.6"/>
        <path id="Trazado_17286" data-name="Trazado 17286" d="M208.6,350v29.8a2.463,2.463,0,0,1-.756,1.772,2.562,2.562,0,0,1-1.818.715H114.3a2.3,2.3,0,0,1-1.644-.662,2.205,2.205,0,0,1-.655-1.62V350Z" transform="translate(-108.539 -203.479)" fill="#fff" opacity="0.2"/>
        <path id="Trazado_17287" data-name="Trazado 17287" d="M131.33,217.586l37.863-31.026,37.857,31.026-29.684,38.829-26.66-.522Z" transform="translate(-117.467 -128.033)" fill="#242a37"/>
        <rect id="Rectángulo_4889" data-name="Rectángulo 4889" width="54.398" height="76.787" rx="2.25" transform="translate(24.525 48.297)" fill="#fff"/>
        <rect id="Rectángulo_4890" data-name="Rectángulo 4890" width="41.343" height="1.561" rx="0.72" transform="translate(31.055 55.217)" opacity="0.2"/>
        <rect id="Rectángulo_4891" data-name="Rectángulo 4891" width="41.343" height="1.561" rx="0.72" transform="translate(31.055 60.424)" opacity="0.2"/>
        <rect id="Rectángulo_4892" data-name="Rectángulo 4892" width="41.343" height="1.561" rx="0.72" transform="translate(31.055 65.63)" opacity="0.2"/>
        <rect id="Rectángulo_4893" data-name="Rectángulo 4893" width="41.343" height="1.561" rx="0.72" transform="translate(31.055 70.836)" opacity="0.2"/>
        <rect id="Rectángulo_4894" data-name="Rectángulo 4894" width="41.343" height="1.561" rx="0.72" transform="translate(31.055 76.043)" opacity="0.2"/>
        <rect id="Rectángulo_4895" data-name="Rectángulo 4895" width="41.343" height="1.561" rx="0.72" transform="translate(31.055 81.249)" opacity="0.2"/>
        <rect id="Rectángulo_4896" data-name="Rectángulo 4896" width="41.343" height="1.561" rx="0.72" transform="translate(31.055 86.455)" opacity="0.2"/>
        <rect id="Rectángulo_4897" data-name="Rectángulo 4897" width="41.343" height="1.561" rx="0.72" transform="translate(31.055 91.656)" opacity="0.2"/>
        <rect id="Rectángulo_4898" data-name="Rectángulo 4898" width="41.343" height="1.561" rx="0.72" transform="translate(31.055 96.862)" opacity="0.2"/>
        <path id="Trazado_17289" data-name="Trazado 17289" d="M171.072,271.27l-.21-.113a2.567,2.567,0,0,0-2.456,0l-1.021.565L131,244.21v45.411a2.356,2.356,0,0,0,.737,1.7,2.479,2.479,0,0,0,1.757.677h71.1c1.369,0,2.009-1.028,2.009-2.373V244.21Z" transform="translate(-117.314 -154.647)" fill="#5b211f"/>
        <path id="Trazado_17291" data-name="Trazado 17291" d="M173.81,293.04l1.6,1.243L150.34,308.518Z" transform="translate(-125.655 -177.196)" opacity="0.2"/>
        <path id="Trazado_17292" data-name="Trazado 17292" d="M230.965,308.9,203.54,293.69l1.265-.99Z" transform="translate(-149.48 -177.039)" opacity="0.2"/>
        <rect id="Rectángulo_4899" data-name="Rectángulo 4899" width="30.854" height="2.868" rx="0.83" transform="translate(37.252 18.185)" fill="#407bff"/>
        <path id="Trazado_17293" data-name="Trazado 17293" d="M262.277,136.59H248.462a1.8,1.8,0,0,1-1.792-1.8h0A1.792,1.792,0,0,1,248.462,133h13.815a1.792,1.792,0,0,1,1.792,1.792h0A1.8,1.8,0,0,1,262.277,136.59Z" transform="translate(-168.856 -103.336)" fill="#407bff"/>
        <rect id="Rectángulo_4900" data-name="Rectángulo 4900" width="13.815" height="13.094" transform="translate(10.279 151.004)" fill="#fff" opacity="0.43"/>
        <rect id="Rectángulo_4901" data-name="Rectángulo 4901" width="13.815" height="13.094" transform="translate(27.66 151.004)" fill="#fff" opacity="0.43"/>
        <rect id="Rectángulo_4902" data-name="Rectángulo 4902" width="13.815" height="13.094" transform="translate(44.827 151.004)" fill="#fff" opacity="0.43"/>
        <rect id="Rectángulo_4903" data-name="Rectángulo 4903" width="13.815" height="13.094" transform="translate(61.994 151.004)" fill="#fff" opacity="0.43"/>
        <rect id="Rectángulo_4904" data-name="Rectángulo 4904" width="13.815" height="13.094" transform="translate(79.374 151.004)" fill="#fff" opacity="0.43"/>
        <path id="Trazado_17294" data-name="Trazado 17294" d="M262.277,396.75H248.462a1.792,1.792,0,0,1-1.792-1.792h0a1.8,1.8,0,0,1,1.792-1.8h13.815a1.8,1.8,0,0,1,1.792,1.8h0a1.792,1.792,0,0,1-1.792,1.792Z" transform="translate(-168.856 -223.411)" fill="#fff" opacity="0.43"/>
        <path id="Trazado_17295" data-name="Trazado 17295" d="M195.918,78,105.57,203.89V148.119L155.847,78Z" transform="translate(-105.57 -77.935)" fill="#fff" opacity="0.1"/>
        <path id="Trazado_17296" data-name="Trazado 17296" d="M143.055,78,106,130.924V83.565A5.349,5.349,0,0,1,111.378,78Z" transform="translate(-105.765 -77.935)" fill="#fff" opacity="0.1"/>
      </g>
    </g>
    <g id="freepik--paper-plane--inject-243" transform="translate(0 7.291)">
      <g id="freepik--group--inject-243-2" data-name="freepik--group--inject-243" transform="translate(0 9.234)">
        <g id="freepik--group--inject-243-3" data-name="freepik--group--inject-243">
          <path id="Trazado_17297" data-name="Trazado 17297" d="M207.557,94.907c-22.488,3.342-52.442,12.76-78.169,24.573-16.74,7.685-45.939,22.986-53.4,39.1-2.234,4.844-2.254,9.332-.051,13.363s7.319,6.835,14.531,8.745V179.8c-6.886-1.835-11.792-4.488-13.848-8.261s-2.04-8.035.077-12.609c5.371-11.6,24.7-25.714,53.044-38.716,25.624-11.808,55.5-21.177,77.924-24.509a.4.4,0,0,0,.326-.457A.388.388,0,0,0,207.557,94.907Z" transform="translate(-74.297 -94.903)" fill="#5b211f"/>
          <path id="Trazado_17298" data-name="Trazado 17298" d="M207.557,94.907c-22.488,3.342-52.442,12.76-78.169,24.573-16.74,7.685-45.939,22.986-53.4,39.1-2.234,4.844-2.254,9.332-.051,13.363s7.319,6.835,14.531,8.745V179.8c-6.886-1.835-11.792-4.488-13.848-8.261s-2.04-8.035.077-12.609c5.371-11.6,24.7-25.714,53.044-38.716,25.624-11.808,55.5-21.177,77.924-24.509a.4.4,0,0,0,.326-.457A.388.388,0,0,0,207.557,94.907Z" transform="translate(-74.297 -94.903)" fill="#5b211f"/>
          <path id="Trazado_17299" data-name="Trazado 17299" d="M76.267,172.146a.375.375,0,0,1-.332-.2c-2.2-4.031-2.183-8.53.051-13.363,7.462-16.113,36.662-31.413,53.4-39.1,25.726-11.813,55.681-21.231,78.169-24.573a.388.388,0,0,1,.434.344.4.4,0,0,1-.326.457c-22.442,3.331-52.3,12.722-77.97,24.509-28.323,13-47.648,27.113-53,38.716-2.117,4.574-2.142,8.821-.077,12.609a.416.416,0,0,1-.143.538.363.363,0,0,1-.209.065Z" transform="translate(-74.297 -94.903)" fill="#5b211f"/>
        </g>
        <g id="Grupo_3763" data-name="Grupo 3763" opacity="0.8">
          <path id="Trazado_17300" data-name="Trazado 17300" d="M76.267,172.146a.375.375,0,0,1-.332-.2c-2.2-4.031-2.183-8.53.051-13.363,7.462-16.113,36.662-31.413,53.4-39.1,25.726-11.813,55.681-21.231,78.169-24.573a.388.388,0,0,1,.434.344.4.4,0,0,1-.326.457c-22.442,3.331-52.3,12.722-77.97,24.509-28.323,13-47.648,27.113-53,38.716-2.117,4.574-2.142,8.821-.077,12.609a.416.416,0,0,1-.143.538.363.363,0,0,1-.209.065Z" transform="translate(-74.297 -94.903)" fill="#5b211f"/>
        </g>
      </g>
      <g id="freepik--group--inject-243-4" data-name="freepik--group--inject-243" transform="translate(128.554 0)">
        <path id="Trazado_17301" data-name="Trazado 17301" d="M356.18,95.109,379.042,83l-20,6.582Z" transform="translate(-350.777 -83)" fill="#5b211f"/>
        <path id="Trazado_17302" data-name="Trazado 17302" d="M356.18,95.109,379.042,83l-20,6.582Z" transform="translate(-350.777 -83)" fill="#5b211f" opacity="0.3"/>
        <path id="Trazado_17303" data-name="Trazado 17303" d="M346.14,84.388l4.23,2.917,1.173,7.8,2.863-5.527,7.244,3.643L374.4,83Z" transform="translate(-346.14 -83)" fill="#5b211f"/>
        <path id="Trazado_17304" data-name="Trazado 17304" d="M346.14,84.388l4.23,2.917,1.173,7.8,2.863-5.527,7.244,3.643L374.4,83Z" transform="translate(-346.14 -83)" fill="#5b211f" opacity="0.6"/>
        <path id="Trazado_17305" data-name="Trazado 17305" d="M354,87.305,378.035,83l-20,6.582-2.863,5.527Z" transform="translate(-349.77 -83)" fill="#5b211f" opacity="0.2"/>
      </g>
    </g>
  </g>
</svg>
