<svg xmlns="http://www.w3.org/2000/svg" width="13.998" height="13.999" viewBox="0 0 13.998 13.999">
  <path id="Icon_awesome-pencil-alt" data-name="Icon awesome-pencil-alt" d="M13.615,3.889l-1.26,1.26a.328.328,0,0,1-.465,0L8.854,2.114a.328.328,0,0,1,0-.465l1.26-1.26a1.315,1.315,0,0,1,1.857,0l1.643,1.643A1.31,1.31,0,0,1,13.615,3.889ZM7.772,2.732.592,9.912l-.58,3.322a.657.657,0,0,0,.76.76l3.322-.582,7.18-7.18a.328.328,0,0,0,0-.465L8.239,2.732a.332.332,0,0,0-.468,0ZM3.394,9.3a.381.381,0,0,1,0-.541L7.6,4.545a.383.383,0,0,1,.541.541L3.936,9.3a.381.381,0,0,1-.541,0Zm-.987,2.3H3.72v.993L1.956,12.9l-.85-.85.309-1.764h.993Z" transform="translate(-0.002 -0.005)" fill="#515050"/>
</svg>
