<svg id="_6_Sign_Up_image" data-name="6_Sign Up image" xmlns="http://www.w3.org/2000/svg" xmlns:xlink="http://www.w3.org/1999/xlink" width="262" height="281" viewBox="0 0 262 281">
  <defs>
    <clipPath id="clip-path">
      <rect id="Rectángulo_5059" data-name="Rectángulo 5059" width="262" height="281" transform="translate(-2417 -2751)" fill="#fff"/>
    </clipPath>
    <clipPath id="clip-path-2">
      <path id="Trazado_17403" data-name="Trazado 17403" d="M128.5-312.028l26.225,182.675a31.811,31.811,0,0,1-31.119,38.407H-74.408a31.809,31.809,0,0,1-31.81-31.81l33.934-182.675c5-17.11,16.027-31.81,33.6-31.81H97.382A31.811,31.811,0,0,1,128.5-312.028Z" transform="translate(106.218 337.241)" fill="none"/>
    </clipPath>
  </defs>
  <g id="Enmascarar_grupo_6" data-name="Enmascarar grupo 6" transform="translate(2417 2751)" clip-path="url(#clip-path)">
    <g id="Grupo_3870" data-name="Grupo 3870" transform="translate(-2416.648 -2715.967)">
      <g id="Grupo_3869" data-name="Grupo 3869" transform="translate(0 0)">
        <path id="Trazado_17392" data-name="Trazado 17392" d="M128.5-312.028l26.225,182.675a31.811,31.811,0,0,1-31.119,38.407H-74.408a31.809,31.809,0,0,1-31.81-31.81l33.934-182.675c5-17.11,16.027-31.81,33.6-31.81H97.382A31.811,31.811,0,0,1,128.5-312.028Z" transform="translate(106.218 337.241)" fill="#e9efff"/>
        <g id="Grupo_3868" data-name="Grupo 3868">
          <g id="Grupo_3867" data-name="Grupo 3867" clip-path="url(#clip-path-2)">
            <g id="Grupo_3863" data-name="Grupo 3863" transform="translate(-17.515 114.036)">
              <rect id="Rectángulo_5003" data-name="Rectángulo 5003" width="289.015" height="36.39" transform="translate(0 102.033)" fill="#d3dfff"/>
              <g id="Grupo_3847" data-name="Grupo 3847" transform="translate(8.059 38.951)">
                <rect id="Rectángulo_5004" data-name="Rectángulo 5004" width="19.713" height="25.367" transform="translate(216.077 14.821)" fill="#adc6fe"/>
                <rect id="Rectángulo_5005" data-name="Rectángulo 5005" width="19.713" height="36.046" transform="translate(94.892)" fill="#adc6fe"/>
                <rect id="Rectángulo_5006" data-name="Rectángulo 5006" width="26.383" height="23.981" transform="translate(32.436 12.065)" fill="#adc6fe"/>
                <rect id="Rectángulo_5007" data-name="Rectángulo 5007" width="19.713" height="25.367" transform="translate(171.438 6.011)" fill="#adc6fe"/>
                <rect id="Rectángulo_5008" data-name="Rectángulo 5008" width="19.713" height="25.367" transform="translate(134.14 19.74)" fill="#adc6fe"/>
                <rect id="Rectángulo_5009" data-name="Rectángulo 5009" width="280.956" height="33.285" transform="translate(0 29.797)" fill="#adc6fe"/>
                <rect id="Rectángulo_5010" data-name="Rectángulo 5010" width="19.713" height="25.367" transform="translate(235.79 4.43)" fill="#adc6fe"/>
              </g>
              <g id="Grupo_3852" data-name="Grupo 3852" transform="translate(156.943 19.156)">
                <rect id="Rectángulo_5011" data-name="Rectángulo 5011" width="30.027" height="82.877" fill="#bed0fe"/>
                <g id="Grupo_3851" data-name="Grupo 3851" transform="translate(4.969 5.936)">
                  <g id="Grupo_3848" data-name="Grupo 3848" transform="translate(0 0)">
                    <rect id="Rectángulo_5012" data-name="Rectángulo 5012" width="5.97" height="11.747" transform="translate(15.021)" fill="#fff"/>
                    <rect id="Rectángulo_5013" data-name="Rectángulo 5013" width="5.97" height="11.747" fill="#fff"/>
                  </g>
                  <g id="Grupo_3849" data-name="Grupo 3849" transform="translate(0 17.909)">
                    <rect id="Rectángulo_5014" data-name="Rectángulo 5014" width="5.97" height="11.747" transform="translate(15.021 0)" fill="#fff"/>
                    <rect id="Rectángulo_5015" data-name="Rectángulo 5015" width="5.97" height="11.747" transform="translate(0 0)" fill="#fff"/>
                  </g>
                  <g id="Grupo_3850" data-name="Grupo 3850" transform="translate(0 35.819)">
                    <rect id="Rectángulo_5016" data-name="Rectángulo 5016" width="5.97" height="11.747" transform="translate(15.021)" fill="#fff"/>
                    <rect id="Rectángulo_5017" data-name="Rectángulo 5017" width="5.97" height="11.747" fill="#fff"/>
                  </g>
                </g>
              </g>
              <g id="Grupo_3856" data-name="Grupo 3856" transform="translate(114.952 28.952)">
                <rect id="Rectángulo_5018" data-name="Rectángulo 5018" width="30.026" height="73.081" transform="translate(0)" fill="#bed0fe"/>
                <g id="Grupo_3855" data-name="Grupo 3855" transform="translate(4.969 14.048)">
                  <g id="Grupo_3853" data-name="Grupo 3853" transform="translate(0 0)">
                    <rect id="Rectángulo_5019" data-name="Rectángulo 5019" width="5.97" height="11.747" transform="translate(15.021)" fill="#fff"/>
                    <rect id="Rectángulo_5020" data-name="Rectángulo 5020" width="5.97" height="11.747" fill="#fff"/>
                  </g>
                  <g id="Grupo_3854" data-name="Grupo 3854" transform="translate(0 17.909)">
                    <rect id="Rectángulo_5021" data-name="Rectángulo 5021" width="5.97" height="11.747" transform="translate(15.021)" fill="#fff"/>
                    <rect id="Rectángulo_5022" data-name="Rectángulo 5022" width="5.97" height="11.747" fill="#fff"/>
                  </g>
                </g>
              </g>
              <g id="Grupo_3859" data-name="Grupo 3859" transform="translate(198.283)">
                <g id="Grupo_3857" data-name="Grupo 3857">
                  <rect id="Rectángulo_5023" data-name="Rectángulo 5023" width="36.221" height="102.033" fill="#bed0fe"/>
                </g>
                <g id="Grupo_3858" data-name="Grupo 3858" transform="translate(5.977 13.666)">
                  <rect id="Rectángulo_5024" data-name="Rectángulo 5024" width="2.726" height="40.227" transform="translate(21.89)" fill="#fff"/>
                  <rect id="Rectángulo_5025" data-name="Rectángulo 5025" width="2.726" height="40.227" transform="translate(14.593)" fill="#fff"/>
                  <rect id="Rectángulo_5026" data-name="Rectángulo 5026" width="2.726" height="40.227" transform="translate(7.297)" fill="#fff"/>
                  <rect id="Rectángulo_5027" data-name="Rectángulo 5027" width="2.726" height="40.227" fill="#fff"/>
                </g>
              </g>
              <g id="Grupo_3862" data-name="Grupo 3862" transform="translate(66.73)">
                <g id="Grupo_3860" data-name="Grupo 3860" transform="translate(0)">
                  <rect id="Rectángulo_5028" data-name="Rectángulo 5028" width="36.221" height="102.033" fill="#bed0fe"/>
                </g>
                <g id="Grupo_3861" data-name="Grupo 3861" transform="translate(5.977 13.666)">
                  <rect id="Rectángulo_5029" data-name="Rectángulo 5029" width="2.726" height="40.227" transform="translate(21.89)" fill="#fff"/>
                  <rect id="Rectángulo_5030" data-name="Rectángulo 5030" width="2.726" height="40.227" transform="translate(14.593)" fill="#fff"/>
                  <rect id="Rectángulo_5031" data-name="Rectángulo 5031" width="2.726" height="40.227" transform="translate(7.297)" fill="#fff"/>
                  <rect id="Rectángulo_5032" data-name="Rectángulo 5032" width="2.726" height="40.227" transform="translate(0)" fill="#fff"/>
                </g>
              </g>
            </g>
            <g id="Grupo_4051" data-name="Grupo 4051" transform="translate(152.329 176.699)">
              <path id="Trazado_17213" data-name="Trazado 17213" d="M-89.231-234.023H-99.1s.627-5.056,1.011-6.146c.366-1.052.718-2.615,3.926-2.615,2.918,0,3.756,1.382,4.065,2.615S-89.231-234.023-89.231-234.023Z" transform="translate(171.844 242.783)" fill="#fff"/>
              <path id="Trazado_17214" data-name="Trazado 17214" d="M-131.476-224.49h10.488l-1.39-5.4h-9.1Z" transform="translate(261.415 252.919)" fill="#ed5933"/>
              <path id="Trazado_17215" data-name="Trazado 17215" d="M-132.274-202.71a13.183,13.183,0,0,1,.654-9.08,16.769,16.769,0,0,1,.864-1.8,21.317,21.317,0,0,1,4.172-4.5,20.194,20.194,0,0,1,4.906-2.124c3.559-1.031,14.638-2.293,14.638-2.293l9.894-.9,7.851-4.392s8.36-4.815,11.284-6.146a54.621,54.621,0,0,1,18.76-4.1c13.379,0,20.5.243,27.115,1.763,3.715.855,14.452,4.861,14.452,4.861l12.125,4.252s8.165-.616,10.3.816c.782.527,1.661,3.354,1.661,3.354l-6.892.139,1.327,4.113,6.562.246,1.084,1.929a11.608,11.608,0,0,1,1.3,7.887c-.484,2.493-1.32,5.29-2.72,6.292-1.891,1.354-14.783,2.127-14.783,2.127s.922-13.495-12.03-13.82c-6.494-.164-11.121,4.54-11.9,9.076-.248,1.457-.491,5.888-.491,5.888l-64.993.98h0l-.016,0v-.75c-.159-4.343-1.634-14.706-13.2-14.706-12.757,0-12.023,15.393-12.023,15.393s-6.274-.3-8.137-1.656A5.471,5.471,0,0,1-132.274-202.71Z" transform="translate(132.8 246.512)"/>
              <path id="Trazado_17216" data-name="Trazado 17216" d="M-113.728-226.376l.623-10.1s10.35-.071,14.665.822a36.95,36.95,0,0,1,8.346,3.743A45.689,45.689,0,0,1-83.386-227Z" transform="translate(192.117 247.736)" fill="#272425"/>
              <path id="Trazado_17217" data-name="Trazado 17217" d="M-65.5-225.877l1.4-10.643a51.3,51.3,0,0,0-10.841,1.361C-82.459-233.316-94.6-224.4-94.6-224.4Z" transform="translate(138.667 247.706)" fill="#272425"/>
              <line id="Línea_204" data-name="Línea 204" x1="1.851" y2="21.415" transform="translate(71.311 21.827)" fill="none" stroke="#c9c9c9" stroke-miterlimit="10" stroke-width="0.5"/>
              <line id="Línea_205" data-name="Línea 205" x1="65.75" y2="1.075" transform="translate(35.24 42.883)" fill="none" stroke="#c9c9c9" stroke-miterlimit="10" stroke-width="0.5"/>
              <line id="Línea_206" data-name="Línea 206" x1="3.194" y2="20.111" transform="translate(40.875 23.309)" fill="none" stroke="#c9c9c9" stroke-miterlimit="10" stroke-width="0.5"/>
              <line id="Línea_207" data-name="Línea 207" x1="0.694" y2="12.365" transform="translate(108.038 20.736)" fill="none" stroke="#c9c9c9" stroke-miterlimit="10" stroke-width="0.5"/>
              <rect id="Rectángulo_3503" data-name="Rectángulo 3503" width="5.524" height="2.008" transform="translate(99.391 25.73)" fill="#9b9b9b" stroke="rgba(0,0,0,0)" stroke-width="1"/>
              <rect id="Rectángulo_3504" data-name="Rectángulo 3504" width="5.524" height="2.008" transform="translate(64.038 25.73)" fill="#c9c9c9"/>
              <path id="Trazado_17218" data-name="Trazado 17218" d="M-55.346-226.865h6.317a.922.922,0,0,1,.691,1.532h0a14.181,14.181,0,0,1-10.871,4.783l-1.173-.021A14.617,14.617,0,0,1-55.346-226.865Z" transform="translate(61.562 255.294)" fill="#fff"/>
              <g id="Grupo_3755" data-name="Grupo 3755" transform="translate(101.915 33.835)">
                <path id="Trazado_17219" data-name="Trazado 17219" d="M-122.11-212.911a10.91,10.91,0,0,0,10.893,10.925,10.91,10.91,0,0,0,10.893-10.925,10.908,10.908,0,0,0-10.893-10.927A10.908,10.908,0,0,0-122.11-212.911Z" transform="translate(122.11 223.838)" fill="#272425"/>
                <path id="Trazado_17220" data-name="Trazado 17220" d="M-118.6-215.683a4.627,4.627,0,0,0,4.619,4.633,4.627,4.627,0,0,0,4.619-4.633,4.625,4.625,0,0,0-4.619-4.631A4.625,4.625,0,0,0-118.6-215.683Z" transform="translate(124.871 226.608)" fill="#cfd1d2"/>
              </g>
              <g id="Grupo_3756" data-name="Grupo 3756" transform="translate(12.077 33.835)">
                <path id="Trazado_17221" data-name="Trazado 17221" d="M-71.808-212.911a10.911,10.911,0,0,0,10.893,10.925,10.91,10.91,0,0,0,10.893-10.925,10.908,10.908,0,0,0-10.893-10.927A10.909,10.909,0,0,0-71.808-212.911Z" transform="translate(71.808 223.838)" fill="#272425"/>
                <path id="Trazado_17222" data-name="Trazado 17222" d="M-68.295-215.683a4.627,4.627,0,0,0,4.619,4.633,4.627,4.627,0,0,0,4.619-4.633,4.625,4.625,0,0,0-4.619-4.631A4.625,4.625,0,0,0-68.295-215.683Z" transform="translate(74.569 226.608)" fill="#cfd1d2"/>
              </g>
            </g>
          </g>
        </g>
      </g>
    </g>
    <g id="Grupo_4055" data-name="Grupo 4055" transform="translate(-2274.417 -2718.591)">
      <g id="Personal_settings-rafiki" data-name="Personal settings-rafiki" transform="translate(0 0)">
        <g id="freepik--Settings--inject-181">
          <path id="Trazado_17367" data-name="Trazado 17367" d="M268.144,232.44H217.819a7.038,7.038,0,0,1-7.1-7.489l6.538-124.762a7.984,7.984,0,0,1,7.884-7.489h50.32a7.037,7.037,0,0,1,7.1,7.489l-6.538,124.762a7.989,7.989,0,0,1-7.884,7.489Z" transform="translate(-210.71 -90.08)" fill="#c9c9c9"/>
          <path id="Trazado_17368" data-name="Trazado 17368" d="M278.3,103.15H227.976a5.071,5.071,0,0,0-5,4.749l-6.3,120.176a4.461,4.461,0,0,0,4.5,4.749H271.5a5.071,5.071,0,0,0,5-4.749L282.8,107.9a4.461,4.461,0,0,0-4.5-4.749Z" transform="translate(-213.805 -95.507)" fill="#407bff"/>
          <path id="Trazado_17369" data-name="Trazado 17369" d="M278.3,103.15H227.976a5.071,5.071,0,0,0-5,4.749l-6.3,120.176a4.461,4.461,0,0,0,4.5,4.749H271.5a5.071,5.071,0,0,0,5-4.749L282.8,107.9a4.461,4.461,0,0,0-4.5-4.749Z" transform="translate(-213.805 -95.507)" fill="#fff" opacity="0.8"/>
          <path id="Trazado_17370" data-name="Trazado 17370" d="M341.651,92.7h-4.11a7.037,7.037,0,0,1,7.1,7.489L338.1,224.951a7.984,7.984,0,0,1-7.884,7.489h4.11a7.984,7.984,0,0,0,7.884-7.489l6.538-124.762a7.038,7.038,0,0,0-7.1-7.489Z" transform="translate(-272.771 -90.08)" fill="#515050"/>
          <path id="Trazado_17372" data-name="Trazado 17372" d="M240.18,103.15l6.836,129.718H264.8l-6.836-129.694H240.18Z" transform="translate(-226.014 -95.507)" fill="#fff" opacity="0.4"/>
          <path id="Trazado_17373" data-name="Trazado 17373" d="M290.716,232.844h4L287.884,103.15h-4Z" transform="translate(-248.707 -95.507)" fill="#fff" opacity="0.4"/>
          <path id="Trazado_17374" data-name="Trazado 17374" d="M245.226,87.683h1.764a.216.216,0,0,0,0-.433h-1.764a.216.216,0,0,0,0,.433Z" transform="translate(-228.522 -87.25)" fill="#407bff"/>
          <path id="Trazado_17375" data-name="Trazado 17375" d="M218.344,101.947a37.487,37.487,0,0,1,.481-6.249,10.345,10.345,0,0,1,9.845-7.965c.274,0,.279-.442,0-.433a10.8,10.8,0,0,0-9.614,6.374c-1.135,2.572-.961,5.547-1.115,8.3a.216.216,0,0,0,.433,0Z" transform="translate(-214.464 -87.276)" fill="#407bff"/>
        </g>
      </g>
      <g id="Grupo_3845" data-name="Grupo 3845" transform="translate(12.694 14.807)">
        <ellipse id="Elipse_475" data-name="Elipse 475" cx="16.35" cy="17.213" rx="16.35" ry="17.213" transform="matrix(-0.698, -0.716, 0.716, -0.698, 24.976, 47.447)" fill="#fff" opacity="0.3"/>
        <path id="Trazado_17376" data-name="Trazado 17376" d="M166.2,164.3a13.04,13.04,0,0,0,1.3,6.467,12.749,12.749,0,0,0,11.568,7.108,14.42,14.42,0,0,0,12.3-7.108,13.979,13.979,0,0,0,1.971-6.467,12.758,12.758,0,0,0-12.871-13.571A14.447,14.447,0,0,0,166.2,164.3Z" transform="translate(-153.898 -140.574)" fill="#fff"/>
        <path id="Trazado_17377" data-name="Trazado 17377" d="M170.55,190.483a12.749,12.749,0,0,0,11.568,7.108,14.42,14.42,0,0,0,12.3-7.108,20.511,20.511,0,0,0-11.745-3.633A22.318,22.318,0,0,0,170.55,190.483Z" transform="translate(-156.927 -160.29)"/>
        <ellipse id="Elipse_476" data-name="Elipse 476" cx="5.891" cy="6.204" rx="5.891" ry="6.204" transform="matrix(-0.698, -0.716, 0.716, -0.698, 25.797, 27.629)"/>
        <g id="Grupo_3844" data-name="Grupo 3844" transform="translate(0 47.024)">
          <path id="Trazado_17378" data-name="Trazado 17378" d="M150.238,257.991h43.387a1.494,1.494,0,0,0,1.476-1.4l.327-6.358a1.317,1.317,0,0,0-1.331-1.4H150.71a1.494,1.494,0,0,0-1.476,1.4l-.327,6.358a1.317,1.317,0,0,0,1.331,1.4Z" transform="translate(-148.11 -241.145)" fill="#fff"/>
          <path id="Trazado_17379" data-name="Trazado 17379" d="M177.172,236.084h18.122a1.494,1.494,0,0,0,1.481-1.408l.068-1.363a1.317,1.317,0,0,0-1.331-1.4H177.4a1.494,1.494,0,0,0-1.476,1.4l-.073,1.363a1.326,1.326,0,0,0,1.326,1.408Z" transform="translate(-161.76 -231.91)" opacity="0.3"/>
          <path id="Trazado_17380" data-name="Trazado 17380" d="M170.608,326.8h27.146a2.548,2.548,0,0,0,2.512-2.389l.159-3.134a2.271,2.271,0,0,0-2.271-2.389H171.017a2.548,2.548,0,0,0-2.512,2.389l-.159,3.134a2.271,2.271,0,0,0,2.262,2.389Z" transform="translate(-161.936 -279.386)" opacity="0.3"/>
          <path id="Trazado_17381" data-name="Trazado 17381" d="M151.977,291.845h43.392a1.5,1.5,0,0,0,1.476-1.4l.327-6.358a1.322,1.322,0,0,0-1.331-1.4H152.454a1.494,1.494,0,0,0-1.476,1.4l-.332,6.358a1.326,1.326,0,0,0,1.331,1.4Z" transform="translate(-150.644 -259.621)" fill="#fff"/>
          <g id="Grupo_3842" data-name="Grupo 3842" transform="translate(15.795 10.709)">
            <path id="Trazado_17382" data-name="Trazado 17382" d="M158.156,257.043a1.462,1.462,0,0,0,1.476,1.553,1.653,1.653,0,0,0,1.63-1.553,1.458,1.458,0,0,0-1.472-1.553A1.658,1.658,0,0,0,158.156,257.043Z" transform="translate(-143.824 -255.49)" fill="#263238"/>
            <path id="Trazado_17383" data-name="Trazado 17383" d="M168.7,257.043a1.458,1.458,0,0,0,1.472,1.553,1.649,1.649,0,0,0,1.631-1.553,1.458,1.458,0,0,0-1.472-1.553A1.649,1.649,0,0,0,168.7,257.043Z" transform="translate(-159.147 -255.49)" fill="#263238"/>
            <path id="Trazado_17384" data-name="Trazado 17384" d="M179.157,257.043a1.458,1.458,0,0,0,1.472,1.553,1.658,1.658,0,0,0,1.635-1.553,1.462,1.462,0,0,0-1.476-1.553A1.653,1.653,0,0,0,179.157,257.043Z" transform="translate(-174.362 -255.49)" fill="#263238"/>
            <path id="Trazado_17385" data-name="Trazado 17385" d="M189.707,257.043a1.462,1.462,0,0,0,1.472,1.553,1.658,1.658,0,0,0,1.635-1.553,1.462,1.462,0,0,0-1.472-1.553,1.658,1.658,0,0,0-1.635,1.553Z" transform="translate(-189.704 -255.49)" fill="#263238"/>
          </g>
          <g id="Grupo_3843" data-name="Grupo 3843" transform="translate(9.694 26.079)">
            <path id="Trazado_17386" data-name="Trazado 17386" d="M159.927,290.883a1.458,1.458,0,0,0,1.472,1.553,1.658,1.658,0,0,0,1.635-1.553,1.462,1.462,0,0,0-1.476-1.553A1.653,1.653,0,0,0,159.927,290.883Z" transform="translate(-136.062 -289.33)" fill="#263238"/>
            <path id="Trazado_17387" data-name="Trazado 17387" d="M170.436,290.883a1.462,1.462,0,0,0,1.472,1.553,1.658,1.658,0,0,0,1.635-1.553,1.458,1.458,0,0,0-1.472-1.553A1.658,1.658,0,0,0,170.436,290.883Z" transform="translate(-151.344 -289.33)" fill="#263238"/>
            <path id="Trazado_17388" data-name="Trazado 17388" d="M180.946,290.883a1.463,1.463,0,0,0,1.476,1.553,1.649,1.649,0,0,0,1.63-1.553,1.458,1.458,0,0,0-1.472-1.553A1.658,1.658,0,0,0,180.946,290.883Z" transform="translate(-166.628 -289.33)" fill="#263238"/>
            <path id="Trazado_17389" data-name="Trazado 17389" d="M191.447,290.883a1.458,1.458,0,0,0,1.472,1.553,1.658,1.658,0,0,0,1.635-1.553,1.462,1.462,0,0,0-1.476-1.553A1.649,1.649,0,0,0,191.447,290.883Z" transform="translate(-181.897 -289.33)" fill="#263238"/>
            <path id="Trazado_17390" data-name="Trazado 17390" d="M201.957,290.883a1.458,1.458,0,0,0,1.472,1.553,1.658,1.658,0,0,0,1.635-1.553,1.462,1.462,0,0,0-1.472-1.553,1.658,1.658,0,0,0-1.635,1.553Z" transform="translate(-197.181 -289.33)" fill="#263238"/>
            <path id="Trazado_17391" data-name="Trazado 17391" d="M212.466,290.883a1.462,1.462,0,0,0,1.476,1.553,1.653,1.653,0,0,0,1.63-1.553,1.458,1.458,0,0,0-1.472-1.553A1.658,1.658,0,0,0,212.466,290.883Z" transform="translate(-212.463 -289.33)" fill="#263238"/>
          </g>
        </g>
      </g>
    </g>
    <g id="freepik--Character--inject-50" transform="translate(-2524 -2836)">
      <path id="Trazado_17510" data-name="Trazado 17510" d="M149.709,207.94l6.113,5.332L144.531,218.4a58.546,58.546,0,0,1-.859-6.793,3.14,3.14,0,0,1,2.871-3.384Z" transform="translate(5.174 33.204)" fill="#ffc3bd"/>
      <path id="Trazado_17511" data-name="Trazado 17511" d="M157.9,222.943H147.89l-3.55-5.729,11.291-5.114Z" transform="translate(5.365 34.375)" fill="#ffc3bd"/>
      <path id="Trazado_17512" data-name="Trazado 17512" d="M202.25,145.9c4.268,5.408,8.7,10.958,13.124,16.341s8.971,10.7,13.585,15.674l1.756,1.833.666.679a4.98,4.98,0,0,0,.59.525,23.132,23.132,0,0,0,3.435,2.243,69.709,69.709,0,0,0,8.971,3.845c6.408,2.333,13.137,4.37,19.814,6.242l-.987,7.536a118.152,118.152,0,0,1-22.07-2.448,67.092,67.092,0,0,1-11.2-3.332,33.089,33.089,0,0,1-5.857-3.012c-.513-.359-1-.679-1.525-1.115l-.769-.628-.551-.487-2.1-1.884a209.732,209.732,0,0,1-15.38-15.854c-4.819-5.485-9.343-11.048-13.739-16.969Z" transform="translate(18.227 15.731)" fill="#ffc3bd"/>
      <path id="Trazado_17513" data-name="Trazado 17513" d="M258.967,182.333l2.743,10.586-10.74-.6,2.435-11.817Z" transform="translate(35.395 25.476)" fill="#ffc3bd"/>
      <path id="Trazado_17514" data-name="Trazado 17514" d="M246.5,183.589l9.382-3.089-2.435,11.817s-8.292,2.422-11.266-3.64Z" transform="translate(32.92 25.476)" fill="#ffc3bd"/>
      <path id="Trazado_17515" data-name="Trazado 17515" d="M163.436,150.433c-1.948,6.677-3.986,13.393-6.062,20.045l-3.076,9.971-1.487,4.934-.7,2.435-.59,2.2a20.418,20.418,0,0,0-.41,3.845c0,1.525,0,3.14,0,4.78.167,3.294.423,6.69.782,10.1.692,6.831,1.538,13.8,2.384,20.686L146.9,231.3a182.168,182.168,0,0,1-6.408-20.6c-.846-3.512-1.628-7.075-2.179-10.779-.269-1.858-.513-3.755-.654-5.742a30.554,30.554,0,0,1,.179-6.664c.1-.731.179-1.051.269-1.551l.244-1.384.551-2.691c.372-1.781.769-3.537,1.192-5.28q1.2-5.229,2.563-10.356c1.82-6.87,3.845-13.637,6-20.391Z" transform="translate(3.455 15.723)" fill="#ffc3bd"/>
      <path id="Trazado_17516" data-name="Trazado 17516" d="M186.921,114.679c-.167.795.115,1.551.628,1.679s1.077-.41,1.282-1.2-.115-1.551-.628-1.679S187.036,113.884,186.921,114.679Z" transform="translate(17.344 6.594)" fill="#263238"/>
      <path id="Trazado_17517" data-name="Trazado 17517" d="M187.292,115.61a30.464,30.464,0,0,0,2.333,7.779,4.665,4.665,0,0,1-3.935-.231Z" transform="translate(17.01 7.201)" fill="#ed847e"/>
      <path id="Trazado_17518" data-name="Trazado 17518" d="M189.517,110.979a.487.487,0,0,0,.4-.205.474.474,0,0,0-.115-.666,4.691,4.691,0,0,0-4.345-.333.48.48,0,1,0,.372.884,3.755,3.755,0,0,1,3.422.231.513.513,0,0,0,.269.09Z" transform="translate(16.861 5.449)" fill="#263238"/>
      <path id="Trazado_17519" data-name="Trazado 17519" d="M165.846,116.39c-.9,9.3.423,18.314-1.666,26.4,0,0,2.32,7.51,16.072,7.51,15.123,0,6.934-7.51,6.934-7.51-8.331-1.974-8.356-8.087-7.139-13.842Z" transform="translate(10.953 7.42)" fill="#ffc3bd"/>
      <path id="Trazado_17520" data-name="Trazado 17520" d="M162.146,140.616c-1.179-2.371-1.961-5.742.474-6.588,2.679-.936,16.994-1.282,22.185.513a5.473,5.473,0,0,1,3.922,6.575Z" transform="translate(10.064 12.172)" fill="#515050"/>
      <path id="Trazado_17521" data-name="Trazado 17521" d="M141.091,403.22a12.651,12.651,0,0,1-2.73-1.051.256.256,0,0,1-.141-.243.244.244,0,0,1,.179-.231c.449-.154,4.422-1.474,5.473-.577a.846.846,0,0,1,.256.82,1.551,1.551,0,0,1-.846,1.282,3.32,3.32,0,0,1-2.192,0Zm-1.91-1.282c1.743.795,3.166,1.064,3.845.7a1.038,1.038,0,0,0,.564-.846.308.308,0,0,0-.09-.333c-.513-.41-2.717.038-4.281.525Z" transform="translate(3.641 87.521)" fill="#407bff"/>
      <path id="Trazado_17522" data-name="Trazado 17522" d="M138.425,402.845a.218.218,0,0,1-.128-.077.244.244,0,0,1-.064-.256c0-.128,1.025-3.178,2.563-3.845a1.435,1.435,0,0,1,1.166-.077h0a.833.833,0,0,1,.641.859c0,1.282-2.755,3.1-4.011,3.448Zm3.2-3.845a.936.936,0,0,0-.641.077,6.408,6.408,0,0,0-2.076,3.076c1.282-.577,3.1-2.038,3.14-2.781,0-.064,0-.218-.32-.346h0Z" transform="translate(3.641 86.871)" fill="#407bff"/>
      <path id="Trazado_17523" data-name="Trazado 17523" d="M195.759,409.416a13.391,13.391,0,0,1-2.9-.4.256.256,0,0,1-.192-.218.282.282,0,0,1,.115-.269c.41-.244,3.973-2.435,5.191-1.807a.82.82,0,0,1,.449.743,1.576,1.576,0,0,1-.538,1.384,3.4,3.4,0,0,1-2.128.564Zm-2.128-.769c1.871.372,3.319.308,3.922-.205a1.051,1.051,0,0,0,.359-.948.333.333,0,0,0-.167-.308c-.641-.32-2.666.615-4.114,1.461Z" transform="translate(18.976 89.156)" fill="#407bff"/>
      <path id="Trazado_17524" data-name="Trazado 17524" d="M192.927,409.58a.2.2,0,0,1-.256-.244c0-.128.269-3.319,1.551-4.37a1.41,1.41,0,0,1,1.115-.333h0a.846.846,0,0,1,.833.679c.243,1.282-1.974,3.653-3.114,4.281Zm2.23-4.473a.923.923,0,0,0-.6.218,6.408,6.408,0,0,0-1.282,3.473c1.141-.871,2.563-2.691,2.409-3.422,0,0,0-.231-.384-.269h-.115Z" transform="translate(18.976 88.595)" fill="#407bff"/>
      <path id="Trazado_17525" data-name="Trazado 17525" d="M183.59,413.328H193.7l.1-23.428H183.693Z" transform="translate(16.419 84.449)" fill="#ffc3bd"/>
      <path id="Trazado_17526" data-name="Trazado 17526" d="M128.59,406.487l9.74,1.781,6.985-23.057-9.74-1.781Z" transform="translate(0.929 82.627)" fill="#ffc3bd"/>
      <path id="Trazado_17527" data-name="Trazado 17527" d="M141.118,401.359l-11.06-2.563a.833.833,0,0,0-.974.474l-3.678,8.369a1.564,1.564,0,0,0,1.1,2.115c3.845.846,5.793,1.051,10.65,2.2,3,.7,9.1,2.486,13.226,3.46s5.485-3.025,3.845-3.845c-7.254-3.473-9.663-6.408-11.663-9.228a2.563,2.563,0,0,0-1.448-.987Z" transform="translate(0 86.947)" fill="#263238"/>
      <path id="Trazado_17528" data-name="Trazado 17528" d="M194.369,407.26H183.321a.846.846,0,0,0-.833.692l-1.653,8.971a1.538,1.538,0,0,0,1.525,1.794c3.986-.064,9.74-.295,14.752-.295,5.857,0,7.933.32,14.8.32,4.152,0,5.126-4.2,3.4-4.575-7.985-1.743-11.471-1.922-18.468-6.139A4.793,4.793,0,0,0,194.369,407.26Z" transform="translate(15.637 89.338)" fill="#263238"/>
      <path id="Trazado_17529" data-name="Trazado 17529" d="M152.476,140.321c-9.869,9.407-12.816,30.541-12.816,30.541L157.5,179.6a152.32,152.32,0,0,0,8.8-22.749C169.868,144.448,159.615,133.5,152.476,140.321Z" transform="translate(4.047 13.569)" fill="#5b211f"/>
      <path id="Trazado_17530" data-name="Trazado 17530" d="M158.577,150.75l-9.087,22.736,5.242,2.563s2.935-5.908,5.844-13.739Z" transform="translate(6.816 17.097)" opacity="0.2"/>
      <path id="Trazado_17531" data-name="Trazado 17531" d="M212.009,184.5c-.077,11.291-.756,25.338-2.448,42.768H155.45c-.666-7.946,2.653-45.408-5.4-82.909a4.973,4.973,0,0,1,4.088-5.96,123.806,123.806,0,0,1,12.816-1.371,199.294,199.294,0,0,1,22.992,0,103.617,103.617,0,0,1,15.674,2.807s4.627,5.011,6.024,28.516C211.893,173.034,212.034,178.378,212.009,184.5Z" transform="translate(6.943 13.141)" fill="#5b211f"/>
      <path id="Trazado_17535" data-name="Trazado 17535" d="M200.23,179.45c-3.281-5.972-9.228-17.943-8.382-24.8l7.985,8.651C200.114,167.979,200.255,173.323,200.23,179.45Z" transform="translate(18.722 18.196)" opacity="0.2"/>
      <path id="Trazado_17536" data-name="Trazado 17536" d="M185.085,148.354c-.859,9.6,20.993,32.823,20.993,32.823l17.52-14.265s-7.2-12.483-16.379-21.352C196.979,135.666,186.047,137.55,185.085,148.354Z" transform="translate(16.833 13.815)" fill="#5b211f"/>
      <g id="Grupo_3876" data-name="Grupo 3876" transform="translate(132.903 466.057)" opacity="0.2">
        <path id="Trazado_17537" data-name="Trazado 17537" d="M193.8,389.9l-.051,13.021H183.62l.051-13.021Z" transform="translate(-116.475 -381.608)"/>
        <path id="Trazado_17538" data-name="Trazado 17538" d="M134.831,383.43l9.74,1.794-3.6,11.881-9.74-1.794Z" transform="translate(-131.23 -383.43)"/>
      </g>
      <path id="Trazado_17539" data-name="Trazado 17539" d="M166.929,110.419c-1.474,9.958-2.845,15.7,1,21.967A13.047,13.047,0,0,0,191,131.1c3.96-8.292,5.716-23.185-2.973-29.477a13.188,13.188,0,0,0-21.1,8.792Z" transform="translate(11.305 2.498)" fill="#ffc3bd"/>
      <path id="Trazado_17540" data-name="Trazado 17540" d="M187.11,122.131c-.077,2.832-7.344,12.1-13.534,13.239-6.7,1.282-8.433-.654-9.5-9.792-1.218-10.509-4.742-10.509-6.267-17.212-1.935-8.446,6.344-16.136,16.136-11.535,8.484,4.037,16.328-3.845,22.172-6.28s6.754,4.4,2.845,8.971,2.268,1.743,4.063,3.665c3.2,3.448-2.051,11.163-15.162,14.226C190.173,119.889,187.11,122.131,187.11,122.131Z" transform="translate(9.08 0)" fill="#263238"/>
      <path id="Trazado_17541" data-name="Trazado 17541" d="M178.21,113.557a11.906,11.906,0,0,0,2.384,7.011c2.038,2.653,4.409,1.359,4.973-1.576.513-2.64.077-7.2-2.5-8.8S178.21,110.52,178.21,113.557Z" transform="translate(14.904 5.511)" fill="#ffc3bd"/>
      <path id="Trazado_17542" data-name="Trazado 17542" d="M196.175,207.4s-8.484,77.308-13.675,106.273c-5.678,31.72-35.078,131.277-35.078,131.277L129.3,441.105s20.237-93.136,22.967-124.536c2.961-34.091,8.971-109.156,8.971-109.156Z" transform="translate(1.129 33.052)" fill="#515050"/>
      <path id="Trazado_17544" data-name="Trazado 17544" d="M151.769,388.859c.077,0-3.089,6.613-3.089,6.613l-20.391-4.345,1.461-6.177Z" transform="translate(0.845 83.055)" fill="#263238"/>
      <path id="Trazado_17545" data-name="Trazado 17545" d="M178.769,228.924c-13.175,2.563-9.856,52.1-7.28,77.564,3.14-17.943,7.408-52.637,10.253-77.205A4.511,4.511,0,0,0,178.769,228.924Z" transform="translate(12.345 39.083)" opacity="0.2"/>
      <path id="Trazado_17546" data-name="Trazado 17546" d="M204.281,207.4s4.319,75.616,4.409,106.491c.09,32.041-7.062,137.134-7.062,137.134H184.467s-4.614-103.184-6.588-134.7c-2.166-34.361-9.189-108.939-9.189-108.939Z" transform="translate(12.223 33.049)" fill="#515050"/>
      <path id="Trazado_17548" data-name="Trazado 17548" d="M201.658,392.18c.077,0-.692,7.113-.692,7.113H180.177l-.807-6.408Z" transform="translate(15.231 85.091)" fill="#263238"/>
    </g>
  </g>
</svg>
