<svg xmlns="http://www.w3.org/2000/svg" xmlns:xlink="http://www.w3.org/1999/xlink" width="252" height="286" viewBox="0 0 252 286">
  <defs>
    <clipPath id="clip-path">
      <rect id="Rectángulo_5002" data-name="Rectángulo 5002" width="252" height="286" transform="translate(-3380 -3629.043)" fill="#fff"/>
    </clipPath>
    <clipPath id="clip-path-2">
      <path id="Trazado_17366" data-name="Trazado 17366" d="M120.224-312.917l25.3,176.234A30.69,30.69,0,0,1,115.5-99.631H-75.529a30.688,30.688,0,0,1-30.688-30.688l32.737-176.234c4.823-16.506,15.462-30.688,32.411-30.688H90.2A30.689,30.689,0,0,1,120.224-312.917Z" transform="translate(106.218 337.241)" fill="none"/>
    </clipPath>
    <linearGradient id="linear-gradient" x1="0.5" x2="0.5" y2="1" gradientUnits="objectBoundingBox">
      <stop offset="0" stop-color="#ffcf00"/>
      <stop offset="1" stop-color="#ff9100"/>
    </linearGradient>
    <linearGradient id="linear-gradient-2" x1="0.5" x2="0.5" y2="1" gradientUnits="objectBoundingBox">
      <stop offset="0" stop-color="#208dfe"/>
      <stop offset="1" stop-color="#3a56ff"/>
    </linearGradient>
    <linearGradient id="linear-gradient-3" y1="1" y2="0" xlink:href="#linear-gradient-2"/>
  </defs>
  <g id="Enmascarar_grupo_5" data-name="Enmascarar grupo 5" transform="translate(3380 3629.043)" clip-path="url(#clip-path)">
    <g id="Grupo_3841" data-name="Grupo 3841" transform="translate(-3379.916 -3580.273)">
      <g id="Grupo_3840" data-name="Grupo 3840" transform="translate(0 0)">
        <path id="Trazado_17355" data-name="Trazado 17355" d="M120.224-312.917l25.3,176.234A30.69,30.69,0,0,1,115.5-99.631H-75.529a30.688,30.688,0,0,1-30.688-30.688l32.737-176.234c4.823-16.506,15.462-30.688,32.411-30.688H90.2A30.689,30.689,0,0,1,120.224-312.917Z" transform="translate(106.218 337.241)" fill="#e9efff"/>
        <g id="Grupo_3839" data-name="Grupo 3839">
          <g id="Grupo_3838" data-name="Grupo 3838" clip-path="url(#clip-path-2)">
            <g id="Grupo_3834" data-name="Grupo 3834" transform="translate(-16.898 110.015)">
              <rect id="Rectángulo_4970" data-name="Rectángulo 4970" width="278.824" height="35.107" transform="translate(0 98.435)" fill="#d3dfff"/>
              <g id="Grupo_3818" data-name="Grupo 3818" transform="translate(7.775 37.578)">
                <rect id="Rectángulo_4971" data-name="Rectángulo 4971" width="19.018" height="24.472" transform="translate(208.457 14.298)" fill="#adc6fe"/>
                <rect id="Rectángulo_4972" data-name="Rectángulo 4972" width="19.018" height="34.775" transform="translate(91.546)" fill="#adc6fe"/>
                <rect id="Rectángulo_4973" data-name="Rectángulo 4973" width="25.452" height="23.135" transform="translate(31.292 11.64)" fill="#adc6fe"/>
                <rect id="Rectángulo_4974" data-name="Rectángulo 4974" width="19.018" height="24.472" transform="translate(165.393 5.799)" fill="#adc6fe"/>
                <rect id="Rectángulo_4975" data-name="Rectángulo 4975" width="19.018" height="24.472" transform="translate(129.41 19.044)" fill="#adc6fe"/>
                <rect id="Rectángulo_4976" data-name="Rectángulo 4976" width="271.049" height="32.111" transform="translate(0 28.746)" fill="#adc6fe"/>
                <rect id="Rectángulo_4977" data-name="Rectángulo 4977" width="19.018" height="24.472" transform="translate(227.475 4.274)" fill="#adc6fe"/>
              </g>
              <g id="Grupo_3823" data-name="Grupo 3823" transform="translate(151.409 18.48)">
                <rect id="Rectángulo_4978" data-name="Rectángulo 4978" width="28.968" height="79.955" fill="#bed0fe"/>
                <g id="Grupo_3822" data-name="Grupo 3822" transform="translate(4.794 5.727)">
                  <g id="Grupo_3819" data-name="Grupo 3819" transform="translate(0 0)">
                    <rect id="Rectángulo_4979" data-name="Rectángulo 4979" width="5.759" height="11.333" transform="translate(14.491)" fill="#fff"/>
                    <rect id="Rectángulo_4980" data-name="Rectángulo 4980" width="5.759" height="11.333" fill="#fff"/>
                  </g>
                  <g id="Grupo_3820" data-name="Grupo 3820" transform="translate(0 17.278)">
                    <rect id="Rectángulo_4981" data-name="Rectángulo 4981" width="5.759" height="11.333" transform="translate(14.491 0)" fill="#fff"/>
                    <rect id="Rectángulo_4982" data-name="Rectángulo 4982" width="5.759" height="11.333" transform="translate(0 0)" fill="#fff"/>
                  </g>
                  <g id="Grupo_3821" data-name="Grupo 3821" transform="translate(0 34.556)">
                    <rect id="Rectángulo_4983" data-name="Rectángulo 4983" width="5.759" height="11.333" transform="translate(14.491)" fill="#fff"/>
                    <rect id="Rectángulo_4984" data-name="Rectángulo 4984" width="5.759" height="11.333" fill="#fff"/>
                  </g>
                </g>
              </g>
              <g id="Grupo_3827" data-name="Grupo 3827" transform="translate(110.899 27.932)">
                <rect id="Rectángulo_4985" data-name="Rectángulo 4985" width="28.968" height="70.504" transform="translate(0)" fill="#bed0fe"/>
                <g id="Grupo_3826" data-name="Grupo 3826" transform="translate(4.794 13.553)">
                  <g id="Grupo_3824" data-name="Grupo 3824" transform="translate(0 0)">
                    <rect id="Rectángulo_4986" data-name="Rectángulo 4986" width="5.759" height="11.333" transform="translate(14.491)" fill="#fff"/>
                    <rect id="Rectángulo_4987" data-name="Rectángulo 4987" width="5.759" height="11.333" fill="#fff"/>
                  </g>
                  <g id="Grupo_3825" data-name="Grupo 3825" transform="translate(0 17.278)">
                    <rect id="Rectángulo_4988" data-name="Rectángulo 4988" width="5.759" height="11.333" transform="translate(14.491)" fill="#fff"/>
                    <rect id="Rectángulo_4989" data-name="Rectángulo 4989" width="5.759" height="11.333" fill="#fff"/>
                  </g>
                </g>
              </g>
              <g id="Grupo_3830" data-name="Grupo 3830" transform="translate(191.291)">
                <g id="Grupo_3828" data-name="Grupo 3828">
                  <rect id="Rectángulo_4990" data-name="Rectángulo 4990" width="34.944" height="98.435" fill="#bed0fe"/>
                </g>
                <g id="Grupo_3829" data-name="Grupo 3829" transform="translate(5.766 13.184)">
                  <rect id="Rectángulo_4991" data-name="Rectángulo 4991" width="2.63" height="38.809" transform="translate(21.118)" fill="#fff"/>
                  <rect id="Rectángulo_4992" data-name="Rectángulo 4992" width="2.63" height="38.809" transform="translate(14.079)" fill="#fff"/>
                  <rect id="Rectángulo_4993" data-name="Rectángulo 4993" width="2.63" height="38.809" transform="translate(7.039)" fill="#fff"/>
                  <rect id="Rectángulo_4994" data-name="Rectángulo 4994" width="2.63" height="38.809" fill="#fff"/>
                </g>
              </g>
              <g id="Grupo_3833" data-name="Grupo 3833" transform="translate(64.377)">
                <g id="Grupo_3831" data-name="Grupo 3831" transform="translate(0)">
                  <rect id="Rectángulo_4995" data-name="Rectángulo 4995" width="34.944" height="98.435" fill="#bed0fe"/>
                </g>
                <g id="Grupo_3832" data-name="Grupo 3832" transform="translate(5.766 13.184)">
                  <rect id="Rectángulo_4996" data-name="Rectángulo 4996" width="2.63" height="38.809" transform="translate(21.118)" fill="#fff"/>
                  <rect id="Rectángulo_4997" data-name="Rectángulo 4997" width="2.63" height="38.809" transform="translate(14.079)" fill="#fff"/>
                  <rect id="Rectángulo_4998" data-name="Rectángulo 4998" width="2.63" height="38.809" transform="translate(7.039)" fill="#fff"/>
                  <rect id="Rectángulo_4999" data-name="Rectángulo 4999" width="2.63" height="38.809" transform="translate(0)" fill="#fff"/>
                </g>
              </g>
            </g>
            <g id="Grupo_3837" data-name="Grupo 3837" transform="translate(160.464 162.751)">
              <path id="Trazado_17356" data-name="Trazado 17356" d="M-89.579-234.332H-99.1s.6-4.878.975-5.929c.353-1.015.693-2.523,3.787-2.523,2.815,0,3.623,1.334,3.922,2.523S-89.579-234.332-89.579-234.332Z" transform="translate(169.279 242.783)" fill="#fff"/>
              <path id="Trazado_17357" data-name="Trazado 17357" d="M-131.476-224.68h10.118l-1.341-5.207h-8.777Z" transform="translate(256.833 252.107)" fill="#ed5933"/>
              <path id="Trazado_17358" data-name="Trazado 17358" d="M-132.292-203.955a12.718,12.718,0,0,1,.631-8.76,16.179,16.179,0,0,1,.834-1.733,20.566,20.566,0,0,1,4.025-4.339,19.484,19.484,0,0,1,4.733-2.049c3.434-.994,14.122-2.212,14.122-2.212l9.545-.868,7.574-4.237s8.065-4.645,10.886-5.929a52.7,52.7,0,0,1,18.1-3.956c12.907,0,19.773.234,26.159,1.7,3.584.825,13.943,4.69,13.943,4.69l11.7,4.1s7.878-.594,9.937.787c.755.508,1.6,3.236,1.6,3.236l-6.649.134,1.28,3.968,6.33.238L3.5-217.321a11.2,11.2,0,0,1,1.258,7.609c-.467,2.405-1.273,5.1-2.624,6.07-1.825,1.306-14.261,2.052-14.261,2.052s.889-13.019-11.606-13.333c-6.265-.159-10.729,4.38-11.479,8.756-.239,1.406-.474,5.681-.474,5.681l-62.7.946h0l-.016,0v-.724c-.153-4.19-1.577-14.187-12.738-14.187-12.307,0-11.6,14.851-11.6,14.851s-6.053-.291-7.85-1.6A5.279,5.279,0,0,1-132.292-203.955Z" transform="translate(132.8 246.214)" fill="url(#linear-gradient)"/>
              <path id="Trazado_17359" data-name="Trazado 17359" d="M-113.728-226.732l.6-9.747s9.985-.069,14.148.793a35.648,35.648,0,0,1,8.052,3.611,44.076,44.076,0,0,1,6.472,4.742Z" transform="translate(189.353 247.34)" fill="#272425"/>
              <path id="Trazado_17360" data-name="Trazado 17360" d="M-66.53-226.253l1.353-10.267a49.5,49.5,0,0,0-10.459,1.313c-7.25,1.778-18.962,10.383-18.962,10.383Z" transform="translate(137.114 247.311)" fill="#272425"/>
              <line id="Línea_216" data-name="Línea 216" x1="1.786" y2="20.66" transform="translate(68.796 21.058)" fill="none" stroke="#efac06" stroke-miterlimit="10" stroke-width="0.5"/>
              <line id="Línea_217" data-name="Línea 217" x1="63.431" y2="1.037" transform="translate(33.997 41.371)" fill="none" stroke="#efac06" stroke-miterlimit="10" stroke-width="0.5"/>
              <line id="Línea_218" data-name="Línea 218" x1="3.081" y2="19.402" transform="translate(39.434 22.488)" fill="none" stroke="#efac06" stroke-miterlimit="10" stroke-width="0.5"/>
              <line id="Línea_219" data-name="Línea 219" x1="0.669" y2="11.929" transform="translate(104.228 20.005)" fill="none" stroke="#efac06" stroke-miterlimit="10" stroke-width="0.5"/>
              <rect id="Rectángulo_5000" data-name="Rectángulo 5000" width="5.329" height="1.937" transform="translate(95.887 24.823)" fill="#efac06"/>
              <rect id="Rectángulo_5001" data-name="Rectángulo 5001" width="5.329" height="1.937" transform="translate(61.78 24.823)" fill="#efac06"/>
              <path id="Trazado_17361" data-name="Trazado 17361" d="M-55.524-226.865h6.094a.889.889,0,0,1,.667,1.478h0a13.681,13.681,0,0,1-10.488,4.614l-1.132-.021A14.1,14.1,0,0,1-55.524-226.865Z" transform="translate(61.52 254.292)" fill="#fff"/>
              <g id="Grupo_3835" data-name="Grupo 3835" transform="translate(98.322 32.642)">
                <path id="Trazado_17362" data-name="Trazado 17362" d="M-122.11-213.3a10.525,10.525,0,0,0,10.509,10.54,10.525,10.525,0,0,0,10.509-10.54A10.523,10.523,0,0,0-111.6-223.838,10.523,10.523,0,0,0-122.11-213.3Z" transform="translate(122.11 223.838)" fill="#272425"/>
                <path id="Trazado_17363" data-name="Trazado 17363" d="M-118.6-215.846a4.463,4.463,0,0,0,4.456,4.469,4.464,4.464,0,0,0,4.456-4.469,4.462,4.462,0,0,0-4.456-4.468A4.462,4.462,0,0,0-118.6-215.846Z" transform="translate(124.65 226.386)" fill="#cfd1d2"/>
              </g>
              <g id="Grupo_3836" data-name="Grupo 3836" transform="translate(11.651 32.642)">
                <path id="Trazado_17364" data-name="Trazado 17364" d="M-71.808-213.3A10.526,10.526,0,0,0-61.3-202.757,10.525,10.525,0,0,0-50.791-213.3,10.523,10.523,0,0,0-61.3-223.838,10.524,10.524,0,0,0-71.808-213.3Z" transform="translate(71.808 223.838)" fill="#272425"/>
                <path id="Trazado_17365" data-name="Trazado 17365" d="M-68.295-215.846a4.464,4.464,0,0,0,4.456,4.469,4.464,4.464,0,0,0,4.456-4.469,4.462,4.462,0,0,0-4.456-4.468A4.462,4.462,0,0,0-68.295-215.846Z" transform="translate(74.348 226.386)" fill="#cfd1d2"/>
              </g>
            </g>
          </g>
        </g>
      </g>
    </g>
    <g id="Grupo_3846" data-name="Grupo 3846" transform="translate(-3244.417 -3594.634)">
      <g id="Personal_settings-rafiki" data-name="Personal settings-rafiki" transform="translate(0 0)">
        <g id="freepik--Settings--inject-181">
          <path id="Trazado_17367" data-name="Trazado 17367" d="M268.144,232.44H217.819a7.038,7.038,0,0,1-7.1-7.489l6.538-124.762a7.984,7.984,0,0,1,7.884-7.489h50.32a7.037,7.037,0,0,1,7.1,7.489l-6.538,124.762a7.989,7.989,0,0,1-7.884,7.489Z" transform="translate(-210.71 -90.08)" fill="#407bff"/>
          <path id="Trazado_17368" data-name="Trazado 17368" d="M278.3,103.15H227.976a5.071,5.071,0,0,0-5,4.749l-6.3,120.176a4.461,4.461,0,0,0,4.5,4.749H271.5a5.071,5.071,0,0,0,5-4.749L282.8,107.9a4.461,4.461,0,0,0-4.5-4.749Z" transform="translate(-213.805 -95.507)" fill="#407bff"/>
          <path id="Trazado_17369" data-name="Trazado 17369" d="M278.3,103.15H227.976a5.071,5.071,0,0,0-5,4.749l-6.3,120.176a4.461,4.461,0,0,0,4.5,4.749H271.5a5.071,5.071,0,0,0,5-4.749L282.8,107.9a4.461,4.461,0,0,0-4.5-4.749Z" transform="translate(-213.805 -95.507)" fill="#fff" opacity="0.8"/>
          <path id="Trazado_17370" data-name="Trazado 17370" d="M341.651,92.7h-4.11a7.037,7.037,0,0,1,7.1,7.489L338.1,224.951a7.984,7.984,0,0,1-7.884,7.489h4.11a7.984,7.984,0,0,0,7.884-7.489l6.538-124.762a7.038,7.038,0,0,0-7.1-7.489Z" transform="translate(-272.771 -90.08)" fill="#407bff"/>
          <path id="Trazado_17371" data-name="Trazado 17371" d="M341.651,92.7h-4.11a7.037,7.037,0,0,1,7.1,7.489L338.1,224.951a7.984,7.984,0,0,1-7.884,7.489h4.11a7.984,7.984,0,0,0,7.884-7.489l6.538-124.762a7.038,7.038,0,0,0-7.1-7.489Z" transform="translate(-272.771 -90.08)" fill="#fff" opacity="0.4"/>
          <path id="Trazado_17372" data-name="Trazado 17372" d="M240.18,103.15l6.836,129.718H264.8l-6.836-129.694H240.18Z" transform="translate(-226.014 -95.507)" fill="#fff" opacity="0.4"/>
          <path id="Trazado_17373" data-name="Trazado 17373" d="M290.716,232.844h4L287.884,103.15h-4Z" transform="translate(-248.707 -95.507)" fill="#fff" opacity="0.4"/>
          <path id="Trazado_17374" data-name="Trazado 17374" d="M245.226,87.683h1.764a.216.216,0,0,0,0-.433h-1.764a.216.216,0,0,0,0,.433Z" transform="translate(-228.522 -87.25)" fill="#407bff"/>
          <path id="Trazado_17375" data-name="Trazado 17375" d="M218.344,101.947a37.487,37.487,0,0,1,.481-6.249,10.345,10.345,0,0,1,9.845-7.965c.274,0,.279-.442,0-.433a10.8,10.8,0,0,0-9.614,6.374c-1.135,2.572-.961,5.547-1.115,8.3a.216.216,0,0,0,.433,0Z" transform="translate(-214.464 -87.276)" fill="#407bff"/>
        </g>
      </g>
      <g id="Grupo_3845" data-name="Grupo 3845" transform="translate(12.694 14.807)">
        <ellipse id="Elipse_475" data-name="Elipse 475" cx="16.35" cy="17.213" rx="16.35" ry="17.213" transform="matrix(-0.698, -0.716, 0.716, -0.698, 24.976, 47.447)" fill="#fff" opacity="0.3"/>
        <path id="Trazado_17376" data-name="Trazado 17376" d="M166.2,164.3a13.04,13.04,0,0,0,1.3,6.467,12.749,12.749,0,0,0,11.568,7.108,14.42,14.42,0,0,0,12.3-7.108,13.979,13.979,0,0,0,1.971-6.467,12.758,12.758,0,0,0-12.871-13.571A14.447,14.447,0,0,0,166.2,164.3Z" transform="translate(-153.898 -140.574)" fill="#fff"/>
        <path id="Trazado_17377" data-name="Trazado 17377" d="M170.55,190.483a12.749,12.749,0,0,0,11.568,7.108,14.42,14.42,0,0,0,12.3-7.108,20.511,20.511,0,0,0-11.745-3.633A22.318,22.318,0,0,0,170.55,190.483Z" transform="translate(-156.927 -160.29)" fill="url(#linear-gradient-2)"/>
        <ellipse id="Elipse_476" data-name="Elipse 476" cx="5.891" cy="6.204" rx="5.891" ry="6.204" transform="matrix(-0.698, -0.716, 0.716, -0.698, 25.797, 27.629)" fill="url(#linear-gradient-3)"/>
        <g id="Grupo_3844" data-name="Grupo 3844" transform="translate(0 47.024)">
          <path id="Trazado_17378" data-name="Trazado 17378" d="M150.238,257.991h43.387a1.494,1.494,0,0,0,1.476-1.4l.327-6.358a1.317,1.317,0,0,0-1.331-1.4H150.71a1.494,1.494,0,0,0-1.476,1.4l-.327,6.358a1.317,1.317,0,0,0,1.331,1.4Z" transform="translate(-148.11 -241.145)" fill="#fff"/>
          <path id="Trazado_17379" data-name="Trazado 17379" d="M177.172,236.084h18.122a1.494,1.494,0,0,0,1.481-1.408l.068-1.363a1.317,1.317,0,0,0-1.331-1.4H177.4a1.494,1.494,0,0,0-1.476,1.4l-.073,1.363a1.326,1.326,0,0,0,1.326,1.408Z" transform="translate(-161.76 -231.91)" opacity="0.3"/>
          <path id="Trazado_17380" data-name="Trazado 17380" d="M170.608,326.8h27.146a2.548,2.548,0,0,0,2.512-2.389l.159-3.134a2.271,2.271,0,0,0-2.271-2.389H171.017a2.548,2.548,0,0,0-2.512,2.389l-.159,3.134a2.271,2.271,0,0,0,2.262,2.389Z" transform="translate(-161.936 -279.386)" opacity="0.3"/>
          <path id="Trazado_17381" data-name="Trazado 17381" d="M151.977,291.845h43.392a1.5,1.5,0,0,0,1.476-1.4l.327-6.358a1.322,1.322,0,0,0-1.331-1.4H152.454a1.494,1.494,0,0,0-1.476,1.4l-.332,6.358a1.326,1.326,0,0,0,1.331,1.4Z" transform="translate(-150.644 -259.621)" fill="#fff"/>
          <g id="Grupo_3842" data-name="Grupo 3842" transform="translate(15.795 10.709)">
            <path id="Trazado_17382" data-name="Trazado 17382" d="M158.156,257.043a1.462,1.462,0,0,0,1.476,1.553,1.653,1.653,0,0,0,1.63-1.553,1.458,1.458,0,0,0-1.472-1.553A1.658,1.658,0,0,0,158.156,257.043Z" transform="translate(-143.824 -255.49)" fill="#263238"/>
            <path id="Trazado_17383" data-name="Trazado 17383" d="M168.7,257.043a1.458,1.458,0,0,0,1.472,1.553,1.649,1.649,0,0,0,1.631-1.553,1.458,1.458,0,0,0-1.472-1.553A1.649,1.649,0,0,0,168.7,257.043Z" transform="translate(-159.147 -255.49)" fill="#263238"/>
            <path id="Trazado_17384" data-name="Trazado 17384" d="M179.157,257.043a1.458,1.458,0,0,0,1.472,1.553,1.658,1.658,0,0,0,1.635-1.553,1.462,1.462,0,0,0-1.476-1.553A1.653,1.653,0,0,0,179.157,257.043Z" transform="translate(-174.362 -255.49)" fill="#263238"/>
            <path id="Trazado_17385" data-name="Trazado 17385" d="M189.707,257.043a1.462,1.462,0,0,0,1.472,1.553,1.658,1.658,0,0,0,1.635-1.553,1.462,1.462,0,0,0-1.472-1.553,1.658,1.658,0,0,0-1.635,1.553Z" transform="translate(-189.704 -255.49)" fill="#263238"/>
          </g>
          <g id="Grupo_3843" data-name="Grupo 3843" transform="translate(9.694 26.079)">
            <path id="Trazado_17386" data-name="Trazado 17386" d="M159.927,290.883a1.458,1.458,0,0,0,1.472,1.553,1.658,1.658,0,0,0,1.635-1.553,1.462,1.462,0,0,0-1.476-1.553A1.653,1.653,0,0,0,159.927,290.883Z" transform="translate(-136.062 -289.33)" fill="#263238"/>
            <path id="Trazado_17387" data-name="Trazado 17387" d="M170.436,290.883a1.462,1.462,0,0,0,1.472,1.553,1.658,1.658,0,0,0,1.635-1.553,1.458,1.458,0,0,0-1.472-1.553A1.658,1.658,0,0,0,170.436,290.883Z" transform="translate(-151.344 -289.33)" fill="#263238"/>
            <path id="Trazado_17388" data-name="Trazado 17388" d="M180.946,290.883a1.463,1.463,0,0,0,1.476,1.553,1.649,1.649,0,0,0,1.63-1.553,1.458,1.458,0,0,0-1.472-1.553A1.658,1.658,0,0,0,180.946,290.883Z" transform="translate(-166.628 -289.33)" fill="#263238"/>
            <path id="Trazado_17389" data-name="Trazado 17389" d="M191.447,290.883a1.458,1.458,0,0,0,1.472,1.553,1.658,1.658,0,0,0,1.635-1.553,1.462,1.462,0,0,0-1.476-1.553A1.649,1.649,0,0,0,191.447,290.883Z" transform="translate(-181.897 -289.33)" fill="#263238"/>
            <path id="Trazado_17390" data-name="Trazado 17390" d="M201.957,290.883a1.458,1.458,0,0,0,1.472,1.553,1.658,1.658,0,0,0,1.635-1.553,1.462,1.462,0,0,0-1.472-1.553,1.658,1.658,0,0,0-1.635,1.553Z" transform="translate(-197.181 -289.33)" fill="#263238"/>
            <path id="Trazado_17391" data-name="Trazado 17391" d="M212.466,290.883a1.462,1.462,0,0,0,1.476,1.553,1.653,1.653,0,0,0,1.63-1.553,1.458,1.458,0,0,0-1.472-1.553A1.658,1.658,0,0,0,212.466,290.883Z" transform="translate(-212.463 -289.33)" fill="#263238"/>
          </g>
        </g>
      </g>
    </g>
    <g id="character-1--inject-7" transform="translate(-3356.197 -3568.048)">
      <path id="Trazado_13956" data-name="Trazado 13956" d="M138.483,214.22c-1.421,3.112-2.917,6.537-4.218,9.858s-2.633,6.747-3.785,10.157a129.014,129.014,0,0,0-5.355,20.643l-.329,2.2a3.216,3.216,0,0,0,.1,1.122,11.667,11.667,0,0,0,1.645,3.47,43.8,43.8,0,0,0,6.642,7.479,100.736,100.736,0,0,0,8.257,6.9c2.872,2.214,5.894,4.368,8.871,6.4l-2.8,5.251a106.018,106.018,0,0,1-20.12-11.533,48.454,48.454,0,0,1-8.975-8.5,21.317,21.317,0,0,1-3.575-6.388,14.509,14.509,0,0,1-.718-4.488v-1.87l.15-1.5a117.008,117.008,0,0,1,4.892-22.947c1.167-3.68,2.408-7.345,3.829-10.92s2.887-7.076,4.7-10.711Z" transform="translate(-106.097 -132.545)" fill="#e58a7b"/>
      <path id="Trazado_13957" data-name="Trazado 13957" d="M137.832,259.205l10.576-5.355-2.738,11.608s-7.255,2.034-10.621-1.5Z" transform="translate(-95.723 -110.23)" fill="#e58a7b"/>
      <path id="Trazado_13958" data-name="Trazado 13958" d="M154.566,255.75l-2.812,9.6-9.6.1,2.738-11.608Z" transform="translate(-92.202 -110.23)" fill="#e58a7b"/>
      <path id="Trazado_13959" data-name="Trazado 13959" d="M160.44,175a29.912,29.912,0,0,0,2.349,5.984,2.438,2.438,0,0,1-2.378.763Z" transform="translate(-83.147 -149.332)" fill="#df5753"/>
      <ellipse id="Elipse_448" data-name="Elipse 448" cx="1.122" cy="1.72" rx="1.122" ry="1.72" transform="translate(75.857 22.317)" fill="#263238"/>
      <path id="Trazado_13960" data-name="Trazado 13960" d="M160,173.013l2.274-.643S161.167,174.135,160,173.013Z" transform="translate(-83.35 -150.636)" fill="#263238"/>
      <path id="Trazado_13961" data-name="Trazado 13961" d="M141.614,182.34c1.361,6.956,2.723,19.716-2.154,24.368,0,0,1.915,7.061,14.854,7.061,14.226,0,6.791-7.061,6.791-7.061-7.764-1.855-7.569-7.614-6.208-13.029Z" transform="translate(-93.536 -145.692)" fill="#e58a7b"/>
      <path id="Trazado_13962" data-name="Trazado 13962" d="M138.383,177.369c.718,11.623.778,16.56,6.642,22.528,8.841,8.975,22.962,5.565,25.73-5.984,2.5-10.471.913-27.7-10.471-32.326a15.886,15.886,0,0,0-21.9,15.782Z" transform="translate(-94.089 -156.577)" fill="#e58a7b"/>
      <path id="Trazado_13963" data-name="Trazado 13963" d="M143.216,163.181c-5.834,2.124-13.613.538-10.561,18.534,3.231,19.058-1.735,25.326-1.735,25.326s22.124,4.712,44.713-.284c0,0-6.9-12.057-4.966-20.943,2.468-11.219.524-15.363.524-15.363S151.414,160.189,143.216,163.181Z" transform="translate(-97.771 -155.464)" fill="#263238"/>
      <path id="Trazado_13964" data-name="Trazado 13964" d="M155.64,176.875a11.683,11.683,0,0,0,1.825,6.238c1.586,2.423,3.456,1.5,3.919-1.077.419-2.259.1-6.253-1.915-7.809S155.67,174.2,155.64,176.875Z" transform="translate(-85.512 -150.025)" fill="#e58a7b"/>
      <path id="Trazado_13965" data-name="Trazado 13965" d="M135.822,167.518c-1.675-4.712,6.313-11.967,23.216-8.975s17.637,17.068,17.637,17.068l-3.411-4.069.15,4.278-17.367,3.336Z" transform="translate(-95.448 -157.841)" fill="#263238"/>
      <path id="Trazado_13966" data-name="Trazado 13966" d="M136.719,200.82h0a2.648,2.648,0,0,1,2.169-2.992c5.266-.868,17.233-2.633,23.246-1.8,4.488.628,5.655,3.231,5.849,5.37a2.633,2.633,0,0,1-2.767,2.842l-26-1.167A2.663,2.663,0,0,1,136.719,200.82Z" transform="translate(-94.909 -139.011)" fill="#208dfe"/>
      <path id="Trazado_13967" data-name="Trazado 13967" d="M136.719,200.82h0a2.648,2.648,0,0,1,2.169-2.992c5.266-.868,17.233-2.633,23.246-1.8,4.488.628,5.655,3.231,5.849,5.37a2.633,2.633,0,0,1-2.767,2.842l-26-1.167A2.663,2.663,0,0,1,136.719,200.82Z" transform="translate(-94.909 -139.011)" opacity="0.6"/>
      <path id="Trazado_13968" data-name="Trazado 13968" d="M146.76,381.11l9.649,6.7,16.141-21.885L162.9,359.24Z" transform="translate(-89.916 -57.967)" fill="#e58a7b"/>
      <path id="Trazado_13969" data-name="Trazado 13969" d="M131.72,381.242l10.187,5.8L156.193,363.9l-10.187-5.8Z" transform="translate(-97.374 -58.532)" fill="#e58a7b"/>
      <path id="Trazado_13970" data-name="Trazado 13970" d="M169.946,365.927l-8.317,11.279-9.649-6.687L160.3,359.24Z" transform="translate(-87.327 -57.967)" fill="#cf6f64"/>
      <path id="Trazado_13971" data-name="Trazado 13971" d="M143.7,358.1l10.2,5.819-7.36,11.922-10.2-5.819Z" transform="translate(-95.083 -58.532)" fill="#cf6f64"/>
      <path id="Trazado_13972" data-name="Trazado 13972" d="M164.683,248s37.667,47.465,30.591,92.866c-5.7,36.665-38.759,86.314-38.759,86.314l-15.542-7.719a507.507,507.507,0,0,0,27.973-67.974,50.247,50.247,0,0,0-5.984-43.531c-19.088-27.869-49.664-11.279-29.1-59.956Z" transform="translate(-99.701 -113.131)" fill="#208dfe"/>
      <path id="Trazado_13973" data-name="Trazado 13973" d="M164.683,248s37.667,47.465,30.591,92.866c-5.7,36.665-38.759,86.314-38.759,86.314l-15.542-7.719a507.507,507.507,0,0,0,27.973-67.974,50.247,50.247,0,0,0-5.984-43.531c-19.088-27.869-49.664-11.279-29.1-59.956Z" transform="translate(-99.701 -113.131)" fill="url(#linear-gradient-2)"/>
      <path id="Trazado_13974" data-name="Trazado 13974" d="M166.365,270.185l-5.475-5.445c0,.434,10.606,65.91,13.583,84.309a111.485,111.485,0,0,0,4.024-16.455C182,310.32,174.682,287.568,166.365,270.185Z" transform="translate(-82.909 -104.829)" opacity="0.4"/>
      <path id="Trazado_13975" data-name="Trazado 13975" d="M178.039,248s45.356,59.657,46.642,95.424c1.062,29.918-49.365,87.884-49.365,87.884l-14.66-9.484s29.514-41.167,36.949-74.8C194.734,313.7,134,248,134,248Z" transform="translate(-96.243 -113.131)" fill="#208dfe"/>
      <path id="Trazado_13976" data-name="Trazado 13976" d="M178.039,248s45.356,59.657,46.642,95.424c1.062,29.918-49.365,87.884-49.365,87.884l-14.66-9.484s29.514-41.167,36.949-74.8C194.734,313.7,134,248,134,248Z" transform="translate(-96.243 -113.131)" fill="url(#linear-gradient-2)"/>
      <path id="Trazado_13977" data-name="Trazado 13977" d="M129.079,200.478c-4.847,1.152-9.5,18.774-9.5,18.774l18.953,12.655s6.313-13.942,4.1-20.045C140.343,205.5,135.167,199.027,129.079,200.478Z" transform="translate(-103.394 -136.799)" fill="url(#linear-gradient)"/>
      <path id="Trazado_13978" data-name="Trazado 13978" d="M128.846,208l-1.316,15.363,7.046,4.727a63.124,63.124,0,0,0,4.293-13.673Z" transform="translate(-99.452 -132.967)" opacity="0.2"/>
      <path id="Trazado_13979" data-name="Trazado 13979" d="M187.651,201.765s5.595,1.96-5.61,70.831h-47.66c.808-19.447.823-31.414-8.452-71.175a141.042,141.042,0,0,1,20.24-2.663,151.323,151.323,0,0,1,21.646,0C177.12,199.611,187.651,201.765,187.651,201.765Z" transform="translate(-100.245 -137.742)" fill="url(#linear-gradient)"/>
      <path id="Trazado_13980" data-name="Trazado 13980" d="M174.189,209.6c1.077,2.992,2.214,6.208,3.411,9.3s2.334,6.283,3.545,9.424l3.665,9.394.927,2.349.479,1.167.224.583v.09a3.082,3.082,0,0,0-1.047-.927,4.264,4.264,0,0,0-1.945-.583,3.906,3.906,0,0,0-1.66.314c-.688.314-.688.449-.673.434a1.813,1.813,0,0,0,.329-.344,20.391,20.391,0,0,0,2.139-3.485c.7-1.376,1.376-2.842,2.049-4.323,1.316-2.992,2.528-6.088,3.74-9.215s2.364-6.283,3.485-9.469l3.411-9.544,5.759,1.5c-1.137,6.821-2.6,13.463-4.368,20.225-.853,3.366-1.855,6.7-2.992,10.067-.568,1.69-1.2,3.366-1.915,5.086A32.237,32.237,0,0,1,190,247a13.939,13.939,0,0,1-1.316,1.616,8.107,8.107,0,0,1-2.723,1.93,6.7,6.7,0,0,1-2.9.538,6.581,6.581,0,0,1-3.156-.942,8.048,8.048,0,0,1-2.723-2.827c-.224-.389-.419-.778-.553-1.062l-.284-.568-.569-1.167-1.137-2.319c-1.5-3.111-2.992-6.253-4.293-9.409s-2.678-6.358-3.964-9.574-2.438-6.432-3.53-9.9Z" transform="translate(-81.937 -134.569)" fill="#e58a7b"/>
      <path id="Trazado_13981" data-name="Trazado 13981" d="M171.816,200.789c5.729,1.361,12.177,18.295,12.177,18.295l-17.038,14.5s-11.025-18.46-8.8-24.548C160.477,202.688,164.337,199.008,171.816,200.789Z" transform="translate(-84.411 -136.765)" fill="url(#linear-gradient)"/>
      <path id="Trazado_13982" data-name="Trazado 13982" d="M187.921,202.846l5.984-5,4.159,6.477-3.067,5.4s-4.877,4.488-9.185,2.2h0a7.733,7.733,0,0,1,2.109-9.08Z" transform="translate(-70.881 -138)" fill="#e58a7b"/>
      <path id="Trazado_13983" data-name="Trazado 13983" d="M201.815,197.865l-.449,1.631-9.469,1.586-.927-3.231Z" transform="translate(-67.992 -138)" fill="#e58a7b"/>
      <path id="Trazado_13984" data-name="Trazado 13984" d="M168.063,376.475l-17.083-11.04,3.067-5.325,19.192,11.8Z" transform="translate(-87.823 -57.535)" fill="#208dfe"/>
      <path id="Trazado_13985" data-name="Trazado 13985" d="M144.458,377.857a10.294,10.294,0,0,1-4.218-1.5.269.269,0,0,1,0-.509c.464-.15,4.488-1.391,5.654-.434a.957.957,0,0,1,.329.912,1.586,1.586,0,0,1-.853,1.287,1.96,1.96,0,0,1-.912.239Zm-3.366-1.645c1.87.957,3.366,1.3,4.084.942a1.047,1.047,0,0,0,.539-.868c0-.239,0-.344-.135-.4-.628-.509-2.872-.12-4.518.329Z" transform="translate(-93.239 -50.121)" fill="#263238"/>
      <path id="Trazado_13986" data-name="Trazado 13986" d="M140.331,377.527a.3.3,0,0,1-.209-.09.284.284,0,0,1,0-.269c0-.135.972-3.381,2.5-4.114a1.5,1.5,0,0,1,1.242,0,.987.987,0,0,1,.688,1c-.1,1.346-2.842,3.2-4.1,3.515Zm2.9-4.084a1.016,1.016,0,0,0-.419.1c-.928.449-1.69,2.2-2.064,3.261,1.316-.553,3.126-2.02,3.186-2.842,0-.135,0-.3-.344-.449a1.107,1.107,0,0,0-.359-.12Z" transform="translate(-93.225 -51.183)" fill="#263238"/>
      <path id="Trazado_13987" data-name="Trazado 13987" d="M159.052,382.564c-1.69,0-4.039-2.169-5.325-3.5a.269.269,0,0,1,0-.314.314.314,0,0,1,.284-.15c.6,0,5.789.778,6.522,2.244a.852.852,0,0,1,0,.867,1.5,1.5,0,0,1-1.182.838Zm-4.338-3.291c1.885,1.825,3.545,2.842,4.488,2.723a1.017,1.017,0,0,0,.778-.553.314.314,0,0,0,0-.344c-.389-.808-3.156-1.5-5.266-1.825Z" transform="translate(-86.486 -48.366)" fill="#263238"/>
      <path id="Trazado_13988" data-name="Trazado 13988" d="M154.893,380.073a4.9,4.9,0,0,1-1-.075.27.27,0,0,1-.209-.165.314.314,0,0,1,0-.284c.09-.1,2.109-2.543,4.024-2.708a2.079,2.079,0,0,1,1.5.479c.583.509.553.957.4,1.242C159.231,379.58,156.643,380.073,154.893,380.073Zm-.389-.553c1.675.09,4.353-.464,4.7-1.2,0,0,.12-.239-.269-.569a1.5,1.5,0,0,0-1.137-.359,6.552,6.552,0,0,0-3.291,2.139Z" transform="translate(-86.5 -49.241)" fill="#263238"/>
      <path id="Trazado_13989" data-name="Trazado 13989" d="M146.562,376.124l-12.685-3.59a.927.927,0,0,0-1.122.524l-4.278,9.619a1.885,1.885,0,0,0,1.242,2.528c4.488,1.167,6.642,1.5,12.222,3.1,3.441.957,8.347,2.737,13.089,4.084s6.328-3.276,4.488-4.263c-8.317-4.4-8.975-7.479-11.249-10.77A3.082,3.082,0,0,0,146.562,376.124Z" transform="translate(-99.052 -51.394)" fill="#208dfe"/>
      <path id="Trazado_13990" data-name="Trazado 13990" d="M160.471,380.278l-10.83-7.48a.927.927,0,0,0-1.227.12l-7.18,7.719a1.87,1.87,0,0,0,.359,2.783c3.814,2.558,5.789,3.59,10.561,6.9,2.992,2.034,8.781,6.552,12.82,9.364s7.046-1.047,5.61-2.573c-6.432-6.866-7.839-11.175-8.9-15.079A3.1,3.1,0,0,0,160.471,380.278Z" transform="translate(-92.886 -51.331)" fill="#208dfe"/>
      <path id="Trazado_13991" data-name="Trazado 13991" d="M154.542,373.414l-19.522-9.708,2.02-5.3,20.853,10.232Z" transform="translate(-95.738 -58.378)" fill="#208dfe"/>
      <path id="Trazado_13992" data-name="Trazado 13992" d="M131.658,246.226l-1.645,4.308c-.165.329.224.673.778.673h49.484c.434,0,.793-.209.823-.479l.419-4.278c0-.284-.344-.539-.808-.539H132.436A.913.913,0,0,0,131.658,246.226Z" transform="translate(-98.24 -114.169)" fill="#208dfe"/>
      <path id="Trazado_13993" data-name="Trazado 13993" d="M131.658,246.226l-1.645,4.308c-.165.329.224.673.778.673h49.484c.434,0,.793-.209.823-.479l.419-4.278c0-.284-.344-.539-.808-.539H132.436A.913.913,0,0,0,131.658,246.226Z" transform="translate(-98.24 -114.169)" fill="#fff" opacity="0.4"/>
      <path id="Trazado_13994" data-name="Trazado 13994" d="M136.886,251.763h-1.3c-.254,0-.449-.135-.434-.3l.613-5.55c0-.15.239-.284.494-.284h1.3c.254,0,.449.135.434.284l-.613,5.55C137.364,251.629,137.14,251.763,136.886,251.763Z" transform="translate(-95.673 -114.306)" fill="#208dfe"/>
      <path id="Trazado_13995" data-name="Trazado 13995" d="M157.281,251.763h-1.286c-.254,0-.449-.135-.434-.3l.6-5.55c0-.15.254-.284.509-.284h1.286c.254,0,.464.135.434.284l-.6,5.55A.523.523,0,0,1,157.281,251.763Z" transform="translate(-85.552 -114.306)" fill="#208dfe"/>
      <ellipse id="Elipse_449" data-name="Elipse 449" cx="40.075" cy="2.902" rx="40.075" ry="2.902" transform="translate(0 384.984)" fill="#f5f5f5"/>
      <path id="Trazado_13996" data-name="Trazado 13996" d="M168.545,478.932c-7.091-2.064-14.959-4.712-19.716-7.48-.135-.09-.284-.135-.419-.209v-32.1h14.346a4.278,4.278,0,0,0,0-8.542H148.485V284.27h-8.616V430.6H125.612a4.278,4.278,0,1,0,0,8.542h14.256V471.2c-.135,0-.269.12-.4.209-4.832,2.812-12.64,5.46-19.731,7.48a2.094,2.094,0,0,0,.583,4.1h47.645a2.094,2.094,0,0,0,.583-4.054Z" transform="translate(-104.056 -95.144)" fill="#fff"/>
      <rect id="Rectángulo_1216" data-name="Rectángulo 1216" width="68.692" height="31.309" rx="5.18" transform="translate(5.744 174.226)" fill="#208dfe"/>
      <path id="Trazado_13997" data-name="Trazado 13997" d="M117.45,295.25v2.723c0,2.244,2.438,4.069,5.43,4.069h43.381c2.992,0,5.43-1.825,5.43-4.069V295.25Z" transform="translate(-104.451 -89.699)" fill="#208dfe"/>
      <path id="Trazado_13998" data-name="Trazado 13998" d="M117.45,295.25v2.723c0,2.244,2.438,4.069,5.43,4.069h43.381c2.992,0,5.43-1.825,5.43-4.069V295.25Z" transform="translate(-104.451 -89.699)" fill="#fff" opacity="0.3"/>
    </g>
  </g>
</svg>
